# MagicaVoxel @ Ephtracy

# group
g boy1-1

# material
mtllib boy1-1.mtl
usemtl palette

# normals
vn -1 0 0
vn 1 0 0
vn 0 0 1
vn 0 0 -1
vn 0 -1 0
vn 0 1 0

# texcoords
vt 0.0371094 0.5
vt 0.0605469 0.5
vt 0.0644531 0.5
vt 0.201172 0.5
vt 0.369141 0.5
vt 0.521484 0.5
vt 0.818359 0.5
vt 0.833984 0.5
vt 0.841797 0.5
vt 0.861328 0.5
vt 0.958984 0.5
vt 0.978516 0.5
vt 0.982422 0.5
vt 0.986328 0.5
vt 0.994141 0.5

# verts
v -4 9 1.5
v -4 9 0.5
v -4 9 -0.5
v -4 9 -1.5
v -4 10 2.5
v -4 10 1.5
v -4 10 0.5
v -4 10 -0.5
v -4 10 -1.5
v -4 10 -2.5
v -4 11 2.5
v -4 11 -2.5
v -3 4 0.5
v -3 4 -0.5
v -3 5 0.5
v -3 5 -0.5
v -3 8 1.5
v -3 8 0.5
v -3 8 -0.5
v -3 8 -2.5
v -3 9 2.5
v -3 9 1.5
v -3 9 0.5
v -3 9 -0.5
v -3 9 -1.5
v -3 10 3.5
v -3 10 2.5
v -3 10 1.5
v -3 10 -1.5
v -3 10 -2.5
v -3 10 -3.5
v -3 11 3.5
v -3 11 2.5
v -3 11 1.5
v -3 11 -1.5
v -3 11 -2.5
v -3 11 -3.5
v -3 12 2.5
v -3 12 1.5
v -3 12 0.5
v -3 12 -0.5
v -3 12 -1.5
v -3 12 -2.5
v -3 13 2.5
v -3 13 1.5
v -3 13 0.5
v -3 13 -0.5
v -3 13 -1.5
v -3 13 -2.5
v -3 14 2.5
v -3 14 -2.5
v -2 0 0.5
v -2 0 -0.5
v -2 2 1.5
v -2 2 0.5
v -2 2 -0.5
v -2 2 -1.5
v -2 4 0.5
v -2 4 -0.5
v -2 5 1.5
v -2 5 0.5
v -2 5 -0.5
v -2 5 -1.5
v -2 7 1.5
v -2 7 0.5
v -2 8 1.5
v -2 8 0.5
v -2 8 -0.5
v -2 8 -1.5
v -2 14 1.5
v -2 14 -1.5
v -2 15 1.5
v -2 15 -1.5
v 1 0 0.5
v 1 0 -0.5
v 1 2 0.5
v 1 2 -0.5
v 1 3 0.5
v 1 3 -0.5
v 1 14 0.5
v 1 14 -0.5
v 1 15 0.5
v 1 15 -0.5
v 2 9 2.5
v 2 9 1.5
v 2 10 2.5
v 2 10 1.5
v -2 9 2.5
v -2 9 1.5
v -2 10 2.5
v -2 10 1.5
v -1 0 0.5
v -1 0 -0.5
v -1 2 0.5
v -1 2 -0.5
v -1 3 0.5
v -1 3 -0.5
v -1 14 0.5
v -1 14 -0.5
v -1 15 0.5
v -1 15 -0.5
v 2 0 0.5
v 2 0 -0.5
v 2 2 1.5
v 2 2 0.5
v 2 2 -0.5
v 2 2 -1.5
v 2 4 0.5
v 2 4 -0.5
v 2 5 1.5
v 2 5 0.5
v 2 5 -0.5
v 2 5 -1.5
v 2 6 1.5
v 2 6 0.5
v 2 7 1.5
v 2 7 0.5
v 2 8 1.5
v 2 8 0.5
v 2 8 -0.5
v 2 8 -1.5
v 2 14 1.5
v 2 14 -1.5
v 2 15 1.5
v 2 15 -1.5
v 3 4 0.5
v 3 4 -0.5
v 3 5 0.5
v 3 5 -0.5
v 3 8 1.5
v 3 8 0.5
v 3 8 -0.5
v 3 8 -2.5
v 3 9 2.5
v 3 9 1.5
v 3 9 0.5
v 3 9 -0.5
v 3 9 -1.5
v 3 10 3.5
v 3 10 2.5
v 3 10 1.5
v 3 10 -1.5
v 3 10 -2.5
v 3 10 -3.5
v 3 11 3.5
v 3 11 2.5
v 3 11 -2.5
v 3 11 -3.5
v 3 12 2.5
v 3 12 1.5
v 3 12 0.5
v 3 12 -0.5
v 3 12 -1.5
v 3 12 -2.5
v 3 13 2.5
v 3 13 1.5
v 3 13 0.5
v 3 13 -0.5
v 3 13 -1.5
v 3 13 -2.5
v 3 14 2.5
v 3 14 -2.5
v 4 9 1.5
v 4 9 0.5
v 4 9 -0.5
v 4 9 -1.5
v 4 10 2.5
v 4 10 1.5
v 4 10 0.5
v 4 10 -0.5
v 4 10 -1.5
v 4 10 -2.5
v 4 11 2.5
v 4 11 -2.5
v -3 10 3.5
v -3 11 3.5
v 3 10 3.5
v 3 11 3.5
v -4 10 2.5
v -4 11 2.5
v -3 9 2.5
v -3 10 2.5
v -3 11 2.5
v -3 12 2.5
v -3 13 2.5
v -3 14 2.5
v -2 9 2.5
v -2 10 2.5
v -2 12 2.5
v -2 13 2.5
v -1 12 2.5
v -1 13 2.5
v 1 12 2.5
v 1 13 2.5
v 2 9 2.5
v 2 10 2.5
v 2 12 2.5
v 2 13 2.5
v 3 9 2.5
v 3 10 2.5
v 3 11 2.5
v 3 12 2.5
v 3 13 2.5
v 3 14 2.5
v 4 10 2.5
v 4 11 2.5
v -4 9 1.5
v -4 10 1.5
v -3 8 1.5
v -3 9 1.5
v -3 10 1.5
v -2 2 1.5
v -2 5 1.5
v -2 7 1.5
v -2 8 1.5
v -2 9 1.5
v -2 10 1.5
v -2 14 1.5
v -2 15 1.5
v -1 5 1.5
v -1 7 1.5
v -1 9 1.5
v -1 10 1.5
v 0 2 1.5
v 0 5 1.5
v 1 2 1.5
v 1 5 1.5
v 1 6 1.5
v 1 7 1.5
v 1 9 1.5
v 1 10 1.5
v 2 2 1.5
v 2 5 1.5
v 2 6 1.5
v 2 7 1.5
v 2 8 1.5
v 2 9 1.5
v 2 10 1.5
v 2 14 1.5
v 2 15 1.5
v 3 8 1.5
v 3 9 1.5
v 3 10 1.5
v 4 9 1.5
v 4 10 1.5
v -3 4 0.5
v -3 5 0.5
v -3 8 0.5
v -2 0 0.5
v -2 2 0.5
v -2 4 0.5
v -2 5 0.5
v -2 7 0.5
v -2 8 0.5
v -1 0 0.5
v -1 2 0.5
v 1 0 0.5
v 1 2 0.5
v 2 0 0.5
v 2 2 0.5
v 2 4 0.5
v 2 5 0.5
v 2 6 0.5
v 2 7 0.5
v 2 8 0.5
v 3 4 0.5
v 3 5 0.5
v 3 8 0.5
v -1 2 -0.5
v -1 3 -0.5
v -1 14 -0.5
v -1 15 -0.5
v 1 2 -0.5
v 1 3 -0.5
v 1 14 -0.5
v 1 15 -0.5
v -1 2 0.5
v -1 3 0.5
v -1 14 0.5
v -1 15 0.5
v 0 2 0.5
v 0 3 0.5
v 1 2 0.5
v 1 3 0.5
v 1 14 0.5
v 1 15 0.5
v -3 4 -0.5
v -3 5 -0.5
v -3 8 -0.5
v -2 0 -0.5
v -2 2 -0.5
v -2 4 -0.5
v -2 5 -0.5
v -2 8 -0.5
v -1 0 -0.5
v -1 2 -0.5
v 1 0 -0.5
v 1 2 -0.5
v 2 0 -0.5
v 2 2 -0.5
v 2 4 -0.5
v 2 5 -0.5
v 2 8 -0.5
v 3 4 -0.5
v 3 5 -0.5
v 3 8 -0.5
v -4 9 -1.5
v -4 10 -1.5
v -3 9 -1.5
v -3 10 -1.5
v -2 2 -1.5
v -2 5 -1.5
v -2 8 -1.5
v -2 14 -1.5
v -2 15 -1.5
v 2 2 -1.5
v 2 5 -1.5
v 2 8 -1.5
v 2 14 -1.5
v 2 15 -1.5
v 3 9 -1.5
v 3 10 -1.5
v 4 9 -1.5
v 4 10 -1.5
v -4 10 -2.5
v -4 11 -2.5
v -3 8 -2.5
v -3 10 -2.5
v -3 11 -2.5
v -3 12 -2.5
v -3 13 -2.5
v -3 14 -2.5
v -2 12 -2.5
v -2 13 -2.5
v -1 12 -2.5
v -1 13 -2.5
v 1 12 -2.5
v 1 13 -2.5
v 2 12 -2.5
v 2 13 -2.5
v 3 8 -2.5
v 3 10 -2.5
v 3 11 -2.5
v 3 12 -2.5
v 3 13 -2.5
v 3 14 -2.5
v 4 10 -2.5
v 4 11 -2.5
v -3 10 -3.5
v -3 11 -3.5
v 3 10 -3.5
v 3 11 -3.5
v -2 0 0.5
v -1 0 0.5
v 1 0 0.5
v 2 0 0.5
v -2 0 -0.5
v -1 0 -0.5
v 1 0 -0.5
v 2 0 -0.5
v -2 2 1.5
v 0 2 1.5
v 1 2 1.5
v 2 2 1.5
v -2 2 0.5
v -1 2 0.5
v 0 2 0.5
v 1 2 0.5
v 2 2 0.5
v -2 2 -0.5
v -1 2 -0.5
v 1 2 -0.5
v 2 2 -0.5
v -2 2 -1.5
v 2 2 -1.5
v -1 3 0.5
v 0 3 0.5
v 1 3 0.5
v -1 3 -0.5
v 1 3 -0.5
v -3 4 0.5
v -2 4 0.5
v 2 4 0.5
v 3 4 0.5
v -3 4 -0.5
v -2 4 -0.5
v 2 4 -0.5
v 3 4 -0.5
v -3 8 1.5
v -2 8 1.5
v 2 8 1.5
v 3 8 1.5
v -3 8 0.5
v -2 8 0.5
v 2 8 0.5
v 3 8 0.5
v -3 8 -0.5
v -2 8 -0.5
v 2 8 -0.5
v 3 8 -0.5
v -2 8 -1.5
v 2 8 -1.5
v -3 8 -2.5
v 3 8 -2.5
v -3 9 2.5
v -2 9 2.5
v 2 9 2.5
v 3 9 2.5
v -4 9 1.5
v -3 9 1.5
v -2 9 1.5
v 2 9 1.5
v 3 9 1.5
v 4 9 1.5
v -4 9 0.5
v -3 9 0.5
v 3 9 0.5
v 4 9 0.5
v -4 9 -0.5
v -3 9 -0.5
v 3 9 -0.5
v 4 9 -0.5
v -4 9 -1.5
v -3 9 -1.5
v 3 9 -1.5
v 4 9 -1.5
v -3 10 3.5
v 3 10 3.5
v -4 10 2.5
v -3 10 2.5
v -2 10 2.5
v 2 10 2.5
v 3 10 2.5
v 4 10 2.5
v -4 10 1.5
v -3 10 1.5
v -2 10 1.5
v -1 10 1.5
v 1 10 1.5
v 2 10 1.5
v 3 10 1.5
v 4 10 1.5
v -4 10 -1.5
v -3 10 -1.5
v 3 10 -1.5
v 4 10 -1.5
v -4 10 -2.5
v -3 10 -2.5
v 3 10 -2.5
v 4 10 -2.5
v -3 10 -3.5
v 3 10 -3.5
v -3 11 3.5
v 3 11 3.5
v -4 11 2.5
v -3 11 2.5
v 3 11 2.5
v 4 11 2.5
v -3 11 1.5
v -3 11 -1.5
v -4 11 -2.5
v -3 11 -2.5
v 3 11 -2.5
v 4 11 -2.5
v -3 11 -3.5
v 3 11 -3.5
v -3 14 2.5
v 3 14 2.5
v -2 14 1.5
v 2 14 1.5
v -1 14 0.5
v 1 14 0.5
v -1 14 -0.5
v 1 14 -0.5
v -2 14 -1.5
v 2 14 -1.5
v -3 14 -2.5
v 3 14 -2.5
v -2 15 1.5
v 2 15 1.5
v -1 15 0.5
v 1 15 0.5
v -1 15 -0.5
v 1 15 -0.5
v -2 15 -1.5
v 2 15 -1.5

# faces
f 6/1/1 2/1/1 1/1/1
f 7/2/1 3/2/1 2/2/1
f 7/1/1 2/1/1 6/1/1
f 8/1/1 4/1/1 3/1/1
f 8/2/1 3/2/1 7/2/1
f 9/1/1 4/1/1 8/1/1
f 11/10/1 7/10/1 6/10/1
f 11/10/1 10/10/1 9/10/1
f 11/10/1 9/10/1 8/10/1
f 11/10/1 8/10/1 7/10/1
f 11/10/1 6/10/1 5/10/1
f 12/10/1 10/10/1 11/10/1
f 15/2/1 14/2/1 13/2/1
f 16/2/1 14/2/1 15/2/1
f 18/7/1 16/7/1 15/7/1
f 19/7/1 16/7/1 18/7/1
f 22/1/1 19/1/1 18/1/1
f 22/1/1 20/1/1 19/1/1
f 22/1/1 18/1/1 17/1/1
f 23/1/1 20/1/1 22/1/1
f 24/1/1 20/1/1 23/1/1
f 25/1/1 20/1/1 24/1/1
f 27/1/1 22/1/1 21/1/1
f 28/1/1 22/1/1 27/1/1
f 29/1/1 20/1/1 25/1/1
f 30/1/1 20/1/1 29/1/1
f 32/10/1 27/10/1 26/10/1
f 33/10/1 27/10/1 32/10/1
f 36/10/1 31/10/1 30/10/1
f 37/10/1 31/10/1 36/10/1
f 38/10/1 34/10/1 33/10/1
f 39/8/1 35/8/1 34/8/1
f 39/10/1 34/10/1 38/10/1
f 40/8/1 35/8/1 39/8/1
f 41/8/1 35/8/1 40/8/1
f 42/10/1 36/10/1 35/10/1
f 42/8/1 35/8/1 41/8/1
f 43/10/1 36/10/1 42/10/1
f 44/15/1 39/15/1 38/15/1
f 45/13/1 40/13/1 39/13/1
f 45/15/1 39/15/1 44/15/1
f 46/11/1 41/11/1 40/11/1
f 46/13/1 40/13/1 45/13/1
f 47/13/1 42/13/1 41/13/1
f 47/11/1 41/11/1 46/11/1
f 48/15/1 43/15/1 42/15/1
f 48/13/1 42/13/1 47/13/1
f 49/15/1 43/15/1 48/15/1
f 50/10/1 45/10/1 44/10/1
f 50/10/1 46/10/1 45/10/1
f 50/10/1 49/10/1 48/10/1
f 50/10/1 48/10/1 47/10/1
f 50/10/1 47/10/1 46/10/1
f 51/10/1 49/10/1 50/10/1
f 55/15/1 53/15/1 52/15/1
f 56/15/1 53/15/1 55/15/1
f 58/5/1 55/5/1 54/5/1
f 58/5/1 57/5/1 56/5/1
f 58/5/1 56/5/1 55/5/1
f 59/5/1 57/5/1 58/5/1
f 60/5/1 58/5/1 54/5/1
f 61/5/1 58/5/1 60/5/1
f 62/5/1 57/5/1 59/5/1
f 63/5/1 57/5/1 62/5/1
f 64/13/1 61/13/1 60/13/1
f 65/13/1 61/13/1 64/13/1
f 66/14/1 65/14/1 64/14/1
f 67/14/1 65/14/1 66/14/1
f 68/7/1 63/7/1 62/7/1
f 69/7/1 63/7/1 68/7/1
f 72/10/1 71/10/1 70/10/1
f 73/10/1 71/10/1 72/10/1
f 76/15/1 75/15/1 74/15/1
f 77/15/1 75/15/1 76/15/1
f 78/5/1 77/5/1 76/5/1
f 79/5/1 77/5/1 78/5/1
f 82/10/1 81/10/1 80/10/1
f 83/10/1 81/10/1 82/10/1
f 86/1/1 85/1/1 84/1/1
f 87/1/1 85/1/1 86/1/1
f 88/1/2 89/1/2 90/1/2
f 90/1/2 89/1/2 91/1/2
f 92/15/2 93/15/2 94/15/2
f 94/15/2 93/15/2 95/15/2
f 94/5/2 95/5/2 96/5/2
f 96/5/2 95/5/2 97/5/2
f 98/10/2 99/10/2 100/10/2
f 100/10/2 99/10/2 101/10/2
f 102/15/2 103/15/2 105/15/2
f 105/15/2 103/15/2 106/15/2
f 104/5/2 105/5/2 108/5/2
f 106/5/2 107/5/2 108/5/2
f 105/5/2 106/5/2 108/5/2
f 108/5/2 107/5/2 109/5/2
f 104/5/2 108/5/2 110/5/2
f 110/5/2 108/5/2 111/5/2
f 109/5/2 107/5/2 112/5/2
f 112/5/2 107/5/2 113/5/2
f 110/7/2 111/7/2 114/7/2
f 114/7/2 111/7/2 115/7/2
f 114/9/2 115/9/2 116/9/2
f 116/9/2 115/9/2 117/9/2
f 116/14/2 117/14/2 118/14/2
f 118/14/2 117/14/2 119/14/2
f 112/7/2 113/7/2 120/7/2
f 120/7/2 113/7/2 121/7/2
f 122/10/2 123/10/2 124/10/2
f 124/10/2 123/10/2 125/10/2
f 126/2/2 127/2/2 128/2/2
f 128/2/2 127/2/2 129/2/2
f 128/7/2 129/7/2 131/7/2
f 131/7/2 129/7/2 132/7/2
f 131/1/2 132/1/2 135/1/2
f 132/1/2 133/1/2 135/1/2
f 130/1/2 131/1/2 135/1/2
f 135/1/2 133/1/2 136/1/2
f 136/1/2 133/1/2 137/1/2
f 137/1/2 133/1/2 138/1/2
f 134/1/2 135/1/2 140/1/2
f 140/1/2 135/1/2 141/1/2
f 138/1/2 133/1/2 142/1/2
f 142/1/2 133/1/2 143/1/2
f 139/10/2 140/10/2 145/10/2
f 145/10/2 140/10/2 146/10/2
f 143/10/2 144/10/2 147/10/2
f 147/10/2 144/10/2 148/10/2
f 146/10/2 147/10/2 149/10/2
f 149/10/2 147/10/2 150/10/2
f 150/10/2 147/10/2 151/10/2
f 151/10/2 147/10/2 152/10/2
f 152/10/2 147/10/2 153/10/2
f 153/10/2 147/10/2 154/10/2
f 149/15/2 150/15/2 155/15/2
f 150/13/2 151/13/2 156/13/2
f 155/15/2 150/15/2 156/15/2
f 151/11/2 152/11/2 157/11/2
f 156/13/2 151/13/2 157/13/2
f 152/13/2 153/13/2 158/13/2
f 157/11/2 152/11/2 158/11/2
f 153/15/2 154/15/2 159/15/2
f 158/13/2 153/13/2 159/13/2
f 159/15/2 154/15/2 160/15/2
f 155/10/2 156/10/2 161/10/2
f 156/10/2 157/10/2 161/10/2
f 159/10/2 160/10/2 161/10/2
f 158/10/2 159/10/2 161/10/2
f 157/10/2 158/10/2 161/10/2
f 161/10/2 160/10/2 162/10/2
f 163/1/2 164/1/2 168/1/2
f 164/2/2 165/2/2 169/2/2
f 168/1/2 164/1/2 169/1/2
f 165/1/2 166/1/2 170/1/2
f 169/2/2 165/2/2 170/2/2
f 170/1/2 166/1/2 171/1/2
f 168/10/2 169/10/2 173/10/2
f 171/10/2 172/10/2 173/10/2
f 170/10/2 171/10/2 173/10/2
f 169/10/2 170/10/2 173/10/2
f 167/10/2 168/10/2 173/10/2
f 173/10/2 172/10/2 174/10/2
f 177/10/3 176/10/3 175/10/3
f 178/10/3 176/10/3 177/10/3
f 182/10/3 180/10/3 179/10/3
f 183/10/3 180/10/3 182/10/3
f 187/1/3 182/1/3 181/1/3
f 188/1/3 182/1/3 187/1/3
f 189/15/3 185/15/3 184/15/3
f 189/10/3 184/10/3 183/10/3
f 190/10/3 186/10/3 185/10/3
f 190/15/3 185/15/3 189/15/3
f 191/10/3 189/10/3 183/10/3
f 191/12/3 190/12/3 189/12/3
f 192/10/3 186/10/3 190/10/3
f 192/12/3 190/12/3 191/12/3
f 193/10/3 191/10/3 183/10/3
f 193/11/3 192/11/3 191/11/3
f 194/10/3 186/10/3 192/10/3
f 194/11/3 192/11/3 193/11/3
f 197/10/3 193/10/3 183/10/3
f 197/12/3 194/12/3 193/12/3
f 198/10/3 186/10/3 194/10/3
f 198/12/3 194/12/3 197/12/3
f 199/1/3 196/1/3 195/1/3
f 200/1/3 196/1/3 199/1/3
f 201/10/3 197/10/3 183/10/3
f 202/15/3 198/15/3 197/15/3
f 202/10/3 197/10/3 201/10/3
f 203/10/3 186/10/3 198/10/3
f 203/15/3 198/15/3 202/15/3
f 204/10/3 186/10/3 203/10/3
f 205/10/3 201/10/3 200/10/3
f 206/10/3 201/10/3 205/10/3
f 210/1/3 208/1/3 207/1/3
f 211/1/3 208/1/3 210/1/3
f 215/1/3 210/1/3 209/1/3
f 216/1/3 210/1/3 215/1/3
f 220/13/3 214/13/3 213/13/3
f 220/5/3 213/5/3 212/5/3
f 221/14/3 215/14/3 214/14/3
f 221/13/3 214/13/3 220/13/3
f 222/15/3 217/15/3 216/15/3
f 222/2/3 216/2/3 215/2/3
f 223/15/3 217/15/3 222/15/3
f 224/5/3 220/5/3 212/5/3
f 225/7/3 221/7/3 220/7/3
f 225/5/3 220/5/3 224/5/3
f 226/4/3 225/4/3 224/4/3
f 227/7/3 221/7/3 225/7/3
f 227/4/3 225/4/3 226/4/3
f 228/7/3 221/7/3 227/7/3
f 229/14/3 215/14/3 221/14/3
f 229/7/3 221/7/3 228/7/3
f 230/2/3 222/2/3 215/2/3
f 230/2/3 223/2/3 222/2/3
f 231/2/3 223/2/3 230/2/3
f 232/5/3 227/5/3 226/5/3
f 233/7/3 228/7/3 227/7/3
f 233/5/3 227/5/3 232/5/3
f 234/9/3 229/9/3 228/9/3
f 234/7/3 228/7/3 233/7/3
f 235/14/3 215/14/3 229/14/3
f 235/9/3 229/9/3 234/9/3
f 236/2/3 230/2/3 215/2/3
f 236/14/3 215/14/3 235/14/3
f 237/15/3 231/15/3 230/15/3
f 237/2/3 230/2/3 236/2/3
f 238/15/3 231/15/3 237/15/3
f 239/10/3 219/10/3 218/10/3
f 240/10/3 219/10/3 239/10/3
f 241/1/3 237/1/3 236/1/3
f 242/1/3 237/1/3 241/1/3
f 244/1/3 243/1/3 242/1/3
f 245/1/3 243/1/3 244/1/3
f 251/2/3 247/2/3 246/2/3
f 252/7/3 248/7/3 247/7/3
f 252/2/3 247/2/3 251/2/3
f 253/7/3 248/7/3 252/7/3
f 254/7/3 248/7/3 253/7/3
f 255/15/3 250/15/3 249/15/3
f 256/15/3 250/15/3 255/15/3
f 259/15/3 258/15/3 257/15/3
f 260/15/3 258/15/3 259/15/3
f 266/2/3 262/2/3 261/2/3
f 267/7/3 265/7/3 264/7/3
f 267/2/3 262/2/3 266/2/3
f 267/7/3 264/7/3 263/7/3
f 267/7/3 263/7/3 262/7/3
f 268/7/3 265/7/3 267/7/3
f 273/5/3 270/5/3 269/5/3
f 274/5/3 270/5/3 273/5/3
f 275/10/3 272/10/3 271/10/3
f 276/10/3 272/10/3 275/10/3
f 277/5/4 278/5/4 281/5/4
f 281/5/4 278/5/4 282/5/4
f 281/4/4 282/4/4 283/4/4
f 283/4/4 282/4/4 284/4/4
f 279/10/4 280/10/4 285/10/4
f 285/10/4 280/10/4 286/10/4
f 287/2/4 288/2/4 292/2/4
f 288/7/4 289/7/4 293/7/4
f 292/2/4 288/2/4 293/2/4
f 293/7/4 289/7/4 294/7/4
f 290/15/4 291/15/4 295/15/4
f 295/15/4 291/15/4 296/15/4
f 297/15/4 298/15/4 299/15/4
f 299/15/4 298/15/4 300/15/4
f 301/2/4 302/2/4 304/2/4
f 302/7/4 303/7/4 305/7/4
f 304/2/4 302/2/4 305/2/4
f 305/7/4 303/7/4 306/7/4
f 307/1/4 308/1/4 309/1/4
f 309/1/4 308/1/4 310/1/4
f 311/5/4 312/5/4 316/5/4
f 312/7/4 313/7/4 317/7/4
f 316/5/4 312/5/4 317/5/4
f 317/7/4 313/7/4 318/7/4
f 314/10/4 315/10/4 319/10/4
f 319/10/4 315/10/4 320/10/4
f 321/1/4 322/1/4 323/1/4
f 323/1/4 322/1/4 324/1/4
f 325/10/4 326/10/4 328/10/4
f 328/10/4 326/10/4 329/10/4
f 329/10/4 330/10/4 333/10/4
f 330/15/4 331/15/4 333/15/4
f 331/10/4 332/10/4 334/10/4
f 333/15/4 331/15/4 334/15/4
f 329/10/4 333/10/4 335/10/4
f 333/13/4 334/13/4 335/13/4
f 334/10/4 332/10/4 336/10/4
f 335/13/4 334/13/4 336/13/4
f 329/10/4 335/10/4 337/10/4
f 335/11/4 336/11/4 337/11/4
f 336/10/4 332/10/4 338/10/4
f 337/11/4 336/11/4 338/11/4
f 329/10/4 337/10/4 339/10/4
f 337/13/4 338/13/4 339/13/4
f 338/10/4 332/10/4 340/10/4
f 339/13/4 338/13/4 340/13/4
f 327/1/4 328/1/4 341/1/4
f 341/1/4 328/1/4 342/1/4
f 329/10/4 339/10/4 343/10/4
f 339/15/4 340/15/4 344/15/4
f 343/10/4 339/10/4 344/10/4
f 340/10/4 332/10/4 345/10/4
f 344/15/4 340/15/4 345/15/4
f 345/10/4 332/10/4 346/10/4
f 342/10/4 343/10/4 347/10/4
f 347/10/4 343/10/4 348/10/4
f 349/10/4 350/10/4 351/10/4
f 351/10/4 350/10/4 352/10/4
f 357/15/5 354/15/5 353/15/5
f 358/15/5 354/15/5 357/15/5
f 359/15/5 356/15/5 355/15/5
f 360/15/5 356/15/5 359/15/5
f 365/5/5 362/5/5 361/5/5
f 366/5/5 362/5/5 365/5/5
f 367/4/5 363/4/5 362/4/5
f 367/5/5 362/5/5 366/5/5
f 368/5/5 364/5/5 363/5/5
f 368/4/5 363/4/5 367/4/5
f 369/5/5 364/5/5 368/5/5
f 374/5/5 371/5/5 370/5/5
f 374/5/5 373/5/5 372/5/5
f 374/5/5 372/5/5 371/5/5
f 375/5/5 373/5/5 374/5/5
f 379/5/5 377/5/5 376/5/5
f 379/5/5 378/5/5 377/5/5
f 380/5/5 378/5/5 379/5/5
f 385/2/5 382/2/5 381/2/5
f 386/2/5 382/2/5 385/2/5
f 387/2/5 384/2/5 383/2/5
f 388/2/5 384/2/5 387/2/5
f 393/1/5 390/1/5 389/1/5
f 394/1/5 390/1/5 393/1/5
f 395/1/5 392/1/5 391/1/5
f 396/1/5 392/1/5 395/1/5
f 401/1/5 398/1/5 397/1/5
f 402/1/5 400/1/5 399/1/5
f 403/1/5 401/1/5 397/1/5
f 403/1/5 402/1/5 401/1/5
f 404/1/5 400/1/5 402/1/5
f 404/1/5 402/1/5 403/1/5
f 410/1/5 406/1/5 405/1/5
f 411/1/5 406/1/5 410/1/5
f 412/1/5 408/1/5 407/1/5
f 413/1/5 408/1/5 412/1/5
f 415/1/5 410/1/5 409/1/5
f 416/1/5 410/1/5 415/1/5
f 417/1/5 414/1/5 413/1/5
f 418/1/5 414/1/5 417/1/5
f 419/2/5 416/2/5 415/2/5
f 420/2/5 416/2/5 419/2/5
f 421/2/5 418/2/5 417/2/5
f 422/2/5 418/2/5 421/2/5
f 423/1/5 420/1/5 419/1/5
f 424/1/5 420/1/5 423/1/5
f 425/1/5 422/1/5 421/1/5
f 426/1/5 422/1/5 425/1/5
f 430/10/5 428/10/5 427/10/5
f 431/10/5 428/10/5 430/10/5
f 432/10/5 428/10/5 431/10/5
f 433/10/5 428/10/5 432/10/5
f 435/10/5 430/10/5 429/10/5
f 436/10/5 430/10/5 435/10/5
f 437/10/5 432/10/5 431/10/5
f 438/10/5 432/10/5 437/10/5
f 439/10/5 432/10/5 438/10/5
f 440/10/5 432/10/5 439/10/5
f 441/10/5 434/10/5 433/10/5
f 442/10/5 434/10/5 441/10/5
f 447/10/5 444/10/5 443/10/5
f 448/10/5 444/10/5 447/10/5
f 449/10/5 446/10/5 445/10/5
f 450/10/5 446/10/5 449/10/5
f 451/10/5 449/10/5 448/10/5
f 452/10/5 449/10/5 451/10/5
f 453/10/6 454/10/6 456/10/6
f 456/10/6 454/10/6 457/10/6
f 455/10/6 456/10/6 459/10/6
f 455/10/6 459/10/6 460/10/6
f 455/10/6 460/10/6 461/10/6
f 461/10/6 460/10/6 462/10/6
f 457/10/6 458/10/6 463/10/6
f 463/10/6 458/10/6 464/10/6
f 462/10/6 463/10/6 465/10/6
f 465/10/6 463/10/6 466/10/6
f 467/10/6 468/10/6 469/10/6
f 469/10/6 468/10/6 470/10/6
f 471/10/6 472/10/6 473/10/6
f 473/10/6 472/10/6 474/10/6
f 467/10/6 469/10/6 475/10/6
f 470/10/6 468/10/6 476/10/6
f 467/10/6 475/10/6 477/10/6
f 475/10/6 476/10/6 477/10/6
f 476/10/6 468/10/6 478/10/6
f 477/10/6 476/10/6 478/10/6
f 479/10/6 480/10/6 481/10/6
f 481/10/6 480/10/6 482/10/6
f 479/10/6 481/10/6 483/10/6
f 482/10/6 480/10/6 484/10/6
f 479/10/6 483/10/6 485/10/6
f 483/10/6 484/10/6 485/10/6
f 484/10/6 480/10/6 486/10/6
f 485/10/6 484/10/6 486/10/6
