# MagicaVoxel @ Ephtracy

# group
g boy1-3

# material
mtllib boy1-3.mtl
usemtl palette

# normals
vn -1 0 0
vn 1 0 0
vn 0 0 1
vn 0 0 -1
vn 0 -1 0
vn 0 1 0

# texcoords
vt 0.00195313 0.5
vt 0.0371094 0.5
vt 0.0566406 0.5
vt 0.0644531 0.5
vt 0.126953 0.5
vt 0.521484 0.5
vt 0.623047 0.5
vt 0.912109 0.5
vt 0.927734 0.5
vt 0.958984 0.5
vt 0.990234 0.5
vt 0.994141 0.5

# verts
v -4 10 1.5
v -4 10 0.5
v -4 10 -0.5
v -4 10 -1.5
v -4 11 2.5
v -4 11 1.5
v -4 11 0.5
v -4 11 -0.5
v -4 11 -1.5
v -4 11 -2.5
v -4 12 2.5
v -4 12 -2.5
v -3 5 0.5
v -3 5 -0.5
v -3 6 0.5
v -3 6 -0.5
v -3 8 0.5
v -3 8 -0.5
v -3 9 1.5
v -3 9 0.5
v -3 9 -0.5
v -3 9 -2.5
v -3 10 2.5
v -3 10 1.5
v -3 10 0.5
v -3 10 -0.5
v -3 10 -1.5
v -3 11 3.5
v -3 11 2.5
v -3 11 1.5
v -3 11 -1.5
v -3 11 -2.5
v -3 11 -3.5
v -3 12 3.5
v -3 12 2.5
v -3 12 -2.5
v -3 12 -3.5
v -3 13 2.5
v -3 13 1.5
v -3 14 2.5
v -3 14 1.5
v -3 14 -1.5
v -3 14 -2.5
v -3 15 2.5
v -3 15 1.5
v -3 15 -1.5
v -3 15 -2.5
v -2 1 1.5
v -2 1 -0.5
v -2 2 1.5
v -2 2 0.5
v -2 2 -0.5
v -2 3 1.5
v -2 3 0.5
v -2 3 -0.5
v -2 3 -1.5
v -2 5 0.5
v -2 5 -0.5
v -2 6 1.5
v -2 6 0.5
v -2 6 -0.5
v -2 6 -1.5
v -2 7 1.5
v -2 7 0.5
v -2 7 -0.5
v -2 7 -1.5
v -2 8 0.5
v -2 8 -0.5
v -2 9 1.5
v -2 9 0.5
v -2 9 -0.5
v -2 9 -1.5
v -2 15 1.5
v -2 15 -1.5
v -2 16 1.5
v -2 16 -1.5
v 1 1 1.5
v 1 1 -0.5
v 1 2 1.5
v 1 2 0.5
v 1 2 -0.5
v 1 3 1.5
v 1 3 0.5
v 1 3 -0.5
v 1 3 -1.5
v 1 4 1.5
v 1 4 0.5
v 1 4 -0.5
v 1 4 -1.5
v 1 15 0.5
v 1 15 -0.5
v 1 16 0.5
v 1 16 -0.5
v 2 10 2.5
v 2 10 1.5
v 2 11 2.5
v 2 11 1.5
v -2 10 2.5
v -2 10 1.5
v -2 11 2.5
v -2 11 1.5
v -1 1 1.5
v -1 1 -0.5
v -1 2 1.5
v -1 2 0.5
v -1 2 -0.5
v -1 3 1.5
v -1 3 0.5
v -1 3 -0.5
v -1 3 -1.5
v -1 4 1.5
v -1 4 0.5
v -1 4 -0.5
v -1 4 -1.5
v -1 15 0.5
v -1 15 -0.5
v -1 16 0.5
v -1 16 -0.5
v 2 1 1.5
v 2 1 -0.5
v 2 2 1.5
v 2 2 0.5
v 2 2 -0.5
v 2 3 1.5
v 2 3 0.5
v 2 3 -0.5
v 2 3 -1.5
v 2 5 0.5
v 2 5 -0.5
v 2 6 1.5
v 2 6 0.5
v 2 6 -0.5
v 2 6 -1.5
v 2 7 1.5
v 2 7 0.5
v 2 7 -0.5
v 2 7 -1.5
v 2 8 0.5
v 2 8 -0.5
v 2 9 1.5
v 2 9 0.5
v 2 9 -0.5
v 2 9 -1.5
v 2 15 1.5
v 2 15 -1.5
v 2 16 1.5
v 2 16 -1.5
v 3 5 0.5
v 3 5 -0.5
v 3 6 0.5
v 3 6 -0.5
v 3 8 0.5
v 3 8 -0.5
v 3 9 1.5
v 3 9 0.5
v 3 9 -0.5
v 3 9 -2.5
v 3 10 2.5
v 3 10 1.5
v 3 10 0.5
v 3 10 -0.5
v 3 10 -1.5
v 3 11 3.5
v 3 11 2.5
v 3 11 1.5
v 3 11 -1.5
v 3 11 -2.5
v 3 11 -3.5
v 3 12 3.5
v 3 12 2.5
v 3 12 -2.5
v 3 12 -3.5
v 3 13 2.5
v 3 13 1.5
v 3 14 2.5
v 3 14 1.5
v 3 14 -1.5
v 3 14 -2.5
v 3 15 2.5
v 3 15 1.5
v 3 15 -1.5
v 3 15 -2.5
v 4 10 1.5
v 4 10 0.5
v 4 10 -0.5
v 4 10 -1.5
v 4 11 2.5
v 4 11 1.5
v 4 11 0.5
v 4 11 -0.5
v 4 11 -1.5
v 4 11 -2.5
v 4 12 2.5
v 4 12 -2.5
v -3 11 3.5
v -3 12 3.5
v 3 11 3.5
v 3 12 3.5
v -4 11 2.5
v -4 12 2.5
v -3 10 2.5
v -3 11 2.5
v -3 12 2.5
v -3 13 2.5
v -3 14 2.5
v -3 15 2.5
v -2 10 2.5
v -2 11 2.5
v -2 13 2.5
v -2 14 2.5
v -2 15 2.5
v -1 12 2.5
v -1 14 2.5
v 1 12 2.5
v 1 14 2.5
v 2 10 2.5
v 2 11 2.5
v 2 13 2.5
v 2 14 2.5
v 2 15 2.5
v 3 10 2.5
v 3 11 2.5
v 3 12 2.5
v 3 13 2.5
v 3 14 2.5
v 3 15 2.5
v 4 11 2.5
v 4 12 2.5
v -4 10 1.5
v -4 11 1.5
v -3 9 1.5
v -3 10 1.5
v -3 11 1.5
v -2 1 1.5
v -2 2 1.5
v -2 3 1.5
v -2 6 1.5
v -2 7 1.5
v -2 9 1.5
v -2 10 1.5
v -2 11 1.5
v -2 15 1.5
v -2 16 1.5
v -1 1 1.5
v -1 2 1.5
v -1 3 1.5
v -1 4 1.5
v -1 10 1.5
v -1 11 1.5
v 1 1 1.5
v 1 2 1.5
v 1 3 1.5
v 1 4 1.5
v 1 10 1.5
v 1 11 1.5
v 2 1 1.5
v 2 2 1.5
v 2 3 1.5
v 2 6 1.5
v 2 7 1.5
v 2 9 1.5
v 2 10 1.5
v 2 11 1.5
v 2 15 1.5
v 2 16 1.5
v 3 9 1.5
v 3 10 1.5
v 3 11 1.5
v 4 10 1.5
v 4 11 1.5
v -3 5 0.5
v -3 6 0.5
v -3 8 0.5
v -3 9 0.5
v -2 2 0.5
v -2 3 0.5
v -2 5 0.5
v -2 6 0.5
v -2 7 0.5
v -2 8 0.5
v -2 9 0.5
v -1 2 0.5
v -1 3 0.5
v 1 2 0.5
v 1 3 0.5
v 2 2 0.5
v 2 3 0.5
v 2 5 0.5
v 2 6 0.5
v 2 7 0.5
v 2 8 0.5
v 2 9 0.5
v 3 5 0.5
v 3 6 0.5
v 3 8 0.5
v 3 9 0.5
v -1 15 -0.5
v -1 16 -0.5
v 1 15 -0.5
v 1 16 -0.5
v -1 15 0.5
v -1 16 0.5
v 1 15 0.5
v 1 16 0.5
v -3 5 -0.5
v -3 6 -0.5
v -3 8 -0.5
v -3 9 -0.5
v -2 1 -0.5
v -2 2 -0.5
v -2 3 -0.5
v -2 5 -0.5
v -2 6 -0.5
v -2 7 -0.5
v -2 8 -0.5
v -2 9 -0.5
v -1 1 -0.5
v -1 2 -0.5
v -1 3 -0.5
v 1 1 -0.5
v 1 2 -0.5
v 1 3 -0.5
v 2 1 -0.5
v 2 2 -0.5
v 2 3 -0.5
v 2 5 -0.5
v 2 6 -0.5
v 2 7 -0.5
v 2 8 -0.5
v 2 9 -0.5
v 3 5 -0.5
v 3 6 -0.5
v 3 8 -0.5
v 3 9 -0.5
v -4 10 -1.5
v -4 11 -1.5
v -3 10 -1.5
v -3 11 -1.5
v -2 3 -1.5
v -2 6 -1.5
v -2 7 -1.5
v -2 9 -1.5
v -2 15 -1.5
v -2 16 -1.5
v -1 3 -1.5
v -1 4 -1.5
v 1 3 -1.5
v 1 4 -1.5
v 2 3 -1.5
v 2 6 -1.5
v 2 7 -1.5
v 2 9 -1.5
v 2 15 -1.5
v 2 16 -1.5
v 3 10 -1.5
v 3 11 -1.5
v 4 10 -1.5
v 4 11 -1.5
v -4 11 -2.5
v -4 12 -2.5
v -3 9 -2.5
v -3 11 -2.5
v -3 12 -2.5
v -3 14 -2.5
v -3 15 -2.5
v -2 14 -2.5
v -2 15 -2.5
v -1 12 -2.5
v -1 14 -2.5
v 1 12 -2.5
v 1 14 -2.5
v 2 14 -2.5
v 2 15 -2.5
v 3 9 -2.5
v 3 11 -2.5
v 3 12 -2.5
v 3 14 -2.5
v 3 15 -2.5
v 4 11 -2.5
v 4 12 -2.5
v -3 11 -3.5
v -3 12 -3.5
v 3 11 -3.5
v 3 12 -3.5
v -2 1 1.5
v -1 1 1.5
v 1 1 1.5
v 2 1 1.5
v -2 1 -0.5
v -1 1 -0.5
v 1 1 -0.5
v 2 1 -0.5
v -2 3 1.5
v -1 3 1.5
v 1 3 1.5
v 2 3 1.5
v -2 3 0.5
v -1 3 0.5
v 1 3 0.5
v 2 3 0.5
v -2 3 -0.5
v -1 3 -0.5
v 1 3 -0.5
v 2 3 -0.5
v -2 3 -1.5
v -1 3 -1.5
v 1 3 -1.5
v 2 3 -1.5
v -1 4 1.5
v 1 4 1.5
v -1 4 0.5
v 1 4 0.5
v -1 4 -0.5
v 1 4 -0.5
v -1 4 -1.5
v 1 4 -1.5
v -3 5 0.5
v -2 5 0.5
v 2 5 0.5
v 3 5 0.5
v -3 5 -0.5
v -2 5 -0.5
v 2 5 -0.5
v 3 5 -0.5
v -3 9 1.5
v -2 9 1.5
v 2 9 1.5
v 3 9 1.5
v -3 9 0.5
v -2 9 0.5
v 2 9 0.5
v 3 9 0.5
v -3 9 -0.5
v -2 9 -0.5
v 2 9 -0.5
v 3 9 -0.5
v -2 9 -1.5
v 2 9 -1.5
v -3 9 -2.5
v 3 9 -2.5
v -3 10 2.5
v -2 10 2.5
v 2 10 2.5
v 3 10 2.5
v -4 10 1.5
v -3 10 1.5
v -2 10 1.5
v 2 10 1.5
v 3 10 1.5
v 4 10 1.5
v -4 10 0.5
v -3 10 0.5
v 3 10 0.5
v 4 10 0.5
v -4 10 -0.5
v -3 10 -0.5
v 3 10 -0.5
v 4 10 -0.5
v -4 10 -1.5
v -3 10 -1.5
v 3 10 -1.5
v 4 10 -1.5
v -3 11 3.5
v 3 11 3.5
v -4 11 2.5
v -3 11 2.5
v -2 11 2.5
v 2 11 2.5
v 3 11 2.5
v 4 11 2.5
v -4 11 1.5
v -3 11 1.5
v -2 11 1.5
v -1 11 1.5
v 1 11 1.5
v 2 11 1.5
v 3 11 1.5
v 4 11 1.5
v -4 11 -1.5
v -3 11 -1.5
v 3 11 -1.5
v 4 11 -1.5
v -4 11 -2.5
v -3 11 -2.5
v 3 11 -2.5
v 4 11 -2.5
v -3 11 -3.5
v 3 11 -3.5
v -2 2 1.5
v -1 2 1.5
v 1 2 1.5
v 2 2 1.5
v -2 2 0.5
v -1 2 0.5
v 1 2 0.5
v 2 2 0.5
v -3 12 3.5
v 3 12 3.5
v -4 12 2.5
v -3 12 2.5
v -1 12 2.5
v 1 12 2.5
v 3 12 2.5
v 4 12 2.5
v -4 12 -2.5
v -3 12 -2.5
v -1 12 -2.5
v 1 12 -2.5
v 3 12 -2.5
v 4 12 -2.5
v -3 12 -3.5
v 3 12 -3.5
v -3 15 2.5
v -2 15 2.5
v 2 15 2.5
v 3 15 2.5
v -3 15 1.5
v -2 15 1.5
v 2 15 1.5
v 3 15 1.5
v -1 15 0.5
v 1 15 0.5
v -1 15 -0.5
v 1 15 -0.5
v -3 15 -1.5
v -2 15 -1.5
v 2 15 -1.5
v 3 15 -1.5
v -3 15 -2.5
v -2 15 -2.5
v 2 15 -2.5
v 3 15 -2.5
v -2 16 1.5
v 2 16 1.5
v -1 16 0.5
v 1 16 0.5
v -1 16 -0.5
v 1 16 -0.5
v -2 16 -1.5
v 2 16 -1.5

# faces
f 6/7/1 2/7/1 1/7/1
f 7/5/1 3/5/1 2/5/1
f 7/7/1 2/7/1 6/7/1
f 8/7/1 4/7/1 3/7/1
f 8/5/1 3/5/1 7/5/1
f 9/7/1 4/7/1 8/7/1
f 11/1/1 7/1/1 6/1/1
f 11/1/1 10/1/1 9/1/1
f 11/1/1 9/1/1 8/1/1
f 11/1/1 8/1/1 7/1/1
f 11/1/1 6/1/1 5/1/1
f 12/1/1 10/1/1 11/1/1
f 15/12/1 14/12/1 13/12/1
f 16/12/1 14/12/1 15/12/1
f 17/5/1 16/5/1 15/5/1
f 18/5/1 16/5/1 17/5/1
f 20/10/1 18/10/1 17/10/1
f 21/10/1 18/10/1 20/10/1
f 24/10/1 20/10/1 19/10/1
f 25/7/1 21/7/1 20/7/1
f 25/7/1 22/7/1 21/7/1
f 25/10/1 20/10/1 24/10/1
f 26/7/1 22/7/1 25/7/1
f 27/7/1 22/7/1 26/7/1
f 29/7/1 24/7/1 23/7/1
f 30/7/1 24/7/1 29/7/1
f 31/7/1 22/7/1 27/7/1
f 32/7/1 22/7/1 31/7/1
f 34/1/1 29/1/1 28/1/1
f 35/1/1 29/1/1 34/1/1
f 36/1/1 33/1/1 32/1/1
f 37/1/1 33/1/1 36/1/1
f 38/1/1 36/1/1 35/1/1
f 39/1/1 36/1/1 38/1/1
f 40/5/1 39/5/1 38/5/1
f 41/1/1 36/1/1 39/1/1
f 41/5/1 39/5/1 40/5/1
f 42/1/1 36/1/1 41/1/1
f 43/1/1 36/1/1 42/1/1
f 44/10/1 41/10/1 40/10/1
f 45/1/1 42/1/1 41/1/1
f 45/10/1 41/10/1 44/10/1
f 46/11/1 43/11/1 42/11/1
f 46/1/1 42/1/1 45/1/1
f 47/11/1 43/11/1 46/11/1
f 50/11/1 49/11/1 48/11/1
f 51/11/1 49/11/1 50/11/1
f 52/11/1 49/11/1 51/11/1
f 54/5/1 52/5/1 51/5/1
f 55/5/1 52/5/1 54/5/1
f 57/1/1 55/1/1 54/1/1
f 57/8/1 54/8/1 53/8/1
f 58/8/1 56/8/1 55/8/1
f 58/1/1 55/1/1 57/1/1
f 59/8/1 57/8/1 53/8/1
f 60/8/1 57/8/1 59/8/1
f 61/8/1 56/8/1 58/8/1
f 62/8/1 56/8/1 61/8/1
f 63/5/1 60/5/1 59/5/1
f 64/5/1 60/5/1 63/5/1
f 65/5/1 62/5/1 61/5/1
f 66/5/1 62/5/1 65/5/1
f 67/10/1 64/10/1 63/10/1
f 68/10/1 66/10/1 65/10/1
f 69/10/1 67/10/1 63/10/1
f 70/10/1 67/10/1 69/10/1
f 71/10/1 66/10/1 68/10/1
f 72/10/1 66/10/1 71/10/1
f 75/1/1 74/1/1 73/1/1
f 76/1/1 74/1/1 75/1/1
f 79/11/1 78/11/1 77/11/1
f 80/11/1 78/11/1 79/11/1
f 81/11/1 78/11/1 80/11/1
f 83/5/1 81/5/1 80/5/1
f 84/5/1 81/5/1 83/5/1
f 86/8/1 83/8/1 82/8/1
f 87/1/1 84/1/1 83/1/1
f 87/8/1 83/8/1 86/8/1
f 88/8/1 85/8/1 84/8/1
f 88/1/1 84/1/1 87/1/1
f 89/8/1 85/8/1 88/8/1
f 92/1/1 91/1/1 90/1/1
f 93/1/1 91/1/1 92/1/1
f 96/7/1 95/7/1 94/7/1
f 97/7/1 95/7/1 96/7/1
f 98/7/2 99/7/2 100/7/2
f 100/7/2 99/7/2 101/7/2
f 102/11/2 103/11/2 104/11/2
f 104/11/2 103/11/2 105/11/2
f 105/11/2 103/11/2 106/11/2
f 105/5/2 106/5/2 108/5/2
f 108/5/2 106/5/2 109/5/2
f 107/8/2 108/8/2 111/8/2
f 108/1/2 109/1/2 112/1/2
f 111/8/2 108/8/2 112/8/2
f 109/8/2 110/8/2 113/8/2
f 112/1/2 109/1/2 113/1/2
f 113/8/2 110/8/2 114/8/2
f 115/1/2 116/1/2 117/1/2
f 117/1/2 116/1/2 118/1/2
f 119/11/2 120/11/2 121/11/2
f 121/11/2 120/11/2 122/11/2
f 122/11/2 120/11/2 123/11/2
f 122/5/2 123/5/2 125/5/2
f 125/5/2 123/5/2 126/5/2
f 125/1/2 126/1/2 128/1/2
f 124/8/2 125/8/2 128/8/2
f 126/8/2 127/8/2 129/8/2
f 128/1/2 126/1/2 129/1/2
f 124/8/2 128/8/2 130/8/2
f 130/8/2 128/8/2 131/8/2
f 129/8/2 127/8/2 132/8/2
f 132/8/2 127/8/2 133/8/2
f 130/5/2 131/5/2 134/5/2
f 134/5/2 131/5/2 135/5/2
f 132/5/2 133/5/2 136/5/2
f 136/5/2 133/5/2 137/5/2
f 134/10/2 135/10/2 138/10/2
f 136/10/2 137/10/2 139/10/2
f 134/10/2 138/10/2 140/10/2
f 140/10/2 138/10/2 141/10/2
f 139/10/2 137/10/2 142/10/2
f 142/10/2 137/10/2 143/10/2
f 144/1/2 145/1/2 146/1/2
f 146/1/2 145/1/2 147/1/2
f 148/12/2 149/12/2 150/12/2
f 150/12/2 149/12/2 151/12/2
f 150/5/2 151/5/2 152/5/2
f 152/5/2 151/5/2 153/5/2
f 152/10/2 153/10/2 155/10/2
f 155/10/2 153/10/2 156/10/2
f 155/10/2 156/10/2 159/10/2
f 154/10/2 155/10/2 159/10/2
f 159/10/2 156/10/2 160/10/2
f 156/7/2 157/7/2 161/7/2
f 160/10/2 156/10/2 161/10/2
f 161/7/2 157/7/2 162/7/2
f 158/7/2 159/7/2 164/7/2
f 164/7/2 159/7/2 165/7/2
f 162/7/2 157/7/2 166/7/2
f 166/7/2 157/7/2 167/7/2
f 163/1/2 164/1/2 169/1/2
f 169/1/2 164/1/2 170/1/2
f 167/1/2 168/1/2 171/1/2
f 171/1/2 168/1/2 172/1/2
f 170/1/2 171/1/2 173/1/2
f 173/1/2 171/1/2 174/1/2
f 173/5/2 174/5/2 175/5/2
f 174/1/2 171/1/2 176/1/2
f 175/5/2 174/5/2 176/5/2
f 176/1/2 171/1/2 177/1/2
f 177/1/2 171/1/2 178/1/2
f 175/10/2 176/10/2 179/10/2
f 176/1/2 177/1/2 180/1/2
f 179/10/2 176/10/2 180/10/2
f 177/11/2 178/11/2 181/11/2
f 180/1/2 177/1/2 181/1/2
f 181/11/2 178/11/2 182/11/2
f 183/7/2 184/7/2 188/7/2
f 184/5/2 185/5/2 189/5/2
f 188/7/2 184/7/2 189/7/2
f 185/7/2 186/7/2 190/7/2
f 189/5/2 185/5/2 190/5/2
f 190/7/2 186/7/2 191/7/2
f 188/1/2 189/1/2 193/1/2
f 191/1/2 192/1/2 193/1/2
f 190/1/2 191/1/2 193/1/2
f 189/1/2 190/1/2 193/1/2
f 187/1/2 188/1/2 193/1/2
f 193/1/2 192/1/2 194/1/2
f 197/1/3 196/1/3 195/1/3
f 198/1/3 196/1/3 197/1/3
f 202/1/3 200/1/3 199/1/3
f 203/1/3 200/1/3 202/1/3
f 207/7/3 202/7/3 201/7/3
f 208/7/3 202/7/3 207/7/3
f 209/5/3 205/5/3 204/5/3
f 209/1/3 204/1/3 203/1/3
f 210/10/3 206/10/3 205/10/3
f 210/5/3 205/5/3 209/5/3
f 211/10/3 206/10/3 210/10/3
f 212/1/3 209/1/3 203/1/3
f 212/1/3 211/1/3 210/1/3
f 212/1/3 210/1/3 209/1/3
f 213/1/3 211/1/3 212/1/3
f 214/3/3 213/3/3 212/3/3
f 215/1/3 211/1/3 213/1/3
f 215/3/3 213/3/3 214/3/3
f 218/1/3 215/1/3 214/1/3
f 219/1/3 211/1/3 215/1/3
f 219/1/3 215/1/3 218/1/3
f 220/1/3 211/1/3 219/1/3
f 221/7/3 217/7/3 216/7/3
f 222/7/3 217/7/3 221/7/3
f 223/1/3 218/1/3 214/1/3
f 224/5/3 219/5/3 218/5/3
f 224/1/3 218/1/3 223/1/3
f 225/10/3 220/10/3 219/10/3
f 225/5/3 219/5/3 224/5/3
f 226/10/3 220/10/3 225/10/3
f 227/1/3 223/1/3 222/1/3
f 228/1/3 223/1/3 227/1/3
f 232/7/3 230/7/3 229/7/3
f 233/7/3 230/7/3 232/7/3
f 239/10/3 232/10/3 231/10/3
f 240/10/3 232/10/3 239/10/3
f 244/11/3 235/11/3 234/11/3
f 245/11/3 235/11/3 244/11/3
f 246/8/3 237/8/3 236/8/3
f 247/8/3 237/8/3 246/8/3
f 248/12/3 241/12/3 240/12/3
f 248/10/3 239/10/3 238/10/3
f 248/10/3 240/10/3 239/10/3
f 249/12/3 241/12/3 248/12/3
f 253/8/3 237/8/3 247/8/3
f 254/5/3 249/5/3 248/5/3
f 254/10/3 248/10/3 238/10/3
f 255/5/3 249/5/3 254/5/3
f 256/11/3 251/11/3 250/11/3
f 257/11/3 251/11/3 256/11/3
f 258/8/3 253/8/3 252/8/3
f 259/5/3 238/5/3 237/5/3
f 259/8/3 253/8/3 258/8/3
f 259/8/3 237/8/3 253/8/3
f 260/10/3 254/10/3 238/10/3
f 260/5/3 238/5/3 259/5/3
f 261/10/3 254/10/3 260/10/3
f 262/12/3 255/12/3 254/12/3
f 262/10/3 254/10/3 261/10/3
f 263/12/3 255/12/3 262/12/3
f 264/1/3 243/1/3 242/1/3
f 265/1/3 243/1/3 264/1/3
f 266/10/3 262/10/3 261/10/3
f 267/10/3 262/10/3 266/10/3
f 269/7/3 268/7/3 267/7/3
f 270/7/3 268/7/3 269/7/3
f 277/12/3 272/12/3 271/12/3
f 278/5/3 273/5/3 272/5/3
f 278/12/3 272/12/3 277/12/3
f 279/5/3 273/5/3 278/5/3
f 280/10/3 274/10/3 273/10/3
f 280/5/3 273/5/3 279/5/3
f 281/10/3 274/10/3 280/10/3
f 282/5/3 276/5/3 275/5/3
f 283/5/3 276/5/3 282/5/3
f 286/5/3 285/5/3 284/5/3
f 287/5/3 285/5/3 286/5/3
f 293/12/3 289/12/3 288/12/3
f 294/5/3 291/5/3 290/5/3
f 294/12/3 289/12/3 293/12/3
f 294/5/3 290/5/3 289/5/3
f 295/10/3 292/10/3 291/10/3
f 295/5/3 291/5/3 294/5/3
f 296/10/3 292/10/3 295/10/3
f 299/1/3 298/1/3 297/1/3
f 300/1/3 298/1/3 299/1/3
f 301/1/4 302/1/4 303/1/4
f 303/1/4 302/1/4 304/1/4
f 305/12/4 306/12/4 312/12/4
f 306/5/4 307/5/4 313/5/4
f 312/12/4 306/12/4 313/12/4
f 313/5/4 307/5/4 314/5/4
f 307/10/4 308/10/4 315/10/4
f 314/5/4 307/5/4 315/5/4
f 315/10/4 308/10/4 316/10/4
f 309/11/4 310/11/4 317/11/4
f 310/5/4 311/5/4 318/5/4
f 317/11/4 310/11/4 318/11/4
f 318/5/4 311/5/4 319/5/4
f 320/11/4 321/11/4 323/11/4
f 321/5/4 322/5/4 324/5/4
f 323/11/4 321/11/4 324/11/4
f 324/5/4 322/5/4 325/5/4
f 326/12/4 327/12/4 331/12/4
f 328/5/4 329/5/4 332/5/4
f 331/12/4 327/12/4 332/12/4
f 327/5/4 328/5/4 332/5/4
f 329/10/4 330/10/4 333/10/4
f 332/5/4 329/5/4 333/5/4
f 333/10/4 330/10/4 334/10/4
f 335/7/4 336/7/4 337/7/4
f 337/7/4 336/7/4 338/7/4
f 339/8/4 340/8/4 345/8/4
f 345/8/4 340/8/4 346/8/4
f 346/8/4 340/8/4 348/8/4
f 347/8/4 348/8/4 349/8/4
f 340/5/4 341/5/4 350/5/4
f 349/8/4 348/8/4 350/8/4
f 348/8/4 340/8/4 350/8/4
f 341/10/4 342/10/4 351/10/4
f 350/5/4 341/5/4 351/5/4
f 351/10/4 342/10/4 352/10/4
f 343/1/4 344/1/4 353/1/4
f 353/1/4 344/1/4 354/1/4
f 355/7/4 356/7/4 357/7/4
f 357/7/4 356/7/4 358/7/4
f 359/1/4 360/1/4 362/1/4
f 362/1/4 360/1/4 363/1/4
f 364/11/4 365/11/4 366/11/4
f 363/1/4 364/1/4 366/1/4
f 366/11/4 365/11/4 367/11/4
f 363/1/4 366/1/4 368/1/4
f 366/1/4 367/1/4 368/1/4
f 368/1/4 367/1/4 369/1/4
f 368/3/4 369/3/4 370/3/4
f 369/1/4 367/1/4 371/1/4
f 370/3/4 369/3/4 371/3/4
f 370/1/4 371/1/4 372/1/4
f 371/1/4 367/1/4 372/1/4
f 372/1/4 367/1/4 373/1/4
f 361/7/4 362/7/4 374/7/4
f 374/7/4 362/7/4 375/7/4
f 370/1/4 372/1/4 376/1/4
f 372/11/4 373/11/4 377/11/4
f 376/1/4 372/1/4 377/1/4
f 377/11/4 373/11/4 378/11/4
f 375/1/4 376/1/4 379/1/4
f 379/1/4 376/1/4 380/1/4
f 381/1/4 382/1/4 383/1/4
f 383/1/4 382/1/4 384/1/4
f 389/11/5 386/11/5 385/11/5
f 390/11/5 386/11/5 389/11/5
f 391/11/5 388/11/5 387/11/5
f 392/11/5 388/11/5 391/11/5
f 397/8/5 394/8/5 393/8/5
f 398/8/5 394/8/5 397/8/5
f 399/8/5 396/8/5 395/8/5
f 400/8/5 396/8/5 399/8/5
f 405/8/5 402/8/5 401/8/5
f 406/8/5 402/8/5 405/8/5
f 407/8/5 404/8/5 403/8/5
f 408/8/5 404/8/5 407/8/5
f 411/8/5 410/8/5 409/8/5
f 412/8/5 410/8/5 411/8/5
f 413/9/5 412/9/5 411/9/5
f 414/9/5 412/9/5 413/9/5
f 415/8/5 414/8/5 413/8/5
f 416/8/5 414/8/5 415/8/5
f 421/12/5 418/12/5 417/12/5
f 422/12/5 418/12/5 421/12/5
f 423/12/5 420/12/5 419/12/5
f 424/12/5 420/12/5 423/12/5
f 429/10/5 426/10/5 425/10/5
f 430/10/5 426/10/5 429/10/5
f 431/10/5 428/10/5 427/10/5
f 432/10/5 428/10/5 431/10/5
f 437/7/5 434/7/5 433/7/5
f 438/7/5 436/7/5 435/7/5
f 439/7/5 437/7/5 433/7/5
f 439/7/5 438/7/5 437/7/5
f 440/7/5 436/7/5 438/7/5
f 440/7/5 438/7/5 439/7/5
f 446/7/5 442/7/5 441/7/5
f 447/7/5 442/7/5 446/7/5
f 448/7/5 444/7/5 443/7/5
f 449/7/5 444/7/5 448/7/5
f 451/7/5 446/7/5 445/7/5
f 452/7/5 446/7/5 451/7/5
f 453/7/5 450/7/5 449/7/5
f 454/7/5 450/7/5 453/7/5
f 455/5/5 452/5/5 451/5/5
f 456/5/5 452/5/5 455/5/5
f 457/5/5 454/5/5 453/5/5
f 458/5/5 454/5/5 457/5/5
f 459/7/5 456/7/5 455/7/5
f 460/7/5 456/7/5 459/7/5
f 461/7/5 458/7/5 457/7/5
f 462/7/5 458/7/5 461/7/5
f 466/1/5 464/1/5 463/1/5
f 467/1/5 464/1/5 466/1/5
f 468/1/5 464/1/5 467/1/5
f 469/1/5 464/1/5 468/1/5
f 471/1/5 466/1/5 465/1/5
f 472/1/5 466/1/5 471/1/5
f 473/1/5 468/1/5 467/1/5
f 474/1/5 468/1/5 473/1/5
f 475/1/5 468/1/5 474/1/5
f 476/1/5 468/1/5 475/1/5
f 477/1/5 470/1/5 469/1/5
f 478/1/5 470/1/5 477/1/5
f 483/1/5 480/1/5 479/1/5
f 484/1/5 480/1/5 483/1/5
f 485/1/5 482/1/5 481/1/5
f 486/1/5 482/1/5 485/1/5
f 487/1/5 485/1/5 484/1/5
f 488/1/5 485/1/5 487/1/5
f 489/11/6 490/11/6 493/11/6
f 493/11/6 490/11/6 494/11/6
f 491/11/6 492/11/6 495/11/6
f 495/11/6 492/11/6 496/11/6
f 497/1/6 498/1/6 500/1/6
f 500/1/6 498/1/6 501/1/6
f 501/1/6 498/1/6 502/1/6
f 502/1/6 498/1/6 503/1/6
f 499/1/6 500/1/6 505/1/6
f 505/1/6 500/1/6 506/1/6
f 503/1/6 504/1/6 509/1/6
f 509/1/6 504/1/6 510/1/6
f 507/1/6 508/1/6 511/1/6
f 508/1/6 509/1/6 511/1/6
f 506/1/6 507/1/6 511/1/6
f 511/1/6 509/1/6 512/1/6
f 513/10/6 514/10/6 517/10/6
f 514/1/6 515/1/6 518/1/6
f 517/10/6 514/10/6 518/10/6
f 515/10/6 516/10/6 519/10/6
f 518/1/6 515/1/6 519/1/6
f 519/10/6 516/10/6 520/10/6
f 521/1/6 522/1/6 523/1/6
f 523/1/6 522/1/6 524/1/6
f 517/1/6 518/1/6 525/1/6
f 525/1/6 518/1/6 526/1/6
f 519/1/6 520/1/6 527/1/6
f 527/1/6 520/1/6 528/1/6
f 525/11/6 526/11/6 529/11/6
f 526/1/6 527/1/6 530/1/6
f 529/11/6 526/11/6 530/11/6
f 527/11/6 528/11/6 531/11/6
f 530/1/6 527/1/6 531/1/6
f 531/11/6 528/11/6 532/11/6
f 533/1/6 534/1/6 535/1/6
f 535/1/6 534/1/6 536/1/6
f 533/1/6 535/1/6 537/1/6
f 536/1/6 534/1/6 538/1/6
f 533/1/6 537/1/6 539/1/6
f 537/1/6 538/1/6 539/1/6
f 538/1/6 534/1/6 540/1/6
f 539/1/6 538/1/6 540/1/6
