# MagicaVoxel @ Ephtracy

# group
g hen

# material
mtllib hen.mtl
usemtl palette

# normals
vn -1 0 0
vn 1 0 0
vn 0 0 1
vn 0 0 -1
vn 0 -1 0
vn 0 1 0

# texcoords
vt 0.00195313 0.5
vt 0.0644531 0.5
vt 0.232422 0.5
vt 0.251953 0.5
vt 0.958984 0.5
vt 0.994141 0.5

# verts
v -10 16 -2
v -10 16 -5
v -10 18 -2
v -10 18 -5
v -9 14 -2
v -9 14 -5
v -9 16 -2
v -9 16 -5
v -8 6 1
v -8 6 -8
v -8 14 -2
v -8 14 -5
v -8 18 -2
v -8 18 -5
v -8 23 1
v -8 23 -8
v -5 0 -1
v -5 0 -2
v -5 0 -5
v -5 0 -6
v -5 1 -1
v -5 1 -2
v -5 1 -5
v -5 1 -6
v -5 7 3
v -5 7 1
v -5 7 -8
v -5 7 -10
v -5 13 3
v -5 13 1
v -5 13 -8
v -5 13 -10
v -4 0 -0
v -4 0 -1
v -4 0 -2
v -4 0 -3
v -4 0 -4
v -4 0 -5
v -4 0 -6
v -4 0 -7
v -4 1 -0
v -4 1 -1
v -4 1 -2
v -4 1 -3
v -4 1 -4
v -4 1 -5
v -4 1 -6
v -4 1 -7
v -2 1 -1
v -2 1 -2
v -2 1 -5
v -2 1 -6
v -2 6 -1
v -2 6 -2
v -2 6 -5
v -2 6 -6
v -1 0 -0
v -1 0 -3
v -1 0 -4
v -1 0 -7
v -1 1 -0
v -1 1 -1
v -1 1 -2
v -1 1 -3
v -1 1 -4
v -1 1 -5
v -1 1 -6
v -1 1 -7
v -1 6 -1
v -1 6 -2
v -1 6 -5
v -1 6 -6
v 1 14 1
v 1 14 -8
v 1 23 1
v 1 23 -8
v 6 7 3
v 6 7 1
v 6 7 -8
v 6 7 -10
v 6 13 3
v 6 13 1
v 6 13 -8
v 6 13 -10
v 9 6 1
v 9 6 -8
v 9 14 1
v 9 14 -8
v -5 7 3
v -5 13 3
v 6 7 3
v 6 13 3
v -8 6 1
v -8 23 1
v -5 7 1
v -5 13 1
v -4 18 1
v -4 19 1
v -3 18 1
v -3 19 1
v 1 14 1
v 1 23 1
v 6 7 1
v 6 13 1
v 9 6 1
v 9 14 1
v -4 0 -0
v -4 1 -0
v -1 0 -0
v -1 1 -0
v -5 0 -1
v -5 1 -1
v -4 0 -1
v -4 1 -1
v -2 1 -1
v -2 6 -1
v -1 1 -1
v -1 6 -1
v -10 16 -2
v -10 18 -2
v -9 14 -2
v -9 16 -2
v -8 14 -2
v -8 18 -2
v -4 0 -4
v -4 1 -4
v -1 0 -4
v -1 1 -4
v -5 0 -5
v -5 1 -5
v -4 0 -5
v -4 1 -5
v -2 1 -5
v -2 6 -5
v -1 1 -5
v -1 6 -5
v -5 0 -2
v -5 1 -2
v -4 0 -2
v -4 1 -2
v -2 1 -2
v -2 6 -2
v -1 1 -2
v -1 6 -2
v -4 0 -3
v -4 1 -3
v -1 0 -3
v -1 1 -3
v -10 16 -5
v -10 18 -5
v -9 14 -5
v -9 16 -5
v -8 14 -5
v -8 18 -5
v -5 0 -6
v -5 1 -6
v -4 0 -6
v -4 1 -6
v -2 1 -6
v -2 6 -6
v -1 1 -6
v -1 6 -6
v -4 0 -7
v -4 1 -7
v -1 0 -7
v -1 1 -7
v -8 6 -8
v -8 23 -8
v -5 7 -8
v -5 13 -8
v -4 18 -8
v -4 19 -8
v -3 18 -8
v -3 19 -8
v 1 14 -8
v 1 23 -8
v 6 7 -8
v 6 13 -8
v 9 6 -8
v 9 14 -8
v -5 7 -10
v -5 13 -10
v 6 7 -10
v 6 13 -10
v -4 0 -0
v -1 0 -0
v -5 0 -1
v -4 0 -1
v -2 0 -1
v -5 0 -2
v -4 0 -2
v -2 0 -2
v -4 0 -3
v -1 0 -3
v -4 0 -4
v -1 0 -4
v -5 0 -5
v -4 0 -5
v -2 0 -5
v -5 0 -6
v -4 0 -6
v -2 0 -6
v -4 0 -7
v -1 0 -7
v -8 6 1
v 9 6 1
v -2 6 -1
v -1 6 -1
v -2 6 -2
v -1 6 -2
v -2 6 -5
v -1 6 -5
v -2 6 -6
v -1 6 -6
v -8 6 -8
v 9 6 -8
v -5 7 3
v 6 7 3
v -5 7 1
v 6 7 1
v -5 7 -8
v 6 7 -8
v -5 7 -10
v 6 7 -10
v -9 14 -2
v -8 14 -2
v -9 14 -5
v -8 14 -5
v -10 16 -2
v -9 16 -2
v -10 16 -5
v -9 16 -5
v -4 1 -0
v -1 1 -0
v -5 1 -1
v -4 1 -1
v -2 1 -1
v -1 1 -1
v -5 1 -2
v -4 1 -2
v -2 1 -2
v -1 1 -2
v -4 1 -3
v -1 1 -3
v -4 1 -4
v -1 1 -4
v -5 1 -5
v -4 1 -5
v -2 1 -5
v -1 1 -5
v -5 1 -6
v -4 1 -6
v -2 1 -6
v -1 1 -6
v -4 1 -7
v -1 1 -7
v -5 13 3
v 6 13 3
v -5 13 1
v 6 13 1
v -5 13 -8
v 6 13 -8
v -5 13 -10
v 6 13 -10
v 1 14 1
v 9 14 1
v 1 14 -8
v 9 14 -8
v -10 18 -2
v -8 18 -2
v -10 18 -5
v -8 18 -5
v -8 23 1
v 1 23 1
v -8 23 -8
v 1 23 -8

# faces
f 3/4/1 2/4/1 1/4/1
f 4/4/1 2/4/1 3/4/1
f 7/4/1 6/4/1 5/4/1
f 8/4/1 6/4/1 7/4/1
f 11/1/1 10/1/1 9/1/1
f 12/1/1 10/1/1 11/1/1
f 13/1/1 11/1/1 9/1/1
f 14/1/1 10/1/1 12/1/1
f 15/1/1 13/1/1 9/1/1
f 15/1/1 14/1/1 13/1/1
f 16/1/1 10/1/1 14/1/1
f 16/1/1 14/1/1 15/1/1
f 21/3/1 18/3/1 17/3/1
f 22/3/1 18/3/1 21/3/1
f 23/3/1 20/3/1 19/3/1
f 24/3/1 20/3/1 23/3/1
f 29/5/1 26/5/1 25/5/1
f 30/5/1 26/5/1 29/5/1
f 31/5/1 28/5/1 27/5/1
f 32/5/1 28/5/1 31/5/1
f 41/2/1 34/2/1 33/2/1
f 42/2/1 34/2/1 41/2/1
f 43/2/1 36/2/1 35/2/1
f 44/2/1 36/2/1 43/2/1
f 45/2/1 38/2/1 37/2/1
f 46/2/1 38/2/1 45/2/1
f 47/2/1 40/2/1 39/2/1
f 48/2/1 40/2/1 47/2/1
f 53/2/1 50/2/1 49/2/1
f 54/2/1 50/2/1 53/2/1
f 55/2/1 52/2/1 51/2/1
f 56/2/1 52/2/1 55/2/1
f 57/2/2 58/2/2 61/2/2
f 61/2/2 58/2/2 62/2/2
f 62/2/2 58/2/2 63/2/2
f 63/2/2 58/2/2 64/2/2
f 59/2/2 60/2/2 65/2/2
f 65/2/2 60/2/2 66/2/2
f 66/2/2 60/2/2 67/2/2
f 67/2/2 60/2/2 68/2/2
f 62/2/2 63/2/2 69/2/2
f 69/2/2 63/2/2 70/2/2
f 66/2/2 67/2/2 71/2/2
f 71/2/2 67/2/2 72/2/2
f 73/1/2 74/1/2 75/1/2
f 75/1/2 74/1/2 76/1/2
f 77/5/2 78/5/2 81/5/2
f 81/5/2 78/5/2 82/5/2
f 79/5/2 80/5/2 83/5/2
f 83/5/2 80/5/2 84/5/2
f 85/1/2 86/1/2 87/1/2
f 87/1/2 86/1/2 88/1/2
f 91/5/3 90/5/3 89/5/3
f 92/5/3 90/5/3 91/5/3
f 95/1/3 94/1/3 93/1/3
f 96/1/3 94/1/3 95/1/3
f 97/1/3 94/1/3 96/1/3
f 98/1/3 94/1/3 97/1/3
f 99/1/3 97/1/3 96/1/3
f 99/6/3 98/6/3 97/6/3
f 100/1/3 94/1/3 98/1/3
f 100/6/3 98/6/3 99/6/3
f 101/1/3 99/1/3 96/1/3
f 101/1/3 100/1/3 99/1/3
f 102/1/3 94/1/3 100/1/3
f 102/1/3 100/1/3 101/1/3
f 103/1/3 95/1/3 93/1/3
f 104/1/3 101/1/3 96/1/3
f 105/1/3 103/1/3 93/1/3
f 105/1/3 104/1/3 103/1/3
f 106/1/3 101/1/3 104/1/3
f 106/1/3 104/1/3 105/1/3
f 109/2/3 108/2/3 107/2/3
f 110/2/3 108/2/3 109/2/3
f 113/3/3 112/3/3 111/3/3
f 114/3/3 112/3/3 113/3/3
f 117/2/3 116/2/3 115/2/3
f 118/2/3 116/2/3 117/2/3
f 122/4/3 120/4/3 119/4/3
f 123/4/3 122/4/3 121/4/3
f 124/4/3 120/4/3 122/4/3
f 124/4/3 122/4/3 123/4/3
f 127/2/3 126/2/3 125/2/3
f 128/2/3 126/2/3 127/2/3
f 131/3/3 130/3/3 129/3/3
f 132/3/3 130/3/3 131/3/3
f 135/2/3 134/2/3 133/2/3
f 136/2/3 134/2/3 135/2/3
f 137/3/4 138/3/4 139/3/4
f 139/3/4 138/3/4 140/3/4
f 141/2/4 142/2/4 143/2/4
f 143/2/4 142/2/4 144/2/4
f 145/2/4 146/2/4 147/2/4
f 147/2/4 146/2/4 148/2/4
f 149/4/4 150/4/4 152/4/4
f 151/4/4 152/4/4 153/4/4
f 152/4/4 150/4/4 154/4/4
f 153/4/4 152/4/4 154/4/4
f 155/3/4 156/3/4 157/3/4
f 157/3/4 156/3/4 158/3/4
f 159/2/4 160/2/4 161/2/4
f 161/2/4 160/2/4 162/2/4
f 163/2/4 164/2/4 165/2/4
f 165/2/4 164/2/4 166/2/4
f 167/1/4 168/1/4 169/1/4
f 169/1/4 168/1/4 170/1/4
f 170/1/4 168/1/4 171/1/4
f 171/1/4 168/1/4 172/1/4
f 170/1/4 171/1/4 173/1/4
f 171/6/4 172/6/4 173/6/4
f 172/1/4 168/1/4 174/1/4
f 173/6/4 172/6/4 174/6/4
f 170/1/4 173/1/4 175/1/4
f 173/1/4 174/1/4 175/1/4
f 174/1/4 168/1/4 176/1/4
f 175/1/4 174/1/4 176/1/4
f 167/1/4 169/1/4 177/1/4
f 170/1/4 175/1/4 178/1/4
f 167/1/4 177/1/4 179/1/4
f 177/1/4 178/1/4 179/1/4
f 178/1/4 175/1/4 180/1/4
f 179/1/4 178/1/4 180/1/4
f 181/5/4 182/5/4 183/5/4
f 183/5/4 182/5/4 184/5/4
f 188/2/5 186/2/5 185/2/5
f 189/2/5 186/2/5 188/2/5
f 190/3/5 188/3/5 187/3/5
f 190/3/5 189/3/5 188/3/5
f 191/3/5 189/3/5 190/3/5
f 192/2/5 186/2/5 189/2/5
f 192/3/5 189/3/5 191/3/5
f 193/2/5 192/2/5 191/2/5
f 194/2/5 186/2/5 192/2/5
f 194/2/5 192/2/5 193/2/5
f 198/2/5 196/2/5 195/2/5
f 199/2/5 196/2/5 198/2/5
f 200/3/5 198/3/5 197/3/5
f 200/3/5 199/3/5 198/3/5
f 201/3/5 199/3/5 200/3/5
f 202/2/5 196/2/5 199/2/5
f 202/3/5 199/3/5 201/3/5
f 203/2/5 202/2/5 201/2/5
f 204/2/5 196/2/5 202/2/5
f 204/2/5 202/2/5 203/2/5
f 207/1/5 206/1/5 205/1/5
f 208/1/5 206/1/5 207/1/5
f 209/1/5 207/1/5 205/1/5
f 210/1/5 206/1/5 208/1/5
f 211/1/5 209/1/5 205/1/5
f 211/1/5 210/1/5 209/1/5
f 212/1/5 206/1/5 210/1/5
f 212/1/5 210/1/5 211/1/5
f 213/1/5 211/1/5 205/1/5
f 214/1/5 206/1/5 212/1/5
f 215/1/5 213/1/5 205/1/5
f 215/1/5 214/1/5 213/1/5
f 216/1/5 206/1/5 214/1/5
f 216/1/5 214/1/5 215/1/5
f 219/5/5 218/5/5 217/5/5
f 220/5/5 218/5/5 219/5/5
f 223/5/5 222/5/5 221/5/5
f 224/5/5 222/5/5 223/5/5
f 227/4/5 226/4/5 225/4/5
f 228/4/5 226/4/5 227/4/5
f 231/4/5 230/4/5 229/4/5
f 232/4/5 230/4/5 231/4/5
f 233/2/6 234/2/6 236/2/6
f 236/2/6 234/2/6 237/2/6
f 237/2/6 234/2/6 238/2/6
f 235/3/6 236/3/6 239/3/6
f 236/3/6 237/3/6 239/3/6
f 239/3/6 237/3/6 240/3/6
f 240/3/6 237/3/6 241/3/6
f 241/2/6 242/2/6 243/2/6
f 240/2/6 241/2/6 243/2/6
f 243/2/6 242/2/6 244/2/6
f 245/2/6 246/2/6 248/2/6
f 248/2/6 246/2/6 249/2/6
f 249/2/6 246/2/6 250/2/6
f 247/3/6 248/3/6 251/3/6
f 248/3/6 249/3/6 251/3/6
f 251/3/6 249/3/6 252/3/6
f 252/3/6 249/3/6 253/3/6
f 253/2/6 254/2/6 255/2/6
f 252/2/6 253/2/6 255/2/6
f 255/2/6 254/2/6 256/2/6
f 257/5/6 258/5/6 259/5/6
f 259/5/6 258/5/6 260/5/6
f 261/5/6 262/5/6 263/5/6
f 263/5/6 262/5/6 264/5/6
f 265/1/6 266/1/6 267/1/6
f 267/1/6 266/1/6 268/1/6
f 269/4/6 270/4/6 271/4/6
f 271/4/6 270/4/6 272/4/6
f 273/1/6 274/1/6 275/1/6
f 275/1/6 274/1/6 276/1/6
