# MagicaVoxel @ Ephtracy

# group
g boy3-1

# material
mtllib boy3-1.mtl
usemtl palette

# normals
vn -1 0 0
vn 1 0 0
vn 0 0 1
vn 0 0 -1
vn 0 -1 0
vn 0 1 0

# texcoords
vt 0.00195313 0.5
vt 0.0253906 0.5
vt 0.0332031 0.5
vt 0.0371094 0.5
vt 0.0410156 0.5
vt 0.0449219 0.5
vt 0.0605469 0.5
vt 0.0644531 0.5
vt 0.154297 0.5
vt 0.158203 0.5
vt 0.494141 0.5
vt 0.904297 0.5
vt 0.994141 0.5

# verts
v -4 4 0.5
v -4 4 -0.5
v -4 5 0.5
v -4 5 -0.5
v -4 8 2.5
v -4 8 0.5
v -4 8 -0.5
v -4 8 -2.5
v -4 9 1.5
v -4 9 0.5
v -4 9 -0.5
v -4 10 1.5
v -4 10 0.5
v -4 11 2.5
v -4 11 0.5
v -4 11 -1.5
v -4 11 -2.5
v -4 12 0.5
v -4 12 -1.5
v -3 5 0.5
v -3 5 -0.5
v -3 6 0.5
v -3 6 -0.5
v -3 7 2.5
v -3 7 1.5
v -3 7 -0.5
v -3 7 -3.5
v -3 8 2.5
v -3 8 1.5
v -3 8 0.5
v -3 8 -0.5
v -3 8 -2.5
v -3 9 1.5
v -3 9 0.5
v -3 9 -0.5
v -3 10 3.5
v -3 10 2.5
v -3 10 1.5
v -3 10 0.5
v -3 11 3.5
v -3 11 2.5
v -3 11 1.5
v -3 11 0.5
v -3 11 -1.5
v -3 11 -2.5
v -3 11 -3.5
v -3 12 2.5
v -3 12 1.5
v -3 12 0.5
v -3 12 -1.5
v -3 12 -2.5
v -3 13 1.5
v -3 13 -1.5
v -2 0 1.5
v -2 0 -0.5
v -2 1 1.5
v -2 1 0.5
v -2 1 -0.5
v -2 2 0.5
v -2 2 -0.5
v -2 3 1.5
v -2 3 0.5
v -2 3 -0.5
v -2 3 -1.5
v -2 4 2.5
v -2 4 1.5
v -2 5 2.5
v -2 5 1.5
v -2 5 0.5
v -2 5 -0.5
v -2 6 2.5
v -2 6 1.5
v -2 6 0.5
v -2 6 -0.5
v -2 6 -1.5
v -2 6 -3.5
v -2 7 2.5
v -2 7 1.5
v -2 7 0.5
v -2 7 -0.5
v -2 7 -3.5
v -2 8 1.5
v -2 8 0.5
v -2 11 3.5
v -2 11 2.5
v -2 11 -2.5
v -2 11 -3.5
v -2 12 3.5
v -2 12 2.5
v -2 12 1.5
v -2 12 -1.5
v -2 12 -2.5
v -2 12 -3.5
v -2 13 2.5
v -2 13 1.5
v -2 13 -1.5
v -2 13 -2.5
v -2 14 1.5
v -2 14 -1.5
v -1 5 2.5
v -1 5 1.5
v -1 6 2.5
v -1 6 1.5
v -1 9 2.5
v -1 9 1.5
v -1 10 3.5
v -1 10 2.5
v -1 10 1.5
v -1 11 3.5
v -1 11 2.5
v 1 0 1.5
v 1 0 -0.5
v 1 1 1.5
v 1 1 0.5
v 1 1 -0.5
v 1 2 0.5
v 1 2 -0.5
v 1 3 0.5
v 1 3 -0.5
v 1 4 2.5
v 1 4 1.5
v 1 5 2.5
v 1 5 1.5
v 2 7 2.5
v 2 7 1.5
v 2 8 1.5
v 2 9 1.5
v 2 10 3.5
v 2 10 2.5
v 2 10 1.5
v 2 11 3.5
v 2 11 2.5
v 3 4 0.5
v 3 4 -0.5
v 3 5 0.5
v 3 5 -0.5
v -3 4 0.5
v -3 4 -0.5
v -3 5 0.5
v -3 5 -0.5
v -2 7 2.5
v -2 7 1.5
v -2 8 1.5
v -2 9 1.5
v -2 10 3.5
v -2 10 2.5
v -2 10 1.5
v -2 11 3.5
v -2 11 2.5
v -1 0 1.5
v -1 0 -0.5
v -1 1 1.5
v -1 1 0.5
v -1 1 -0.5
v -1 2 0.5
v -1 2 -0.5
v -1 3 0.5
v -1 3 -0.5
v -1 4 2.5
v -1 4 1.5
v -1 5 2.5
v -1 5 1.5
v 1 5 2.5
v 1 5 1.5
v 1 6 2.5
v 1 6 1.5
v 1 9 2.5
v 1 9 1.5
v 1 10 3.5
v 1 10 2.5
v 1 10 1.5
v 1 11 3.5
v 1 11 2.5
v 2 0 1.5
v 2 0 -0.5
v 2 1 1.5
v 2 1 0.5
v 2 1 -0.5
v 2 2 0.5
v 2 2 -0.5
v 2 3 1.5
v 2 3 0.5
v 2 3 -0.5
v 2 3 -1.5
v 2 4 2.5
v 2 4 1.5
v 2 4 0.5
v 2 4 -0.5
v 2 4 -1.5
v 2 5 2.5
v 2 5 1.5
v 2 5 0.5
v 2 5 -0.5
v 2 6 2.5
v 2 6 1.5
v 2 6 0.5
v 2 6 -0.5
v 2 6 -1.5
v 2 6 -3.5
v 2 7 2.5
v 2 7 1.5
v 2 7 0.5
v 2 7 -0.5
v 2 7 -2.5
v 2 8 1.5
v 2 8 0.5
v 2 10 -2.5
v 2 10 -3.5
v 2 11 3.5
v 2 11 2.5
v 2 11 -2.5
v 2 11 -3.5
v 2 12 3.5
v 2 12 2.5
v 2 12 1.5
v 2 12 -1.5
v 2 12 -2.5
v 2 12 -3.5
v 2 13 2.5
v 2 13 1.5
v 2 13 -1.5
v 2 13 -2.5
v 2 14 1.5
v 2 14 -1.5
v 3 5 0.5
v 3 5 -0.5
v 3 6 0.5
v 3 6 -0.5
v 3 7 2.5
v 3 7 1.5
v 3 7 -0.5
v 3 7 -2.5
v 3 8 1.5
v 3 8 0.5
v 3 8 -1.5
v 3 10 3.5
v 3 10 2.5
v 3 11 3.5
v 3 11 2.5
v 3 11 1.5
v 3 11 -1.5
v 3 11 -2.5
v 3 12 2.5
v 3 12 1.5
v 3 12 -1.5
v 3 12 -2.5
v 3 13 1.5
v 3 13 -1.5
v 4 4 0.5
v 4 4 -0.5
v 4 5 0.5
v 4 5 -0.5
v 4 8 1.5
v 4 8 -1.5
v 4 12 1.5
v 4 12 -1.5
v -3 10 3.5
v -3 11 3.5
v -2 10 3.5
v -2 11 3.5
v -2 12 3.5
v -1 10 3.5
v -1 11 3.5
v 1 10 3.5
v 1 11 3.5
v 2 10 3.5
v 2 11 3.5
v 2 12 3.5
v 3 10 3.5
v 3 11 3.5
v -4 8 2.5
v -4 11 2.5
v -3 7 2.5
v -3 8 2.5
v -3 10 2.5
v -3 11 2.5
v -3 12 2.5
v -2 4 2.5
v -2 5 2.5
v -2 6 2.5
v -2 7 2.5
v -2 10 2.5
v -2 11 2.5
v -2 12 2.5
v -2 13 2.5
v -1 4 2.5
v -1 5 2.5
v -1 6 2.5
v -1 7 2.5
v -1 9 2.5
v -1 10 2.5
v -1 11 2.5
v 1 4 2.5
v 1 5 2.5
v 1 6 2.5
v 1 7 2.5
v 1 9 2.5
v 1 10 2.5
v 1 11 2.5
v 2 4 2.5
v 2 5 2.5
v 2 6 2.5
v 2 7 2.5
v 2 10 2.5
v 2 11 2.5
v 2 12 2.5
v 2 13 2.5
v 3 7 2.5
v 3 10 2.5
v 3 11 2.5
v 3 12 2.5
v -3 12 1.5
v -3 13 1.5
v -2 0 1.5
v -2 1 1.5
v -2 3 1.5
v -2 4 1.5
v -2 5 1.5
v -2 6 1.5
v -2 7 1.5
v -2 8 1.5
v -2 9 1.5
v -2 10 1.5
v -2 12 1.5
v -2 13 1.5
v -2 14 1.5
v -1 0 1.5
v -1 1 1.5
v -1 4 1.5
v -1 5 1.5
v -1 6 1.5
v -1 7 1.5
v -1 8 1.5
v -1 9 1.5
v -1 10 1.5
v 0 4 1.5
v 0 5 1.5
v 0 7 1.5
v 0 8 1.5
v 1 0 1.5
v 1 1 1.5
v 1 4 1.5
v 1 5 1.5
v 1 6 1.5
v 1 7 1.5
v 1 8 1.5
v 1 9 1.5
v 1 10 1.5
v 2 0 1.5
v 2 1 1.5
v 2 3 1.5
v 2 4 1.5
v 2 5 1.5
v 2 6 1.5
v 2 7 1.5
v 2 8 1.5
v 2 9 1.5
v 2 10 1.5
v 2 12 1.5
v 2 13 1.5
v 2 14 1.5
v 3 8 1.5
v 3 11 1.5
v 3 12 1.5
v 3 13 1.5
v 4 8 1.5
v 4 12 1.5
v -4 4 0.5
v -4 5 0.5
v -4 9 0.5
v -4 10 0.5
v -4 11 0.5
v -4 12 0.5
v -3 4 0.5
v -3 5 0.5
v -3 6 0.5
v -3 8 0.5
v -3 9 0.5
v -3 10 0.5
v -3 11 0.5
v -3 12 0.5
v -2 1 0.5
v -2 2 0.5
v -2 3 0.5
v -2 5 0.5
v -2 6 0.5
v -2 7 0.5
v -2 8 0.5
v -1 1 0.5
v -1 2 0.5
v -1 3 0.5
v 1 1 0.5
v 1 2 0.5
v 1 3 0.5
v 2 1 0.5
v 2 2 0.5
v 2 3 0.5
v 2 5 0.5
v 2 6 0.5
v 2 7 0.5
v 2 8 0.5
v 3 4 0.5
v 3 5 0.5
v 3 6 0.5
v 3 8 0.5
v 4 4 0.5
v 4 5 0.5
v -4 8 -0.5
v -4 9 -0.5
v -3 8 -0.5
v -3 9 -0.5
v -4 9 1.5
v -4 10 1.5
v -3 7 1.5
v -3 8 1.5
v -3 9 1.5
v -3 10 1.5
v -2 7 1.5
v -2 8 1.5
v 2 7 1.5
v 2 8 1.5
v 3 7 1.5
v 3 8 1.5
v -4 8 0.5
v -4 9 0.5
v -3 8 0.5
v -3 9 0.5
v -4 4 -0.5
v -4 5 -0.5
v -3 4 -0.5
v -3 5 -0.5
v -3 6 -0.5
v -3 7 -0.5
v -2 0 -0.5
v -2 1 -0.5
v -2 2 -0.5
v -2 3 -0.5
v -2 5 -0.5
v -2 6 -0.5
v -2 7 -0.5
v -1 0 -0.5
v -1 1 -0.5
v -1 2 -0.5
v -1 3 -0.5
v 1 0 -0.5
v 1 1 -0.5
v 1 2 -0.5
v 1 3 -0.5
v 2 0 -0.5
v 2 1 -0.5
v 2 2 -0.5
v 2 3 -0.5
v 2 5 -0.5
v 2 6 -0.5
v 2 7 -0.5
v 3 4 -0.5
v 3 5 -0.5
v 3 6 -0.5
v 3 7 -0.5
v 4 4 -0.5
v 4 5 -0.5
v -4 11 -1.5
v -4 12 -1.5
v -3 11 -1.5
v -3 12 -1.5
v -3 13 -1.5
v -2 3 -1.5
v -2 6 -1.5
v -2 12 -1.5
v -2 13 -1.5
v -2 14 -1.5
v -1 4 -1.5
v -1 6 -1.5
v 0 4 -1.5
v 0 6 -1.5
v 1 4 -1.5
v 1 6 -1.5
v 2 3 -1.5
v 2 4 -1.5
v 2 6 -1.5
v 2 12 -1.5
v 2 13 -1.5
v 2 14 -1.5
v 3 8 -1.5
v 3 11 -1.5
v 3 12 -1.5
v 3 13 -1.5
v 4 8 -1.5
v 4 12 -1.5
v -4 8 -2.5
v -4 11 -2.5
v -3 8 -2.5
v -3 11 -2.5
v -3 12 -2.5
v -2 11 -2.5
v -2 12 -2.5
v -2 13 -2.5
v 2 7 -2.5
v 2 10 -2.5
v 2 11 -2.5
v 2 12 -2.5
v 2 13 -2.5
v 3 7 -2.5
v 3 11 -2.5
v 3 12 -2.5
v -3 7 -3.5
v -3 11 -3.5
v -2 6 -3.5
v -2 7 -3.5
v -2 11 -3.5
v -2 12 -3.5
v 1 10 -3.5
v 1 11 -3.5
v 2 6 -3.5
v 2 10 -3.5
v 2 11 -3.5
v 2 12 -3.5
v -2 0 1.5
v -1 0 1.5
v 1 0 1.5
v 2 0 1.5
v -2 0 -0.5
v -1 0 -0.5
v 1 0 -0.5
v 2 0 -0.5
v -2 3 1.5
v 2 3 1.5
v -2 3 0.5
v -1 3 0.5
v 1 3 0.5
v 2 3 0.5
v -2 3 -0.5
v -1 3 -0.5
v 1 3 -0.5
v 2 3 -0.5
v -2 3 -1.5
v 2 3 -1.5
v -2 4 2.5
v -1 4 2.5
v 1 4 2.5
v 2 4 2.5
v -2 4 1.5
v -1 4 1.5
v 1 4 1.5
v 2 4 1.5
v -4 4 0.5
v -3 4 0.5
v 3 4 0.5
v 4 4 0.5
v -4 4 -0.5
v -3 4 -0.5
v 3 4 -0.5
v 4 4 -0.5
v -1 5 2.5
v 1 5 2.5
v -1 5 1.5
v 0 5 1.5
v 1 5 1.5
v -3 5 0.5
v -2 5 0.5
v 2 5 0.5
v 3 5 0.5
v -3 5 -0.5
v -2 5 -0.5
v 2 5 -0.5
v 3 5 -0.5
v -2 6 2.5
v -1 6 2.5
v 1 6 2.5
v 2 6 2.5
v -2 6 1.5
v -1 6 1.5
v 1 6 1.5
v 2 6 1.5
v -2 6 -1.5
v -1 6 -1.5
v 0 6 -1.5
v 1 6 -1.5
v 2 6 -1.5
v -2 6 -3.5
v 2 6 -3.5
v -3 7 2.5
v -2 7 2.5
v 2 7 2.5
v 3 7 2.5
v -3 7 1.5
v -2 7 1.5
v 2 7 1.5
v 3 7 1.5
v -3 7 -0.5
v -2 7 -0.5
v 2 7 -0.5
v 3 7 -0.5
v 2 7 -2.5
v 3 7 -2.5
v -3 7 -3.5
v -2 7 -3.5
v -4 8 2.5
v -3 8 2.5
v -3 8 1.5
v -2 8 1.5
v 2 8 1.5
v 3 8 1.5
v 4 8 1.5
v -4 8 0.5
v -3 8 0.5
v -2 8 0.5
v 2 8 0.5
v 3 8 0.5
v -4 8 -0.5
v -3 8 -0.5
v 3 8 -1.5
v 4 8 -1.5
v -4 8 -2.5
v -3 8 -2.5
v -1 9 2.5
v 1 9 2.5
v -1 9 1.5
v 1 9 1.5
v -4 9 0.5
v -3 9 0.5
v -4 9 -0.5
v -3 9 -0.5
v -3 10 3.5
v -2 10 3.5
v -1 10 3.5
v 1 10 3.5
v 2 10 3.5
v 3 10 3.5
v -3 10 2.5
v -2 10 2.5
v -1 10 2.5
v 1 10 2.5
v 2 10 2.5
v 3 10 2.5
v -4 10 1.5
v -3 10 1.5
v -2 10 1.5
v -1 10 1.5
v 1 10 1.5
v 2 10 1.5
v -4 10 0.5
v -3 10 0.5
v -2 11 3.5
v -1 11 3.5
v 1 11 3.5
v 2 11 3.5
v -2 11 2.5
v -1 11 2.5
v 1 11 2.5
v 2 11 2.5
v -2 1 1.5
v -1 1 1.5
v 1 1 1.5
v 2 1 1.5
v -2 1 0.5
v -1 1 0.5
v 1 1 0.5
v 2 1 0.5
v -2 5 2.5
v -1 5 2.5
v 1 5 2.5
v 2 5 2.5
v -2 5 1.5
v -1 5 1.5
v 1 5 1.5
v 2 5 1.5
v -4 5 0.5
v -3 5 0.5
v 3 5 0.5
v 4 5 0.5
v -4 5 -0.5
v -3 5 -0.5
v 3 5 -0.5
v 4 5 -0.5
v -2 7 2.5
v -1 7 2.5
v 1 7 2.5
v 2 7 2.5
v -2 7 1.5
v -1 7 1.5
v 0 7 1.5
v 1 7 1.5
v 2 7 1.5
v -4 9 1.5
v -3 9 1.5
v -4 9 0.5
v -3 9 0.5
v -3 11 3.5
v -2 11 3.5
v 2 11 3.5
v 3 11 3.5
v -4 11 2.5
v -3 11 2.5
v -2 11 2.5
v 2 11 2.5
v 3 11 2.5
v -3 11 1.5
v -4 11 0.5
v -3 11 0.5
v -4 11 -1.5
v -3 11 -1.5
v -4 11 -2.5
v -3 11 -2.5
v -2 11 -2.5
v -3 11 -3.5
v -2 11 -3.5
v -2 12 3.5
v 2 12 3.5
v -3 12 2.5
v -2 12 2.5
v 2 12 2.5
v 3 12 2.5
v -3 12 1.5
v -2 12 1.5
v 2 12 1.5
v 3 12 1.5
v 4 12 1.5
v -4 12 0.5
v -3 12 0.5
v -4 12 -1.5
v -3 12 -1.5
v -2 12 -1.5
v 2 12 -1.5
v 3 12 -1.5
v 4 12 -1.5
v -3 12 -2.5
v -2 12 -2.5
v 2 12 -2.5
v 3 12 -2.5
v -2 12 -3.5
v 2 12 -3.5
v -2 13 2.5
v 2 13 2.5
v -3 13 1.5
v -2 13 1.5
v 2 13 1.5
v 3 13 1.5
v -3 13 -1.5
v -2 13 -1.5
v 2 13 -1.5
v 3 13 -1.5
v -2 13 -2.5
v 2 13 -2.5
v -2 14 1.5
v 2 14 1.5
v -2 14 -1.5
v 2 14 -1.5

# faces
f 3/7/1 2/7/1 1/7/1
f 4/7/1 2/7/1 3/7/1
f 9/10/1 6/10/1 5/10/1
f 10/10/1 6/10/1 9/10/1
f 11/10/1 8/10/1 7/10/1
f 12/10/1 9/10/1 5/10/1
f 13/10/1 11/10/1 10/10/1
f 14/10/1 12/10/1 5/10/1
f 14/10/1 13/10/1 12/10/1
f 15/10/1 11/10/1 13/10/1
f 15/10/1 13/10/1 14/10/1
f 16/10/1 8/10/1 11/10/1
f 16/10/1 11/10/1 15/10/1
f 17/10/1 8/10/1 16/10/1
f 18/9/1 16/9/1 15/9/1
f 19/9/1 16/9/1 18/9/1
f 22/5/1 21/5/1 20/5/1
f 23/5/1 21/5/1 22/5/1
f 26/10/1 23/10/1 22/10/1
f 28/10/1 25/10/1 24/10/1
f 29/10/1 25/10/1 28/10/1
f 30/10/1 27/10/1 26/10/1
f 30/10/1 26/10/1 22/10/1
f 31/10/1 27/10/1 30/10/1
f 32/10/1 27/10/1 31/10/1
f 34/10/1 31/10/1 30/10/1
f 35/10/1 31/10/1 34/10/1
f 38/10/1 34/10/1 33/10/1
f 39/10/1 34/10/1 38/10/1
f 40/10/1 37/10/1 36/10/1
f 41/10/1 37/10/1 40/10/1
f 45/10/1 27/10/1 32/10/1
f 46/10/1 27/10/1 45/10/1
f 47/6/1 42/6/1 41/6/1
f 48/10/1 43/10/1 42/10/1
f 48/6/1 42/6/1 47/6/1
f 49/10/1 43/10/1 48/10/1
f 50/6/1 45/6/1 44/6/1
f 51/6/1 45/6/1 50/6/1
f 52/9/1 49/9/1 48/9/1
f 52/9/1 50/9/1 49/9/1
f 53/9/1 50/9/1 52/9/1
f 56/12/1 55/12/1 54/12/1
f 57/12/1 55/12/1 56/12/1
f 58/12/1 55/12/1 57/12/1
f 59/7/1 58/7/1 57/7/1
f 60/7/1 58/7/1 59/7/1
f 62/1/1 60/1/1 59/1/1
f 63/1/1 60/1/1 62/1/1
f 66/4/1 62/4/1 61/4/1
f 67/11/1 66/11/1 65/11/1
f 68/4/1 62/4/1 66/4/1
f 68/11/1 66/11/1 67/11/1
f 69/1/1 63/1/1 62/1/1
f 69/4/1 62/4/1 68/4/1
f 70/4/1 64/4/1 63/4/1
f 70/1/1 63/1/1 69/1/1
f 72/4/1 69/4/1 68/4/1
f 73/4/1 69/4/1 72/4/1
f 74/4/1 64/4/1 70/4/1
f 75/4/1 64/4/1 74/4/1
f 77/5/1 72/5/1 71/5/1
f 78/10/1 73/10/1 72/10/1
f 78/5/1 72/5/1 77/5/1
f 79/10/1 73/10/1 78/10/1
f 80/10/1 76/10/1 75/10/1
f 80/10/1 75/10/1 74/10/1
f 81/10/1 76/10/1 80/10/1
f 82/7/1 79/7/1 78/7/1
f 83/7/1 79/7/1 82/7/1
f 88/10/1 85/10/1 84/10/1
f 89/10/1 85/10/1 88/10/1
f 92/10/1 87/10/1 86/10/1
f 93/10/1 87/10/1 92/10/1
f 94/6/1 90/6/1 89/6/1
f 95/6/1 90/6/1 94/6/1
f 96/10/1 92/10/1 91/10/1
f 97/10/1 92/10/1 96/10/1
f 98/10/1 96/10/1 95/10/1
f 99/10/1 96/10/1 98/10/1
f 102/11/1 101/11/1 100/11/1
f 103/11/1 101/11/1 102/11/1
f 107/10/1 105/10/1 104/10/1
f 108/10/1 105/10/1 107/10/1
f 109/10/1 107/10/1 106/10/1
f 110/10/1 107/10/1 109/10/1
f 113/12/1 112/12/1 111/12/1
f 114/12/1 112/12/1 113/12/1
f 115/12/1 112/12/1 114/12/1
f 116/7/1 115/7/1 114/7/1
f 117/7/1 115/7/1 116/7/1
f 118/1/1 117/1/1 116/1/1
f 119/1/1 117/1/1 118/1/1
f 122/11/1 121/11/1 120/11/1
f 123/11/1 121/11/1 122/11/1
f 126/10/1 125/10/1 124/10/1
f 127/10/1 126/10/1 124/10/1
f 129/10/1 127/10/1 124/10/1
f 130/10/1 127/10/1 129/10/1
f 131/10/1 129/10/1 128/10/1
f 132/10/1 129/10/1 131/10/1
f 135/7/1 134/7/1 133/7/1
f 136/7/1 134/7/1 135/7/1
f 137/7/2 138/7/2 139/7/2
f 139/7/2 138/7/2 140/7/2
f 141/10/2 142/10/2 143/10/2
f 141/10/2 143/10/2 144/10/2
f 141/10/2 144/10/2 146/10/2
f 146/10/2 144/10/2 147/10/2
f 145/10/2 146/10/2 148/10/2
f 148/10/2 146/10/2 149/10/2
f 150/12/2 151/12/2 152/12/2
f 152/12/2 151/12/2 153/12/2
f 153/12/2 151/12/2 154/12/2
f 153/7/2 154/7/2 155/7/2
f 155/7/2 154/7/2 156/7/2
f 155/1/2 156/1/2 157/1/2
f 157/1/2 156/1/2 158/1/2
f 159/11/2 160/11/2 161/11/2
f 161/11/2 160/11/2 162/11/2
f 163/11/2 164/11/2 165/11/2
f 165/11/2 164/11/2 166/11/2
f 167/10/2 168/10/2 170/10/2
f 170/10/2 168/10/2 171/10/2
f 169/10/2 170/10/2 172/10/2
f 172/10/2 170/10/2 173/10/2
f 174/12/2 175/12/2 176/12/2
f 176/12/2 175/12/2 177/12/2
f 177/12/2 175/12/2 178/12/2
f 177/7/2 178/7/2 179/7/2
f 179/7/2 178/7/2 180/7/2
f 179/1/2 180/1/2 182/1/2
f 182/1/2 180/1/2 183/1/2
f 182/4/2 183/4/2 186/4/2
f 183/4/2 184/4/2 186/4/2
f 181/4/2 182/4/2 186/4/2
f 186/4/2 184/4/2 187/4/2
f 187/4/2 184/4/2 188/4/2
f 188/4/2 184/4/2 189/4/2
f 185/11/2 186/11/2 190/11/2
f 186/1/2 187/1/2 191/1/2
f 190/11/2 186/11/2 191/11/2
f 187/4/2 188/4/2 192/4/2
f 191/1/2 187/1/2 192/1/2
f 188/1/2 189/1/2 193/1/2
f 192/4/2 188/4/2 193/4/2
f 191/1/2 192/1/2 195/1/2
f 195/1/2 192/1/2 196/1/2
f 193/1/2 189/1/2 197/1/2
f 197/1/2 189/1/2 198/1/2
f 194/5/2 195/5/2 200/5/2
f 195/10/2 196/10/2 201/10/2
f 200/5/2 195/5/2 201/5/2
f 201/10/2 196/10/2 202/10/2
f 197/10/2 198/10/2 203/10/2
f 198/10/2 199/10/2 203/10/2
f 203/10/2 199/10/2 204/10/2
f 201/3/2 202/3/2 205/3/2
f 205/3/2 202/3/2 206/3/2
f 204/10/2 199/10/2 207/10/2
f 207/10/2 199/10/2 208/10/2
f 207/6/2 208/6/2 211/6/2
f 211/6/2 208/6/2 212/6/2
f 209/10/2 210/10/2 213/10/2
f 213/10/2 210/10/2 214/10/2
f 211/10/2 212/10/2 217/10/2
f 217/10/2 212/10/2 218/10/2
f 214/6/2 215/6/2 219/6/2
f 219/6/2 215/6/2 220/6/2
f 216/10/2 217/10/2 221/10/2
f 221/10/2 217/10/2 222/10/2
f 220/10/2 221/10/2 223/10/2
f 223/10/2 221/10/2 224/10/2
f 225/5/2 226/5/2 227/5/2
f 227/5/2 226/5/2 228/5/2
f 227/10/2 228/10/2 231/10/2
f 229/10/2 230/10/2 233/10/2
f 231/10/2 232/10/2 234/10/2
f 227/10/2 231/10/2 234/10/2
f 234/10/2 232/10/2 235/10/2
f 229/10/2 233/10/2 237/10/2
f 236/10/2 237/10/2 238/10/2
f 237/10/2 233/10/2 239/10/2
f 238/10/2 237/10/2 239/10/2
f 239/10/2 233/10/2 240/10/2
f 235/10/2 232/10/2 241/10/2
f 241/10/2 232/10/2 242/10/2
f 239/6/2 240/6/2 243/6/2
f 243/6/2 240/6/2 244/6/2
f 241/6/2 242/6/2 245/6/2
f 245/6/2 242/6/2 246/6/2
f 244/9/2 245/9/2 247/9/2
f 247/9/2 245/9/2 248/9/2
f 249/7/2 250/7/2 251/7/2
f 251/7/2 250/7/2 252/7/2
f 253/10/2 254/10/2 255/10/2
f 255/10/2 254/10/2 256/10/2
f 259/10/3 258/10/3 257/10/3
f 260/10/3 258/10/3 259/10/3
f 263/10/3 261/10/3 260/10/3
f 264/10/3 263/10/3 262/10/3
f 265/10/3 261/10/3 263/10/3
f 265/10/3 263/10/3 264/10/3
f 267/10/3 261/10/3 265/10/3
f 268/10/3 261/10/3 267/10/3
f 269/10/3 267/10/3 266/10/3
f 270/10/3 267/10/3 269/10/3
f 274/10/3 272/10/3 271/10/3
f 275/10/3 272/10/3 274/10/3
f 276/10/3 272/10/3 275/10/3
f 281/10/3 274/10/3 273/10/3
f 281/10/3 275/10/3 274/10/3
f 282/10/3 275/10/3 281/10/3
f 283/6/3 277/6/3 276/6/3
f 284/6/3 277/6/3 283/6/3
f 286/11/3 279/11/3 278/11/3
f 287/11/3 279/11/3 286/11/3
f 288/5/3 281/5/3 280/5/3
f 289/5/3 281/5/3 288/5/3
f 291/10/3 283/10/3 282/10/3
f 292/10/3 283/10/3 291/10/3
f 294/11/3 289/11/3 288/11/3
f 294/11/3 288/11/3 287/11/3
f 295/11/3 289/11/3 294/11/3
f 296/11/3 289/11/3 295/11/3
f 297/10/3 291/10/3 290/10/3
f 298/10/3 291/10/3 297/10/3
f 300/11/3 294/11/3 293/11/3
f 301/11/3 294/11/3 300/11/3
f 302/5/3 296/5/3 295/5/3
f 303/5/3 296/5/3 302/5/3
f 304/10/3 299/10/3 298/10/3
f 305/10/3 299/10/3 304/10/3
f 306/6/3 285/6/3 284/6/3
f 307/6/3 285/6/3 306/6/3
f 308/10/3 304/10/3 303/10/3
f 309/10/3 304/10/3 308/10/3
f 310/6/3 306/6/3 305/6/3
f 311/6/3 306/6/3 310/6/3
f 324/9/3 313/9/3 312/9/3
f 325/9/3 313/9/3 324/9/3
f 327/12/3 315/12/3 314/12/3
f 328/12/3 315/12/3 327/12/3
f 329/4/3 317/4/3 316/4/3
f 330/4/3 319/4/3 318/4/3
f 331/4/3 319/4/3 330/4/3
f 332/7/3 321/7/3 320/7/3
f 333/13/3 322/13/3 321/13/3
f 333/7/3 321/7/3 332/7/3
f 334/10/3 323/10/3 322/10/3
f 334/13/3 322/13/3 333/13/3
f 335/10/3 323/10/3 334/10/3
f 336/4/3 329/4/3 316/4/3
f 336/1/3 330/1/3 329/1/3
f 337/1/3 330/1/3 336/1/3
f 338/7/3 333/7/3 332/7/3
f 339/3/3 334/3/3 333/3/3
f 339/7/3 333/7/3 338/7/3
f 342/4/3 337/4/3 336/4/3
f 342/4/3 336/4/3 316/4/3
f 343/4/3 337/4/3 342/4/3
f 345/3/3 339/3/3 338/3/3
f 346/3/3 334/3/3 339/3/3
f 346/3/3 339/3/3 345/3/3
f 347/3/3 334/3/3 346/3/3
f 349/12/3 341/12/3 340/12/3
f 350/12/3 341/12/3 349/12/3
f 351/4/3 342/4/3 316/4/3
f 352/4/3 342/4/3 351/4/3
f 353/1/3 344/1/3 343/1/3
f 354/1/3 344/1/3 353/1/3
f 355/3/3 346/3/3 345/3/3
f 356/13/3 347/13/3 346/13/3
f 356/3/3 346/3/3 355/3/3
f 357/10/3 348/10/3 347/10/3
f 357/13/3 347/13/3 356/13/3
f 358/10/3 348/10/3 357/10/3
f 360/10/3 326/10/3 325/10/3
f 361/10/3 326/10/3 360/10/3
f 364/9/3 360/9/3 359/9/3
f 365/9/3 360/9/3 364/9/3
f 366/10/3 363/10/3 362/10/3
f 366/10/3 364/10/3 363/10/3
f 367/10/3 364/10/3 366/10/3
f 374/7/3 369/7/3 368/7/3
f 375/7/3 369/7/3 374/7/3
f 378/10/3 371/10/3 370/10/3
f 379/10/3 371/10/3 378/10/3
f 380/9/3 373/9/3 372/9/3
f 381/9/3 373/9/3 380/9/3
f 385/5/3 376/5/3 375/5/3
f 386/10/3 377/10/3 376/10/3
f 386/5/3 376/5/3 385/5/3
f 387/10/3 377/10/3 386/10/3
f 388/10/3 377/10/3 387/10/3
f 389/7/3 383/7/3 382/7/3
f 390/1/3 384/1/3 383/1/3
f 390/7/3 383/7/3 389/7/3
f 391/1/3 384/1/3 390/1/3
f 395/7/3 393/7/3 392/7/3
f 396/1/3 394/1/3 393/1/3
f 396/7/3 393/7/3 395/7/3
f 397/1/3 394/1/3 396/1/3
f 403/5/3 399/5/3 398/5/3
f 404/10/3 401/10/3 400/10/3
f 404/10/3 400/10/3 399/10/3
f 404/5/3 399/5/3 403/5/3
f 405/10/3 401/10/3 404/10/3
f 406/7/3 403/7/3 402/7/3
f 407/7/3 403/7/3 406/7/3
f 410/10/3 409/10/3 408/10/3
f 411/10/3 409/10/3 410/10/3
f 412/10/4 413/10/4 416/10/4
f 416/10/4 413/10/4 417/10/4
f 414/10/4 415/10/4 418/10/4
f 418/10/4 415/10/4 419/10/4
f 420/10/4 421/10/4 422/10/4
f 422/10/4 421/10/4 423/10/4
f 424/10/4 425/10/4 426/10/4
f 426/10/4 425/10/4 427/10/4
f 428/7/4 429/7/4 430/7/4
f 430/7/4 429/7/4 431/7/4
f 431/5/4 432/5/4 438/5/4
f 432/10/4 433/10/4 439/10/4
f 438/5/4 432/5/4 439/5/4
f 439/10/4 433/10/4 440/10/4
f 434/12/4 435/12/4 441/12/4
f 435/7/4 436/7/4 442/7/4
f 441/12/4 435/12/4 442/12/4
f 436/1/4 437/1/4 443/1/4
f 442/7/4 436/7/4 443/7/4
f 443/1/4 437/1/4 444/1/4
f 445/12/4 446/12/4 449/12/4
f 446/7/4 447/7/4 450/7/4
f 449/12/4 446/12/4 450/12/4
f 447/1/4 448/1/4 451/1/4
f 450/7/4 447/7/4 451/7/4
f 451/1/4 448/1/4 452/1/4
f 453/5/4 454/5/4 457/5/4
f 454/10/4 455/10/4 458/10/4
f 457/5/4 454/5/4 458/5/4
f 458/10/4 455/10/4 459/10/4
f 456/7/4 457/7/4 460/7/4
f 460/7/4 457/7/4 461/7/4
f 462/9/4 463/9/4 464/9/4
f 464/9/4 463/9/4 465/9/4
f 465/9/4 466/9/4 469/9/4
f 469/9/4 466/9/4 470/9/4
f 467/4/4 468/4/4 472/4/4
f 472/4/4 468/4/4 473/4/4
f 467/4/4 472/4/4 474/4/4
f 472/1/4 473/1/4 474/1/4
f 474/1/4 473/1/4 475/1/4
f 467/4/4 474/4/4 476/4/4
f 474/4/4 475/4/4 476/4/4
f 476/4/4 475/4/4 477/4/4
f 467/4/4 476/4/4 478/4/4
f 476/1/4 477/1/4 479/1/4
f 478/4/4 476/4/4 479/4/4
f 479/1/4 477/1/4 480/1/4
f 470/10/4 471/10/4 482/10/4
f 482/10/4 471/10/4 483/10/4
f 481/9/4 482/9/4 486/9/4
f 486/9/4 482/9/4 487/9/4
f 484/10/4 485/10/4 488/10/4
f 485/10/4 486/10/4 488/10/4
f 488/10/4 486/10/4 489/10/4
f 490/10/4 491/10/4 492/10/4
f 492/10/4 491/10/4 493/10/4
f 493/6/4 494/6/4 495/6/4
f 495/6/4 494/6/4 496/6/4
f 496/10/4 497/10/4 501/10/4
f 501/10/4 497/10/4 502/10/4
f 499/10/4 500/10/4 503/10/4
f 498/10/4 499/10/4 503/10/4
f 500/6/4 501/6/4 504/6/4
f 503/10/4 500/10/4 504/10/4
f 504/6/4 501/6/4 505/6/4
f 506/10/4 507/10/4 509/10/4
f 509/10/4 507/10/4 510/10/4
f 508/10/4 509/10/4 512/10/4
f 510/10/4 511/10/4 512/10/4
f 509/10/4 510/10/4 512/10/4
f 512/10/4 511/10/4 513/10/4
f 508/10/4 512/10/4 514/10/4
f 512/6/4 513/6/4 515/6/4
f 514/10/4 512/10/4 515/10/4
f 513/10/4 511/10/4 516/10/4
f 515/6/4 513/6/4 516/6/4
f 516/10/4 511/10/4 517/10/4
f 522/12/5 519/12/5 518/12/5
f 523/12/5 519/12/5 522/12/5
f 524/12/5 521/12/5 520/12/5
f 525/12/5 521/12/5 524/12/5
f 528/4/5 527/4/5 526/4/5
f 529/4/5 527/4/5 528/4/5
f 530/4/5 527/4/5 529/4/5
f 531/4/5 527/4/5 530/4/5
f 533/4/5 530/4/5 529/4/5
f 534/4/5 530/4/5 533/4/5
f 536/4/5 533/4/5 532/4/5
f 536/4/5 535/4/5 534/4/5
f 536/4/5 534/4/5 533/4/5
f 537/4/5 535/4/5 536/4/5
f 542/11/5 539/11/5 538/11/5
f 543/11/5 539/11/5 542/11/5
f 544/11/5 541/11/5 540/11/5
f 545/11/5 541/11/5 544/11/5
f 550/7/5 547/7/5 546/7/5
f 551/7/5 547/7/5 550/7/5
f 552/7/5 549/7/5 548/7/5
f 553/7/5 549/7/5 552/7/5
f 556/11/5 555/11/5 554/11/5
f 557/11/5 555/11/5 556/11/5
f 558/11/5 555/11/5 557/11/5
f 563/5/5 560/5/5 559/5/5
f 564/5/5 560/5/5 563/5/5
f 565/5/5 562/5/5 561/5/5
f 566/5/5 562/5/5 565/5/5
f 571/5/5 568/5/5 567/5/5
f 572/5/5 568/5/5 571/5/5
f 573/5/5 570/5/5 569/5/5
f 574/5/5 570/5/5 573/5/5
f 580/10/5 576/10/5 575/10/5
f 580/10/5 579/10/5 578/10/5
f 580/10/5 578/10/5 577/10/5
f 580/10/5 577/10/5 576/10/5
f 581/10/5 579/10/5 580/10/5
f 586/10/5 583/10/5 582/10/5
f 587/10/5 583/10/5 586/10/5
f 588/10/5 585/10/5 584/10/5
f 589/10/5 585/10/5 588/10/5
f 594/10/5 593/10/5 592/10/5
f 595/10/5 593/10/5 594/10/5
f 596/10/5 591/10/5 590/10/5
f 597/10/5 591/10/5 596/10/5
f 600/10/5 599/10/5 598/10/5
f 605/10/5 600/10/5 598/10/5
f 605/10/5 601/10/5 600/10/5
f 606/10/5 601/10/5 605/10/5
f 607/10/5 601/10/5 606/10/5
f 608/10/5 604/10/5 603/10/5
f 608/10/5 603/10/5 602/10/5
f 609/10/5 604/10/5 608/10/5
f 612/10/5 604/10/5 609/10/5
f 613/10/5 604/10/5 612/10/5
f 614/10/5 611/10/5 610/10/5
f 615/10/5 611/10/5 614/10/5
f 618/10/5 617/10/5 616/10/5
f 619/10/5 617/10/5 618/10/5
f 622/10/5 621/10/5 620/10/5
f 623/10/5 621/10/5 622/10/5
f 630/10/5 625/10/5 624/10/5
f 631/10/5 625/10/5 630/10/5
f 632/10/5 627/10/5 626/10/5
f 633/10/5 627/10/5 632/10/5
f 634/10/5 629/10/5 628/10/5
f 635/10/5 629/10/5 634/10/5
f 638/10/5 632/10/5 631/10/5
f 639/10/5 632/10/5 638/10/5
f 640/10/5 634/10/5 633/10/5
f 641/10/5 634/10/5 640/10/5
f 642/10/5 637/10/5 636/10/5
f 643/10/5 637/10/5 642/10/5
f 648/10/5 645/10/5 644/10/5
f 649/10/5 645/10/5 648/10/5
f 650/10/5 647/10/5 646/10/5
f 651/10/5 647/10/5 650/10/5
f 652/12/6 653/12/6 656/12/6
f 656/12/6 653/12/6 657/12/6
f 654/12/6 655/12/6 658/12/6
f 658/12/6 655/12/6 659/12/6
f 660/11/6 661/11/6 664/11/6
f 664/11/6 661/11/6 665/11/6
f 662/11/6 663/11/6 666/11/6
f 666/11/6 663/11/6 667/11/6
f 668/7/6 669/7/6 672/7/6
f 672/7/6 669/7/6 673/7/6
f 670/7/6 671/7/6 674/7/6
f 674/7/6 671/7/6 675/7/6
f 676/5/6 677/5/6 680/5/6
f 677/11/6 678/11/6 681/11/6
f 680/5/6 677/5/6 681/5/6
f 681/11/6 678/11/6 682/11/6
f 678/5/6 679/5/6 683/5/6
f 682/11/6 678/11/6 683/11/6
f 683/5/6 679/5/6 684/5/6
f 685/10/6 686/10/6 687/10/6
f 687/10/6 686/10/6 688/10/6
f 689/10/6 690/10/6 694/10/6
f 694/10/6 690/10/6 695/10/6
f 691/10/6 692/10/6 696/10/6
f 696/10/6 692/10/6 697/10/6
f 693/10/6 694/10/6 698/10/6
f 693/10/6 698/10/6 699/10/6
f 699/10/6 698/10/6 700/10/6
f 701/10/6 702/10/6 703/10/6
f 703/10/6 702/10/6 704/10/6
f 704/10/6 705/10/6 706/10/6
f 706/10/6 705/10/6 707/10/6
f 708/10/6 709/10/6 711/10/6
f 711/10/6 709/10/6 712/10/6
f 710/6/6 711/6/6 714/6/6
f 714/6/6 711/6/6 715/6/6
f 712/6/6 713/6/6 716/6/6
f 716/6/6 713/6/6 717/6/6
f 719/9/6 720/9/6 721/9/6
f 721/9/6 720/9/6 722/9/6
f 717/10/6 718/10/6 725/10/6
f 725/10/6 718/10/6 726/10/6
f 722/6/6 723/6/6 727/6/6
f 727/6/6 723/6/6 728/6/6
f 724/6/6 725/6/6 729/6/6
f 729/6/6 725/6/6 730/6/6
f 728/10/6 729/10/6 731/10/6
f 731/10/6 729/10/6 732/10/6
f 733/6/6 734/6/6 736/6/6
f 736/6/6 734/6/6 737/6/6
f 735/9/6 736/9/6 739/9/6
f 739/9/6 736/9/6 740/9/6
f 737/9/6 738/9/6 741/9/6
f 741/9/6 738/9/6 742/9/6
f 740/10/6 741/10/6 743/10/6
f 743/10/6 741/10/6 744/10/6
f 745/10/6 746/10/6 747/10/6
f 747/10/6 746/10/6 748/10/6
