# MagicaVoxel @ Ephtracy

# group
g girl2-3

# material
mtllib girl2-3.mtl
usemtl palette

# normals
vn -1 0 0
vn 1 0 0
vn 0 0 1
vn 0 0 -1
vn 0 -1 0
vn 0 1 0

# texcoords
vt 0.0332031 0.5
vt 0.0449219 0.5
vt 0.0878906 0.5
vt 0.841797 0.5
vt 0.958984 0.5
vt 0.962891 0.5
vt 0.970703 0.5
vt 0.994141 0.5

# verts
v -5 5 0.5
v -5 5 -0.5
v -5 6 0.5
v -5 6 -0.5
v -4 4 0.5
v -4 4 -0.5
v -4 5 0.5
v -4 5 -0.5
v -4 6 0.5
v -4 6 -0.5
v -4 7 0.5
v -4 7 -0.5
v -4 12 0.5
v -4 12 -0.5
v -4 13 0.5
v -4 13 -0.5
v -3 2 -0.5
v -3 2 -2.5
v -3 3 0.5
v -3 3 -0.5
v -3 3 -2.5
v -3 4 1.5
v -3 4 0.5
v -3 4 -0.5
v -3 6 -1.5
v -3 6 -2.5
v -3 7 0.5
v -3 7 -0.5
v -3 7 -1.5
v -3 7 -2.5
v -3 8 1.5
v -3 8 0.5
v -3 8 -0.5
v -3 8 -1.5
v -3 9 1.5
v -3 9 0.5
v -3 12 1.5
v -3 12 0.5
v -3 12 -0.5
v -3 12 -1.5
v -3 13 1.5
v -3 13 0.5
v -3 13 -0.5
v -3 13 -1.5
v -3 14 0.5
v -3 14 -0.5
v -2 0 2.5
v -2 0 1.5
v -2 0 -2.5
v -2 1 2.5
v -2 1 1.5
v -2 1 -0.5
v -2 1 -2.5
v -2 2 -0.5
v -2 2 -2.5
v -2 3 2.5
v -2 3 1.5
v -2 3 0.5
v -2 3 -0.5
v -2 3 -1.5
v -2 3 -2.5
v -2 4 1.5
v -2 4 0.5
v -2 4 -1.5
v -2 4 -2.5
v -2 5 2.5
v -2 5 1.5
v -2 5 -1.5
v -2 5 -2.5
v -2 6 2.5
v -2 6 1.5
v -2 6 -1.5
v -2 6 -2.5
v -2 7 2.5
v -2 7 1.5
v -2 7 -0.5
v -2 7 -1.5
v -2 8 1.5
v -2 8 0.5
v -2 8 -0.5
v -2 8 -1.5
v -2 8 -2.5
v -2 9 1.5
v -2 9 0.5
v -2 10 2.5
v -2 10 1.5
v -2 12 2.5
v -2 12 1.5
v -2 12 -1.5
v -2 12 -2.5
v -1 4 -1.5
v -1 4 -2.5
v -1 5 2.5
v -1 5 1.5
v -1 5 0.5
v -1 5 -0.5
v -1 5 -1.5
v -1 5 -2.5
v -1 6 2.5
v -1 6 1.5
v -1 6 0.5
v -1 6 -0.5
v 0 1 2.5
v 0 1 1.5
v 0 2 2.5
v 0 2 1.5
v 0 5 -2.5
v 0 5 -3.5
v 0 6 2.5
v 0 6 1.5
v 0 6 -2.5
v 0 6 -3.5
v 0 7 2.5
v 0 7 1.5
v 1 2 -1.5
v 1 2 -2.5
v 1 3 -1.5
v 1 3 -2.5
v 1 4 -2.5
v 1 4 -3.5
v 1 5 -2.5
v 1 5 -3.5
v 2 2 -2.5
v 2 2 -3.5
v 2 3 -2.5
v 2 3 -3.5
v -2 5 0.5
v -2 5 -0.5
v -2 6 0.5
v -2 6 -0.5
v -2 13 0.5
v -2 13 -0.5
v -2 14 0.5
v -2 14 -0.5
v -1 0 -1.5
v -1 0 -2.5
v -1 1 -1.5
v -1 1 -2.5
v -1 2 -1.5
v -1 2 -2.5
v -1 3 -1.5
v -1 3 -2.5
v -1 6 2.5
v -1 6 1.5
v -1 7 2.5
v -1 7 1.5
v 0 4 2.5
v 0 4 1.5
v 0 5 2.5
v 0 5 1.5
v 1 0 2.5
v 1 0 1.5
v 1 1 2.5
v 1 1 1.5
v 1 5 2.5
v 1 5 1.5
v 1 6 2.5
v 1 6 1.5
v 2 0 1.5
v 2 0 0.5
v 2 0 -0.5
v 2 0 -1.5
v 2 1 2.5
v 2 1 1.5
v 2 1 0.5
v 2 1 -0.5
v 2 1 -1.5
v 2 2 2.5
v 2 2 1.5
v 2 2 0.5
v 2 2 -0.5
v 2 3 2.5
v 2 3 1.5
v 2 3 0.5
v 2 4 2.5
v 2 4 1.5
v 2 4 0.5
v 2 4 -0.5
v 2 4 -1.5
v 2 4 -2.5
v 2 4 -3.5
v 2 5 -1.5
v 2 5 -2.5
v 2 6 2.5
v 2 6 1.5
v 2 6 -0.5
v 2 6 -1.5
v 2 6 -2.5
v 2 6 -3.5
v 2 7 2.5
v 2 7 1.5
v 2 7 -0.5
v 2 7 -1.5
v 2 8 1.5
v 2 8 0.5
v 2 8 -0.5
v 2 8 -1.5
v 2 8 -2.5
v 2 9 1.5
v 2 9 0.5
v 2 10 2.5
v 2 10 1.5
v 2 12 2.5
v 2 12 1.5
v 2 12 -1.5
v 2 12 -2.5
v 2 13 1.5
v 2 13 -1.5
v 3 0 0.5
v 3 0 -0.5
v 3 1 1.5
v 3 1 0.5
v 3 1 -0.5
v 3 1 -2.5
v 3 2 1.5
v 3 2 0.5
v 3 2 -0.5
v 3 2 -1.5
v 3 2 -2.5
v 3 2 -3.5
v 3 3 -1.5
v 3 3 -2.5
v 3 3 -3.5
v 3 4 1.5
v 3 4 0.5
v 3 4 -0.5
v 3 4 -1.5
v 3 5 -1.5
v 3 5 -2.5
v 3 6 -1.5
v 3 6 -2.5
v 3 7 0.5
v 3 7 -0.5
v 3 7 -1.5
v 3 7 -2.5
v 3 8 1.5
v 3 8 0.5
v 3 8 -0.5
v 3 8 -1.5
v 3 9 1.5
v 3 9 0.5
v 3 12 1.5
v 3 12 -1.5
v 4 4 0.5
v 4 4 -0.5
v 4 5 0.5
v 4 5 -0.5
v 4 6 0.5
v 4 6 -0.5
v 4 7 0.5
v 4 7 -0.5
v 5 5 0.5
v 5 5 -0.5
v 5 6 0.5
v 5 6 -0.5
v -2 0 2.5
v -2 1 2.5
v -2 3 2.5
v -2 5 2.5
v -2 6 2.5
v -2 7 2.5
v -2 10 2.5
v -2 12 2.5
v -1 5 2.5
v -1 6 2.5
v -1 7 2.5
v 0 1 2.5
v 0 2 2.5
v 0 4 2.5
v 0 5 2.5
v 0 6 2.5
v 0 7 2.5
v 1 0 2.5
v 1 1 2.5
v 1 2 2.5
v 1 5 2.5
v 1 6 2.5
v 2 1 2.5
v 2 2 2.5
v 2 3 2.5
v 2 4 2.5
v 2 6 2.5
v 2 7 2.5
v 2 10 2.5
v 2 12 2.5
v -3 4 1.5
v -3 8 1.5
v -3 9 1.5
v -3 12 1.5
v -3 13 1.5
v -2 1 1.5
v -2 3 1.5
v -2 4 1.5
v -2 5 1.5
v -2 6 1.5
v -2 7 1.5
v -2 8 1.5
v -2 9 1.5
v -2 10 1.5
v -2 12 1.5
v -2 13 1.5
v -1 5 1.5
v -1 6 1.5
v -1 7 1.5
v -1 8 1.5
v -1 9 1.5
v -1 10 1.5
v 0 1 1.5
v 0 2 1.5
v 0 4 1.5
v 0 5 1.5
v 0 6 1.5
v 0 7 1.5
v 0 8 1.5
v 0 9 1.5
v 1 0 1.5
v 1 1 1.5
v 1 2 1.5
v 1 5 1.5
v 1 6 1.5
v 1 7 1.5
v 1 8 1.5
v 1 9 1.5
v 1 10 1.5
v 2 0 1.5
v 2 1 1.5
v 2 2 1.5
v 2 3 1.5
v 2 4 1.5
v 2 6 1.5
v 2 7 1.5
v 2 8 1.5
v 2 9 1.5
v 2 10 1.5
v 2 12 1.5
v 2 13 1.5
v 3 1 1.5
v 3 2 1.5
v 3 4 1.5
v 3 8 1.5
v 3 9 1.5
v 3 12 1.5
v -5 5 0.5
v -5 6 0.5
v -4 4 0.5
v -4 5 0.5
v -4 6 0.5
v -4 7 0.5
v -4 12 0.5
v -4 13 0.5
v -3 3 0.5
v -3 4 0.5
v -3 7 0.5
v -3 8 0.5
v -3 9 0.5
v -3 12 0.5
v -3 13 0.5
v -3 14 0.5
v -2 3 0.5
v -2 4 0.5
v -2 8 0.5
v -2 9 0.5
v -2 13 0.5
v -2 14 0.5
v 2 0 0.5
v 2 1 0.5
v 2 2 0.5
v 2 3 0.5
v 2 4 0.5
v 2 8 0.5
v 2 9 0.5
v 3 0 0.5
v 3 1 0.5
v 3 2 0.5
v 3 4 0.5
v 3 7 0.5
v 3 8 0.5
v 3 9 0.5
v 4 4 0.5
v 4 5 0.5
v 4 6 0.5
v 4 7 0.5
v 5 5 0.5
v 5 6 0.5
v -3 2 -0.5
v -3 3 -0.5
v -2 2 -0.5
v -2 3 -0.5
v -2 5 -0.5
v -2 6 -0.5
v -1 5 -0.5
v -1 6 -0.5
v 2 1 -0.5
v 2 2 -0.5
v 3 1 -0.5
v 3 2 -0.5
v -3 6 -1.5
v -3 7 -1.5
v -2 6 -1.5
v -2 7 -1.5
v 2 4 -1.5
v 2 5 -1.5
v 2 6 -1.5
v 2 7 -1.5
v 3 4 -1.5
v 3 5 -1.5
v 3 6 -1.5
v 3 7 -1.5
v -2 5 0.5
v -2 6 0.5
v -1 5 0.5
v -1 6 0.5
v 2 1 0.5
v 2 2 0.5
v 3 1 0.5
v 3 2 0.5
v -5 5 -0.5
v -5 6 -0.5
v -4 4 -0.5
v -4 5 -0.5
v -4 6 -0.5
v -4 7 -0.5
v -4 12 -0.5
v -4 13 -0.5
v -3 3 -0.5
v -3 4 -0.5
v -3 7 -0.5
v -3 8 -0.5
v -3 12 -0.5
v -3 13 -0.5
v -3 14 -0.5
v -2 3 -0.5
v -2 7 -0.5
v -2 8 -0.5
v -2 13 -0.5
v -2 14 -0.5
v 2 0 -0.5
v 2 1 -0.5
v 2 4 -0.5
v 2 6 -0.5
v 2 7 -0.5
v 2 8 -0.5
v 3 0 -0.5
v 3 1 -0.5
v 3 4 -0.5
v 3 7 -0.5
v 3 8 -0.5
v 4 4 -0.5
v 4 5 -0.5
v 4 6 -0.5
v 4 7 -0.5
v 5 5 -0.5
v 5 6 -0.5
v -3 8 -1.5
v -3 12 -1.5
v -3 13 -1.5
v -2 4 -1.5
v -2 5 -1.5
v -2 7 -1.5
v -2 8 -1.5
v -2 12 -1.5
v -2 13 -1.5
v -1 0 -1.5
v -1 1 -1.5
v -1 2 -1.5
v -1 3 -1.5
v -1 4 -1.5
v -1 5 -1.5
v -1 7 -1.5
v -1 8 -1.5
v 0 1 -1.5
v 0 2 -1.5
v 0 3 -1.5
v 1 2 -1.5
v 1 3 -1.5
v 1 7 -1.5
v 1 8 -1.5
v 2 0 -1.5
v 2 1 -1.5
v 2 7 -1.5
v 2 8 -1.5
v 2 12 -1.5
v 2 13 -1.5
v 3 8 -1.5
v 3 12 -1.5
v -3 2 -2.5
v -3 3 -2.5
v -3 6 -2.5
v -3 7 -2.5
v -2 0 -2.5
v -2 1 -2.5
v -2 2 -2.5
v -2 3 -2.5
v -2 4 -2.5
v -2 5 -2.5
v -2 6 -2.5
v -2 7 -2.5
v -2 8 -2.5
v -2 12 -2.5
v -1 0 -2.5
v -1 1 -2.5
v -1 2 -2.5
v -1 3 -2.5
v -1 4 -2.5
v -1 5 -2.5
v -1 6 -2.5
v 0 1 -2.5
v 0 2 -2.5
v 0 3 -2.5
v 0 5 -2.5
v 0 6 -2.5
v 1 2 -2.5
v 1 3 -2.5
v 1 4 -2.5
v 1 5 -2.5
v 2 2 -2.5
v 2 3 -2.5
v 2 4 -2.5
v 2 5 -2.5
v 2 6 -2.5
v 2 7 -2.5
v 2 8 -2.5
v 2 12 -2.5
v 3 1 -2.5
v 3 2 -2.5
v 3 3 -2.5
v 3 5 -2.5
v 3 6 -2.5
v 3 7 -2.5
v 0 5 -3.5
v 0 6 -3.5
v 1 4 -3.5
v 1 5 -3.5
v 2 2 -3.5
v 2 3 -3.5
v 2 4 -3.5
v 2 6 -3.5
v 3 2 -3.5
v 3 3 -3.5
v -2 0 2.5
v 1 0 2.5
v -2 0 1.5
v 1 0 1.5
v 2 0 1.5
v 2 0 0.5
v 3 0 0.5
v 2 0 -0.5
v 3 0 -0.5
v -1 0 -1.5
v 2 0 -1.5
v -2 0 -2.5
v -1 0 -2.5
v 1 1 2.5
v 2 1 2.5
v 1 1 1.5
v 2 1 1.5
v 3 1 1.5
v 2 1 0.5
v 3 1 0.5
v 2 1 -0.5
v 3 1 -0.5
v -1 1 -1.5
v 0 1 -1.5
v 2 1 -1.5
v -1 1 -2.5
v 0 1 -2.5
v 3 1 -2.5
v 2 2 0.5
v 3 2 0.5
v -3 2 -0.5
v -2 2 -0.5
v 2 2 -0.5
v 3 2 -0.5
v -3 2 -2.5
v -2 2 -2.5
v 2 2 -2.5
v 3 2 -2.5
v 2 2 -3.5
v 3 2 -3.5
v -2 3 2.5
v 2 3 2.5
v -2 3 1.5
v 2 3 1.5
v -3 3 0.5
v -2 3 0.5
v -3 3 -0.5
v -2 3 -0.5
v -1 3 -1.5
v 0 3 -1.5
v 1 3 -1.5
v -1 3 -2.5
v 0 3 -2.5
v 1 3 -2.5
v -3 4 1.5
v -2 4 1.5
v 2 4 1.5
v 3 4 1.5
v -4 4 0.5
v -3 4 0.5
v -2 4 0.5
v 2 4 0.5
v 3 4 0.5
v 4 4 0.5
v -4 4 -0.5
v -3 4 -0.5
v 3 4 -0.5
v 4 4 -0.5
v 1 4 -2.5
v 2 4 -2.5
v 1 4 -3.5
v 2 4 -3.5
v 0 5 2.5
v 1 5 2.5
v 0 5 1.5
v 1 5 1.5
v -5 5 0.5
v -4 5 0.5
v 4 5 0.5
v 5 5 0.5
v -5 5 -0.5
v -4 5 -0.5
v 4 5 -0.5
v 5 5 -0.5
v -2 5 -1.5
v -1 5 -1.5
v -2 5 -2.5
v -1 5 -2.5
v 0 5 -2.5
v 1 5 -2.5
v 0 5 -3.5
v 1 5 -3.5
v -2 6 2.5
v -1 6 2.5
v 1 6 2.5
v 2 6 2.5
v -2 6 1.5
v -1 6 1.5
v 1 6 1.5
v 2 6 1.5
v -2 6 0.5
v -1 6 0.5
v -2 6 -0.5
v -1 6 -0.5
v -3 6 -1.5
v -2 6 -1.5
v 2 6 -1.5
v 3 6 -1.5
v -3 6 -2.5
v -2 6 -2.5
v 2 6 -2.5
v 3 6 -2.5
v -3 8 -0.5
v -2 8 -0.5
v 2 8 -0.5
v 3 8 -0.5
v -3 8 -1.5
v -2 8 -1.5
v -1 8 -1.5
v 1 8 -1.5
v 2 8 -1.5
v 3 8 -1.5
v -2 8 -2.5
v 2 8 -2.5
v -3 9 1.5
v -2 9 1.5
v 2 9 1.5
v 3 9 1.5
v -3 9 0.5
v -2 9 0.5
v 2 9 0.5
v 3 9 0.5
v -2 10 2.5
v 2 10 2.5
v -2 10 1.5
v -1 10 1.5
v 1 10 1.5
v 2 10 1.5
v -4 12 0.5
v -3 12 0.5
v -4 12 -0.5
v -3 12 -0.5
v -2 1 2.5
v 0 1 2.5
v -2 1 1.5
v 0 1 1.5
v 2 1 0.5
v 3 1 0.5
v 2 1 -0.5
v 3 1 -0.5
v 0 2 2.5
v 1 2 2.5
v 2 2 2.5
v 0 2 1.5
v 1 2 1.5
v 2 2 1.5
v 3 2 1.5
v 2 2 0.5
v 3 2 0.5
v -1 2 -1.5
v 0 2 -1.5
v 1 2 -1.5
v -1 2 -2.5
v 0 2 -2.5
v 1 2 -2.5
v -3 3 -0.5
v -2 3 -0.5
v -2 3 -1.5
v -3 3 -2.5
v -2 3 -2.5
v 2 3 -2.5
v 3 3 -2.5
v 2 3 -3.5
v 3 3 -3.5
v 0 4 2.5
v 2 4 2.5
v 0 4 1.5
v 2 4 1.5
v 2 4 -0.5
v 3 4 -0.5
v -2 4 -1.5
v -1 4 -1.5
v 2 4 -1.5
v 3 4 -1.5
v -2 4 -2.5
v -1 4 -2.5
v -2 5 2.5
v -1 5 2.5
v -2 5 1.5
v -1 5 1.5
v -2 5 0.5
v -1 5 0.5
v -2 5 -0.5
v -1 5 -0.5
v 2 5 -1.5
v 3 5 -1.5
v 2 5 -2.5
v 3 5 -2.5
v -1 6 2.5
v 0 6 2.5
v -1 6 1.5
v 0 6 1.5
v -5 6 0.5
v -4 6 0.5
v 4 6 0.5
v 5 6 0.5
v -5 6 -0.5
v -4 6 -0.5
v 4 6 -0.5
v 5 6 -0.5
v 0 6 -2.5
v 2 6 -2.5
v 0 6 -3.5
v 2 6 -3.5
v -2 7 2.5
v -1 7 2.5
v 0 7 2.5
v 2 7 2.5
v -2 7 1.5
v -1 7 1.5
v 0 7 1.5
v 1 7 1.5
v 2 7 1.5
v -4 7 0.5
v -3 7 0.5
v 3 7 0.5
v 4 7 0.5
v -4 7 -0.5
v -3 7 -0.5
v 3 7 -0.5
v 4 7 -0.5
v -3 7 -1.5
v -2 7 -1.5
v -1 7 -1.5
v 1 7 -1.5
v 2 7 -1.5
v 3 7 -1.5
v -3 7 -2.5
v -2 7 -2.5
v 2 7 -2.5
v 3 7 -2.5
v -3 8 1.5
v -2 8 1.5
v 2 8 1.5
v 3 8 1.5
v -3 8 0.5
v -2 8 0.5
v 2 8 0.5
v 3 8 0.5
v -2 12 2.5
v 2 12 2.5
v -2 12 1.5
v 2 12 1.5
v 3 12 1.5
v -2 12 -1.5
v 2 12 -1.5
v 3 12 -1.5
v -2 12 -2.5
v 2 12 -2.5
v -3 13 1.5
v -2 13 1.5
v 2 13 1.5
v -4 13 0.5
v -3 13 0.5
v -2 13 0.5
v -4 13 -0.5
v -3 13 -0.5
v -2 13 -0.5
v -3 13 -1.5
v -2 13 -1.5
v 2 13 -1.5
v -3 14 0.5
v -2 14 0.5
v -3 14 -0.5
v -2 14 -0.5

# faces
f 3/4/1 2/4/1 1/4/1
f 4/4/1 2/4/1 3/4/1
f 7/4/1 6/4/1 5/4/1
f 8/4/1 6/4/1 7/4/1
f 11/4/1 10/4/1 9/4/1
f 12/4/1 10/4/1 11/4/1
f 15/4/1 14/4/1 13/4/1
f 16/4/1 14/4/1 15/4/1
f 20/4/1 18/4/1 17/4/1
f 21/4/1 18/4/1 20/4/1
f 23/4/1 20/4/1 19/4/1
f 24/4/1 20/4/1 23/4/1
f 27/1/1 23/1/1 22/1/1
f 29/8/1 26/8/1 25/8/1
f 30/8/1 26/8/1 29/8/1
f 31/1/1 27/1/1 22/1/1
f 32/4/1 28/4/1 27/4/1
f 32/1/1 27/1/1 31/1/1
f 33/4/1 28/4/1 32/4/1
f 36/8/1 34/8/1 33/8/1
f 36/8/1 33/8/1 32/8/1
f 37/8/1 36/8/1 35/8/1
f 38/8/1 34/8/1 36/8/1
f 38/8/1 36/8/1 37/8/1
f 39/8/1 34/8/1 38/8/1
f 40/8/1 34/8/1 39/8/1
f 41/4/1 38/4/1 37/4/1
f 42/4/1 38/4/1 41/4/1
f 43/4/1 40/4/1 39/4/1
f 44/4/1 40/4/1 43/4/1
f 45/4/1 43/4/1 42/4/1
f 46/4/1 43/4/1 45/4/1
f 50/4/1 48/4/1 47/4/1
f 51/8/1 49/8/1 48/8/1
f 51/4/1 48/4/1 50/4/1
f 52/8/1 49/8/1 51/8/1
f 53/8/1 49/8/1 52/8/1
f 54/8/1 52/8/1 51/8/1
f 54/4/1 53/4/1 52/4/1
f 55/4/1 53/4/1 54/4/1
f 57/8/1 54/8/1 51/8/1
f 58/8/1 54/8/1 57/8/1
f 59/8/1 54/8/1 58/8/1
f 62/4/1 57/4/1 56/4/1
f 62/8/1 58/8/1 57/8/1
f 63/8/1 58/8/1 62/8/1
f 64/4/1 61/4/1 60/4/1
f 64/8/1 60/8/1 59/8/1
f 65/4/1 61/4/1 64/4/1
f 66/4/1 62/4/1 56/4/1
f 67/4/1 62/4/1 66/4/1
f 68/8/1 64/8/1 59/8/1
f 72/4/1 69/4/1 68/4/1
f 72/8/1 68/8/1 59/8/1
f 73/4/1 69/4/1 72/4/1
f 74/4/1 71/4/1 70/4/1
f 75/4/1 71/4/1 74/4/1
f 76/8/1 72/8/1 59/8/1
f 77/8/1 72/8/1 76/8/1
f 80/4/1 77/4/1 76/4/1
f 81/4/1 77/4/1 80/4/1
f 83/1/1 79/1/1 78/1/1
f 84/1/1 79/1/1 83/1/1
f 87/8/1 86/8/1 85/8/1
f 88/8/1 86/8/1 87/8/1
f 89/8/1 82/8/1 81/8/1
f 90/8/1 82/8/1 89/8/1
f 97/4/1 92/4/1 91/4/1
f 98/4/1 92/4/1 97/4/1
f 99/4/1 94/4/1 93/4/1
f 100/4/1 94/4/1 99/4/1
f 101/5/1 96/5/1 95/5/1
f 102/5/1 96/5/1 101/5/1
f 105/4/1 104/4/1 103/4/1
f 106/4/1 104/4/1 105/4/1
f 111/4/1 108/4/1 107/4/1
f 112/4/1 108/4/1 111/4/1
f 113/4/1 110/4/1 109/4/1
f 114/4/1 110/4/1 113/4/1
f 117/4/1 116/4/1 115/4/1
f 118/4/1 116/4/1 117/4/1
f 121/4/1 120/4/1 119/4/1
f 122/4/1 120/4/1 121/4/1
f 125/4/1 124/4/1 123/4/1
f 126/4/1 124/4/1 125/4/1
f 127/4/2 128/4/2 129/4/2
f 129/4/2 128/4/2 130/4/2
f 131/4/2 132/4/2 133/4/2
f 133/4/2 132/4/2 134/4/2
f 135/8/2 136/8/2 137/8/2
f 137/8/2 136/8/2 138/8/2
f 139/4/2 140/4/2 141/4/2
f 141/4/2 140/4/2 142/4/2
f 143/4/2 144/4/2 145/4/2
f 145/4/2 144/4/2 146/4/2
f 147/4/2 148/4/2 149/4/2
f 149/4/2 148/4/2 150/4/2
f 151/4/2 152/4/2 153/4/2
f 153/4/2 152/4/2 154/4/2
f 155/4/2 156/4/2 157/4/2
f 157/4/2 156/4/2 158/4/2
f 159/8/2 160/8/2 164/8/2
f 164/8/2 160/8/2 165/8/2
f 161/8/2 162/8/2 166/8/2
f 166/8/2 162/8/2 167/8/2
f 163/8/2 164/8/2 168/8/2
f 168/8/2 164/8/2 169/8/2
f 165/6/2 166/6/2 170/6/2
f 170/6/2 166/6/2 171/6/2
f 169/8/2 170/8/2 173/8/2
f 173/8/2 170/8/2 174/8/2
f 172/4/2 173/4/2 175/4/2
f 173/5/2 174/5/2 176/5/2
f 175/4/2 173/4/2 176/4/2
f 176/5/2 174/5/2 177/5/2
f 178/8/2 179/8/2 182/8/2
f 180/4/2 181/4/2 183/4/2
f 178/8/2 182/8/2 186/8/2
f 182/4/2 183/4/2 187/4/2
f 186/8/2 182/8/2 187/8/2
f 183/4/2 181/4/2 188/4/2
f 187/4/2 183/4/2 188/4/2
f 188/4/2 181/4/2 189/4/2
f 184/4/2 185/4/2 190/4/2
f 190/4/2 185/4/2 191/4/2
f 186/5/2 187/5/2 192/5/2
f 192/5/2 187/5/2 193/5/2
f 192/4/2 193/4/2 196/4/2
f 196/4/2 193/4/2 197/4/2
f 194/1/2 195/1/2 199/1/2
f 199/1/2 195/1/2 200/1/2
f 201/8/2 202/8/2 203/8/2
f 203/8/2 202/8/2 204/8/2
f 197/8/2 198/8/2 205/8/2
f 205/8/2 198/8/2 206/8/2
f 204/8/2 205/8/2 207/8/2
f 207/8/2 205/8/2 208/8/2
f 209/4/2 210/4/2 212/4/2
f 212/4/2 210/4/2 213/4/2
f 211/4/2 212/4/2 215/4/2
f 215/4/2 212/4/2 216/4/2
f 213/4/2 214/4/2 217/4/2
f 217/4/2 214/4/2 218/4/2
f 218/4/2 214/4/2 219/4/2
f 216/4/2 217/4/2 221/4/2
f 218/8/2 219/8/2 221/8/2
f 217/4/2 218/4/2 221/4/2
f 219/4/2 220/4/2 222/4/2
f 221/8/2 219/8/2 222/8/2
f 222/4/2 220/4/2 223/4/2
f 216/4/2 221/4/2 225/4/2
f 221/4/2 222/4/2 225/4/2
f 225/4/2 222/4/2 226/4/2
f 226/4/2 222/4/2 227/4/2
f 227/4/2 222/4/2 228/4/2
f 228/4/2 222/4/2 229/4/2
f 224/1/2 225/1/2 232/1/2
f 230/8/2 231/8/2 234/8/2
f 234/8/2 231/8/2 235/8/2
f 224/1/2 232/1/2 236/1/2
f 232/4/2 233/4/2 237/4/2
f 236/1/2 232/1/2 237/1/2
f 237/4/2 233/4/2 238/4/2
f 238/8/2 239/8/2 241/8/2
f 237/8/2 238/8/2 241/8/2
f 240/8/2 241/8/2 242/8/2
f 241/8/2 239/8/2 243/8/2
f 242/8/2 241/8/2 243/8/2
f 244/4/2 245/4/2 246/4/2
f 246/4/2 245/4/2 247/4/2
f 248/4/2 249/4/2 250/4/2
f 250/4/2 249/4/2 251/4/2
f 252/4/2 253/4/2 254/4/2
f 254/4/2 253/4/2 255/4/2
f 264/4/3 259/4/3 258/4/3
f 265/4/3 261/4/3 260/4/3
f 266/4/3 261/4/3 265/4/3
f 267/4/3 257/4/3 256/4/3
f 269/4/3 264/4/3 258/4/3
f 269/4/3 265/4/3 264/4/3
f 270/4/3 265/4/3 269/4/3
f 271/4/3 265/4/3 270/4/3
f 273/4/3 268/4/3 267/4/3
f 273/4/3 267/4/3 256/4/3
f 274/4/3 268/4/3 273/4/3
f 275/4/3 268/4/3 274/4/3
f 276/4/3 272/4/3 271/4/3
f 276/4/3 271/4/3 270/4/3
f 277/4/3 272/4/3 276/4/3
f 278/8/3 275/8/3 274/8/3
f 279/8/3 275/8/3 278/8/3
f 280/4/3 269/4/3 258/4/3
f 281/4/3 269/4/3 280/4/3
f 282/4/3 272/4/3 277/4/3
f 283/4/3 272/4/3 282/4/3
f 284/8/3 263/8/3 262/8/3
f 285/8/3 263/8/3 284/8/3
f 293/1/3 287/1/3 286/1/3
f 294/1/3 287/1/3 293/1/3
f 295/1/3 287/1/3 294/1/3
f 296/1/3 287/1/3 295/1/3
f 297/1/3 287/1/3 296/1/3
f 298/8/3 289/8/3 288/8/3
f 299/8/3 289/8/3 298/8/3
f 300/4/3 290/4/3 289/4/3
f 300/8/3 289/8/3 299/8/3
f 301/4/3 290/4/3 300/4/3
f 302/8/3 295/8/3 294/8/3
f 303/8/3 295/8/3 302/8/3
f 304/8/3 297/8/3 296/8/3
f 305/1/3 298/1/3 297/1/3
f 305/8/3 297/8/3 304/8/3
f 306/4/3 299/4/3 298/4/3
f 306/1/3 298/1/3 305/1/3
f 307/4/3 299/4/3 306/4/3
f 308/8/3 292/8/3 291/8/3
f 309/8/3 292/8/3 308/8/3
f 312/8/3 304/8/3 303/8/3
f 313/1/3 307/1/3 306/1/3
f 313/8/3 304/8/3 312/8/3
f 313/1/3 305/1/3 304/1/3
f 313/1/3 306/1/3 305/1/3
f 314/1/3 307/1/3 313/1/3
f 315/1/3 307/1/3 314/1/3
f 318/8/3 292/8/3 309/8/3
f 319/8/3 311/8/3 310/8/3
f 321/1/3 314/1/3 313/1/3
f 322/3/3 315/3/3 314/3/3
f 322/1/3 314/1/3 321/1/3
f 323/1/3 307/1/3 315/1/3
f 323/3/3 315/3/3 322/3/3
f 324/1/3 307/1/3 323/1/3
f 325/8/3 317/8/3 316/8/3
f 326/8/3 317/8/3 325/8/3
f 327/8/3 292/8/3 318/8/3
f 328/8/3 292/8/3 327/8/3
f 329/8/3 320/8/3 319/8/3
f 329/8/3 319/8/3 310/8/3
f 330/8/3 320/8/3 329/8/3
f 331/8/3 322/8/3 321/8/3
f 332/1/3 323/1/3 322/1/3
f 332/8/3 322/8/3 331/8/3
f 333/4/3 324/4/3 323/4/3
f 333/1/3 323/1/3 332/1/3
f 334/4/3 324/4/3 333/4/3
f 335/8/3 301/8/3 300/8/3
f 336/8/3 301/8/3 335/8/3
f 337/4/3 327/4/3 326/4/3
f 338/4/3 327/4/3 337/4/3
f 339/1/3 330/1/3 329/1/3
f 339/1/3 331/1/3 330/1/3
f 339/1/3 332/1/3 331/1/3
f 340/1/3 332/1/3 339/1/3
f 341/8/3 334/8/3 333/8/3
f 341/8/3 335/8/3 334/8/3
f 342/8/3 335/8/3 341/8/3
f 346/4/3 344/4/3 343/4/3
f 347/4/3 344/4/3 346/4/3
f 352/4/3 346/4/3 345/4/3
f 352/4/3 347/4/3 346/4/3
f 352/4/3 348/4/3 347/4/3
f 353/4/3 348/4/3 352/4/3
f 356/4/3 350/4/3 349/4/3
f 357/4/3 350/4/3 356/4/3
f 359/4/3 352/4/3 351/4/3
f 360/4/3 352/4/3 359/4/3
f 361/8/3 355/8/3 354/8/3
f 362/8/3 355/8/3 361/8/3
f 363/4/3 358/4/3 357/4/3
f 364/4/3 358/4/3 363/4/3
f 372/4/3 366/4/3 365/4/3
f 373/4/3 366/4/3 372/4/3
f 374/4/3 368/4/3 367/4/3
f 374/4/3 369/4/3 368/4/3
f 375/4/3 369/4/3 374/4/3
f 377/8/3 371/8/3 370/8/3
f 378/8/3 371/8/3 377/8/3
f 379/4/3 376/4/3 375/4/3
f 380/4/3 376/4/3 379/4/3
f 381/4/3 376/4/3 380/4/3
f 382/4/3 376/4/3 381/4/3
f 383/4/3 381/4/3 380/4/3
f 384/4/3 381/4/3 383/4/3
f 387/4/3 386/4/3 385/4/3
f 388/4/3 386/4/3 387/4/3
f 391/8/3 390/8/3 389/8/3
f 392/8/3 390/8/3 391/8/3
f 395/4/3 394/4/3 393/4/3
f 396/4/3 394/4/3 395/4/3
f 399/8/3 398/8/3 397/8/3
f 400/8/3 398/8/3 399/8/3
f 405/4/3 402/4/3 401/4/3
f 406/4/3 402/4/3 405/4/3
f 407/8/3 404/8/3 403/8/3
f 408/8/3 404/8/3 407/8/3
f 409/8/4 410/8/4 411/8/4
f 411/8/4 410/8/4 412/8/4
f 413/4/4 414/4/4 415/4/4
f 415/4/4 414/4/4 416/4/4
f 417/4/4 418/4/4 420/4/4
f 420/4/4 418/4/4 421/4/4
f 419/4/4 420/4/4 426/4/4
f 420/4/4 421/4/4 426/4/4
f 421/4/4 422/4/4 426/4/4
f 426/4/4 422/4/4 427/4/4
f 423/4/4 424/4/4 429/4/4
f 429/4/4 424/4/4 430/4/4
f 427/4/4 428/4/4 432/4/4
f 425/4/4 426/4/4 432/4/4
f 426/4/4 427/4/4 432/4/4
f 432/4/4 428/4/4 433/4/4
f 433/4/4 428/4/4 434/4/4
f 430/4/4 431/4/4 435/4/4
f 435/4/4 431/4/4 436/4/4
f 437/4/4 438/4/4 443/4/4
f 443/4/4 438/4/4 444/4/4
f 441/4/4 442/4/4 445/4/4
f 439/4/4 440/4/4 445/4/4
f 440/4/4 441/4/4 445/4/4
f 445/4/4 442/4/4 446/4/4
f 446/4/4 442/4/4 447/4/4
f 445/4/4 446/4/4 448/4/4
f 448/4/4 446/4/4 449/4/4
f 449/4/4 446/4/4 450/4/4
f 450/4/4 446/4/4 451/4/4
f 449/4/4 450/4/4 452/4/4
f 452/4/4 450/4/4 453/4/4
f 454/8/4 455/8/4 460/8/4
f 455/4/4 456/4/4 461/4/4
f 460/8/4 455/8/4 461/8/4
f 461/4/4 456/4/4 462/4/4
f 457/8/4 458/8/4 467/8/4
f 467/8/4 458/8/4 468/8/4
f 459/4/4 460/4/4 469/4/4
f 469/4/4 460/4/4 470/4/4
f 463/8/4 464/8/4 471/8/4
f 465/4/4 466/4/4 472/4/4
f 472/4/4 466/4/4 473/4/4
f 472/4/4 473/4/4 474/4/4
f 474/4/4 473/4/4 475/4/4
f 469/8/4 470/8/4 476/8/4
f 476/8/4 470/8/4 477/8/4
f 463/8/4 471/8/4 478/8/4
f 478/8/4 471/8/4 479/8/4
f 476/4/4 477/4/4 480/4/4
f 480/4/4 477/4/4 481/4/4
f 461/8/4 462/8/4 482/8/4
f 482/8/4 462/8/4 483/8/4
f 481/8/4 482/8/4 484/8/4
f 484/8/4 482/8/4 485/8/4
f 486/4/4 487/4/4 492/4/4
f 492/4/4 487/4/4 493/4/4
f 488/8/4 489/8/4 496/8/4
f 496/8/4 489/8/4 497/8/4
f 490/8/4 491/8/4 500/8/4
f 493/4/4 494/4/4 501/4/4
f 500/8/4 491/8/4 501/8/4
f 491/4/4 492/4/4 501/4/4
f 492/4/4 493/4/4 501/4/4
f 501/4/4 494/4/4 502/4/4
f 502/4/4 494/4/4 503/4/4
f 503/4/4 494/4/4 504/4/4
f 496/4/4 497/4/4 505/4/4
f 495/4/4 496/4/4 505/4/4
f 505/4/4 497/4/4 506/4/4
f 501/8/4 502/8/4 507/8/4
f 507/8/4 502/8/4 508/8/4
f 503/4/4 504/4/4 509/4/4
f 504/4/4 505/4/4 509/4/4
f 505/8/4 506/8/4 510/8/4
f 509/4/4 505/4/4 510/4/4
f 506/4/4 497/4/4 511/4/4
f 510/8/4 506/8/4 511/8/4
f 507/4/4 508/4/4 512/4/4
f 509/8/4 510/8/4 513/8/4
f 513/8/4 510/8/4 514/8/4
f 514/8/4 510/8/4 515/8/4
f 507/4/4 512/4/4 516/4/4
f 512/4/4 513/4/4 516/4/4
f 513/4/4 514/4/4 516/4/4
f 516/4/4 514/4/4 517/4/4
f 517/4/4 514/4/4 518/4/4
f 511/4/4 497/4/4 520/4/4
f 520/4/4 497/4/4 521/4/4
f 498/8/4 499/8/4 522/8/4
f 522/8/4 499/8/4 523/8/4
f 507/4/4 516/4/4 524/4/4
f 524/4/4 516/4/4 525/4/4
f 518/4/4 519/4/4 526/4/4
f 517/4/4 518/4/4 526/4/4
f 526/4/4 519/4/4 527/4/4
f 520/8/4 521/8/4 528/8/4
f 528/8/4 521/8/4 529/8/4
f 530/4/4 531/4/4 533/4/4
f 532/4/4 533/4/4 536/4/4
f 533/4/4 531/4/4 537/4/4
f 536/4/4 533/4/4 537/4/4
f 534/4/4 535/4/4 538/4/4
f 538/4/4 535/4/4 539/4/4
f 542/4/5 541/4/5 540/4/5
f 543/4/5 541/4/5 542/4/5
f 545/8/5 543/8/5 542/8/5
f 545/8/5 544/8/5 543/8/5
f 547/8/5 545/8/5 542/8/5
f 547/4/5 546/4/5 545/4/5
f 548/4/5 546/4/5 547/4/5
f 549/8/5 547/8/5 542/8/5
f 550/8/5 547/8/5 549/8/5
f 551/8/5 549/8/5 542/8/5
f 552/8/5 549/8/5 551/8/5
f 555/8/5 554/8/5 553/8/5
f 556/8/5 554/8/5 555/8/5
f 558/4/5 557/4/5 556/4/5
f 559/4/5 557/4/5 558/4/5
f 564/4/5 561/4/5 560/4/5
f 565/8/5 563/8/5 562/8/5
f 566/4/5 564/4/5 563/4/5
f 566/8/5 563/8/5 565/8/5
f 567/4/5 561/4/5 564/4/5
f 567/4/5 564/4/5 566/4/5
f 572/4/5 569/4/5 568/4/5
f 573/4/5 569/4/5 572/4/5
f 574/4/5 571/4/5 570/4/5
f 575/4/5 571/4/5 574/4/5
f 578/4/5 577/4/5 576/4/5
f 579/4/5 577/4/5 578/4/5
f 582/4/5 581/4/5 580/4/5
f 583/4/5 581/4/5 582/4/5
f 586/4/5 585/4/5 584/4/5
f 587/4/5 585/4/5 586/4/5
f 591/4/5 589/4/5 588/4/5
f 592/8/5 590/8/5 589/8/5
f 592/4/5 589/4/5 591/4/5
f 593/8/5 590/8/5 592/8/5
f 599/1/5 595/1/5 594/1/5
f 600/1/5 595/1/5 599/1/5
f 601/1/5 597/1/5 596/1/5
f 602/1/5 597/1/5 601/1/5
f 604/4/5 599/4/5 598/4/5
f 605/4/5 599/4/5 604/4/5
f 606/4/5 603/4/5 602/4/5
f 607/4/5 603/4/5 606/4/5
f 610/4/5 609/4/5 608/4/5
f 611/4/5 609/4/5 610/4/5
f 614/4/5 613/4/5 612/4/5
f 615/4/5 613/4/5 614/4/5
f 620/4/5 617/4/5 616/4/5
f 621/4/5 617/4/5 620/4/5
f 622/4/5 619/4/5 618/4/5
f 623/4/5 619/4/5 622/4/5
f 626/4/5 625/4/5 624/4/5
f 627/4/5 625/4/5 626/4/5
f 630/4/5 629/4/5 628/4/5
f 631/4/5 629/4/5 630/4/5
f 636/4/5 633/4/5 632/4/5
f 637/4/5 633/4/5 636/4/5
f 638/4/5 635/4/5 634/4/5
f 639/4/5 635/4/5 638/4/5
f 642/5/5 641/5/5 640/5/5
f 643/5/5 641/5/5 642/5/5
f 648/8/5 645/8/5 644/8/5
f 649/8/5 645/8/5 648/8/5
f 650/8/5 647/8/5 646/8/5
f 651/8/5 647/8/5 650/8/5
f 656/8/5 653/8/5 652/8/5
f 657/8/5 653/8/5 656/8/5
f 660/8/5 655/8/5 654/8/5
f 661/8/5 655/8/5 660/8/5
f 662/8/5 659/8/5 658/8/5
f 662/8/5 660/8/5 659/8/5
f 662/8/5 658/8/5 657/8/5
f 663/8/5 660/8/5 662/8/5
f 668/8/5 665/8/5 664/8/5
f 669/8/5 665/8/5 668/8/5
f 670/8/5 667/8/5 666/8/5
f 671/8/5 667/8/5 670/8/5
f 674/8/5 673/8/5 672/8/5
f 675/8/5 673/8/5 674/8/5
f 676/8/5 673/8/5 675/8/5
f 677/8/5 673/8/5 676/8/5
f 680/4/5 679/4/5 678/4/5
f 681/4/5 679/4/5 680/4/5
f 682/4/6 683/4/6 684/4/6
f 684/4/6 683/4/6 685/4/6
f 686/4/6 687/4/6 688/4/6
f 688/4/6 687/4/6 689/4/6
f 690/4/6 691/4/6 693/4/6
f 691/8/6 692/8/6 694/8/6
f 693/4/6 691/4/6 694/4/6
f 694/8/6 692/8/6 695/8/6
f 695/4/6 696/4/6 697/4/6
f 697/4/6 696/4/6 698/4/6
f 699/8/6 700/8/6 702/8/6
f 700/4/6 701/4/6 703/4/6
f 702/8/6 700/8/6 703/8/6
f 703/4/6 701/4/6 704/4/6
f 705/4/6 706/4/6 707/4/6
f 705/4/6 707/4/6 708/4/6
f 708/4/6 707/4/6 709/4/6
f 710/4/6 711/4/6 712/4/6
f 712/4/6 711/4/6 713/4/6
f 714/4/6 715/4/6 716/4/6
f 716/4/6 715/4/6 717/4/6
f 718/4/6 719/4/6 722/4/6
f 722/4/6 719/4/6 723/4/6
f 720/4/6 721/4/6 724/4/6
f 724/4/6 721/4/6 725/4/6
f 726/4/6 727/4/6 728/4/6
f 728/4/6 727/4/6 729/4/6
f 730/5/6 731/5/6 732/5/6
f 732/5/6 731/5/6 733/5/6
f 734/4/6 735/4/6 736/4/6
f 736/4/6 735/4/6 737/4/6
f 738/4/6 739/4/6 740/4/6
f 740/4/6 739/4/6 741/4/6
f 742/4/6 743/4/6 746/4/6
f 746/4/6 743/4/6 747/4/6
f 744/4/6 745/4/6 748/4/6
f 748/4/6 745/4/6 749/4/6
f 750/4/6 751/4/6 752/4/6
f 752/4/6 751/4/6 753/4/6
f 754/4/6 755/4/6 758/4/6
f 758/4/6 755/4/6 759/4/6
f 756/4/6 757/4/6 760/4/6
f 760/4/6 757/4/6 761/4/6
f 761/4/6 757/4/6 762/4/6
f 763/4/6 764/4/6 767/4/6
f 767/4/6 764/4/6 768/4/6
f 765/4/6 766/4/6 769/4/6
f 769/4/6 766/4/6 770/4/6
f 771/8/6 772/8/6 777/8/6
f 772/4/6 773/4/6 778/4/6
f 777/8/6 772/8/6 778/8/6
f 773/4/6 774/4/6 778/4/6
f 774/4/6 775/4/6 778/4/6
f 775/8/6 776/8/6 779/8/6
f 778/4/6 775/4/6 779/4/6
f 779/8/6 776/8/6 780/8/6
f 781/1/6 782/1/6 785/1/6
f 785/1/6 782/1/6 786/1/6
f 783/1/6 784/1/6 787/1/6
f 787/1/6 784/1/6 788/1/6
f 789/8/6 790/8/6 791/8/6
f 791/8/6 790/8/6 792/8/6
f 792/8/6 793/8/6 795/8/6
f 795/8/6 793/8/6 796/8/6
f 794/8/6 795/8/6 797/8/6
f 797/8/6 795/8/6 798/8/6
f 799/4/6 800/4/6 803/4/6
f 800/8/6 801/8/6 804/8/6
f 803/4/6 800/4/6 804/4/6
f 802/4/6 803/4/6 805/4/6
f 805/4/6 803/4/6 806/4/6
f 804/8/6 801/8/6 807/8/6
f 806/4/6 807/4/6 808/4/6
f 807/8/6 801/8/6 809/8/6
f 808/4/6 807/4/6 809/4/6
f 809/8/6 801/8/6 810/8/6
f 811/4/6 812/4/6 813/4/6
f 813/4/6 812/4/6 814/4/6
