# MagicaVoxel @ Ephtracy

# group
g cock

# material
mtllib cock.mtl
usemtl palette

# normals
vn -1 0 0
vn 1 0 0
vn 0 0 1
vn 0 0 -1
vn 0 -1 0
vn 0 1 0

# texcoords
vt 0.00195313 0.5
vt 0.0878906 0.5
vt 0.251953 0.5
vt 0.255859 0.5
vt 0.958984 0.5
vt 0.990234 0.5
vt 0.994141 0.5

# verts
v -12 9 7
v -12 9 -4
v -12 12 -3
v -12 12 -4
v -12 14 7
v -12 14 -3
v -9 7 11
v -9 7 -8
v -9 9 7
v -9 9 -4
v -9 12 -3
v -9 12 -4
v -9 13 -6
v -9 13 -8
v -9 14 7
v -9 14 -3
v -9 15 2
v -9 15 -6
v -9 20 8
v -9 20 7
v -9 21 8
v -9 21 7
v -9 23 11
v -9 23 2
v -8 0 7
v -8 0 3
v -8 1 7
v -8 1 3
v -7 1 5
v -7 1 3
v -7 7 5
v -7 7 3
v -7 19 14
v -7 19 11
v -7 20 14
v -7 20 11
v -7 23 12
v -7 23 11
v -7 23 2
v -7 23 1
v -7 25 9
v -7 25 8
v -7 25 6
v -7 25 5
v -7 27 12
v -7 27 9
v -7 27 5
v -7 27 1
v -7 28 8
v -7 28 6
v -6 0 7
v -6 0 5
v -6 1 7
v -6 1 5
v -6 16 13
v -6 16 11
v -6 19 13
v -6 19 11
v -4 0 7
v -4 0 3
v -4 1 7
v -4 1 3
v -3 1 5
v -3 1 3
v -3 7 5
v -3 7 3
v -2 0 7
v -2 0 5
v -2 1 7
v -2 1 5
v -7 0 7
v -7 0 5
v -7 1 7
v -7 1 5
v -6 1 5
v -6 1 3
v -6 7 5
v -6 7 3
v -5 0 7
v -5 0 3
v -5 1 7
v -5 1 3
v -3 0 7
v -3 0 5
v -3 1 7
v -3 1 5
v -3 16 13
v -3 16 11
v -3 19 13
v -3 19 11
v -2 1 5
v -2 1 3
v -2 7 5
v -2 7 3
v -2 19 14
v -2 19 11
v -2 20 14
v -2 20 11
v -2 23 12
v -2 23 11
v -2 23 2
v -2 23 1
v -2 25 9
v -2 25 8
v -2 25 6
v -2 25 5
v -2 27 12
v -2 27 9
v -2 27 5
v -2 27 1
v -2 28 8
v -2 28 6
v -1 0 7
v -1 0 3
v -1 1 7
v -1 1 3
v 0 7 11
v 0 7 -8
v 0 9 7
v 0 9 -4
v 0 11 -3
v 0 11 -4
v 0 13 -6
v 0 13 -8
v 0 14 7
v 0 14 -3
v 0 15 2
v 0 15 -6
v 0 20 8
v 0 20 7
v 0 21 8
v 0 21 7
v 0 23 11
v 0 23 2
v 3 9 7
v 3 9 -4
v 3 11 -3
v 3 11 -4
v 3 14 7
v 3 14 -3
v -7 19 14
v -7 20 14
v -2 19 14
v -2 20 14
v -6 16 13
v -6 19 13
v -3 16 13
v -3 19 13
v -7 23 12
v -7 27 12
v -2 23 12
v -2 27 12
v -9 7 11
v -9 23 11
v -7 19 11
v -7 20 11
v -7 23 11
v -6 16 11
v -6 19 11
v -3 16 11
v -3 19 11
v -2 19 11
v -2 20 11
v -2 23 11
v 0 7 11
v 0 23 11
v -7 25 8
v -7 28 8
v -2 25 8
v -2 28 8
v -12 9 7
v -12 14 7
v -9 9 7
v -9 14 7
v -8 0 7
v -8 1 7
v -7 0 7
v -7 1 7
v -6 0 7
v -6 1 7
v -5 0 7
v -5 1 7
v -4 0 7
v -4 1 7
v -3 0 7
v -3 1 7
v -2 0 7
v -2 1 7
v -1 0 7
v -1 1 7
v 0 9 7
v 0 14 7
v 2 9 7
v 2 14 7
v 3 9 7
v 3 14 7
v -7 0 5
v -7 1 5
v -7 7 5
v -7 25 5
v -7 27 5
v -6 0 5
v -6 1 5
v -6 7 5
v -3 0 5
v -3 1 5
v -3 7 5
v -2 0 5
v -2 1 5
v -2 7 5
v -2 25 5
v -2 27 5
v -7 25 9
v -7 27 9
v -2 25 9
v -2 27 9
v -7 25 6
v -7 28 6
v -2 25 6
v -2 28 6
v -8 0 3
v -8 1 3
v -7 1 3
v -7 7 3
v -6 1 3
v -6 7 3
v -5 0 3
v -5 1 3
v -4 0 3
v -4 1 3
v -3 1 3
v -3 7 3
v -2 1 3
v -2 7 3
v -1 0 3
v -1 1 3
v -9 15 2
v -9 23 2
v -7 23 2
v -2 23 2
v 0 15 2
v 0 23 2
v -7 23 1
v -7 27 1
v -2 23 1
v -2 27 1
v -12 12 -3
v -12 14 -3
v -9 12 -3
v -9 14 -3
v 0 11 -3
v 0 14 -3
v 2 11 -3
v 2 14 -3
v 3 11 -3
v 3 14 -3
v -12 9 -4
v -12 12 -4
v -9 9 -4
v -9 12 -4
v 0 9 -4
v 0 11 -4
v 2 9 -4
v 2 11 -4
v 3 9 -4
v 3 11 -4
v -9 13 -6
v -9 15 -6
v 0 13 -6
v 0 15 -6
v -9 7 -8
v -9 13 -8
v 0 7 -8
v 0 13 -8
v -8 0 7
v -7 0 7
v -6 0 7
v -5 0 7
v -4 0 7
v -3 0 7
v -2 0 7
v -1 0 7
v -7 0 5
v -6 0 5
v -3 0 5
v -2 0 5
v -8 0 3
v -5 0 3
v -4 0 3
v -1 0 3
v -9 7 11
v 0 7 11
v -7 7 5
v -6 7 5
v -3 7 5
v -2 7 5
v -7 7 3
v -6 7 3
v -3 7 3
v -2 7 3
v -9 7 -8
v 0 7 -8
v -12 9 7
v -9 9 7
v 0 9 7
v 2 9 7
v 3 9 7
v -12 9 -4
v -9 9 -4
v 0 9 -4
v 2 9 -4
v 3 9 -4
v -6 16 13
v -3 16 13
v -6 16 11
v -3 16 11
v -7 19 14
v -2 19 14
v -6 19 13
v -3 19 13
v -7 19 11
v -6 19 11
v -3 19 11
v -2 19 11
v -7 23 12
v -2 23 12
v -7 23 11
v -2 23 11
v -7 23 2
v -2 23 2
v -7 23 1
v -2 23 1
v -8 1 7
v -7 1 7
v -6 1 7
v -5 1 7
v -4 1 7
v -3 1 7
v -2 1 7
v -1 1 7
v -7 1 5
v -6 1 5
v -3 1 5
v -2 1 5
v -8 1 3
v -7 1 3
v -6 1 3
v -5 1 3
v -4 1 3
v -3 1 3
v -2 1 3
v -1 1 3
v 0 11 -3
v 2 11 -3
v 3 11 -3
v 0 11 -4
v 2 11 -4
v 3 11 -4
v -12 12 -3
v -9 12 -3
v -12 12 -4
v -9 12 -4
v -9 13 -6
v 0 13 -6
v -9 13 -8
v 0 13 -8
v -12 14 7
v -9 14 7
v 0 14 7
v 2 14 7
v 3 14 7
v -12 14 -3
v -9 14 -3
v 0 14 -3
v 2 14 -3
v 3 14 -3
v -9 15 2
v 0 15 2
v -9 15 -6
v 0 15 -6
v -7 20 14
v -2 20 14
v -7 20 11
v -2 20 11
v -9 23 11
v -7 23 11
v -2 23 11
v 0 23 11
v -9 23 2
v -7 23 2
v -2 23 2
v 0 23 2
v -7 25 9
v -2 25 9
v -7 25 8
v -2 25 8
v -7 25 6
v -2 25 6
v -7 25 5
v -2 25 5
v -7 27 12
v -2 27 12
v -7 27 9
v -2 27 9
v -7 27 5
v -2 27 5
v -7 27 1
v -2 27 1
v -7 28 8
v -2 28 8
v -7 28 6
v -2 28 6

# faces
f 3/5/1 2/5/1 1/5/1
f 4/5/1 2/5/1 3/5/1
f 5/5/1 3/5/1 1/5/1
f 6/5/1 3/5/1 5/5/1
f 9/1/1 8/1/1 7/1/1
f 10/1/1 8/1/1 9/1/1
f 12/1/1 8/1/1 10/1/1
f 13/1/1 8/1/1 12/1/1
f 13/1/1 12/1/1 11/1/1
f 14/1/1 8/1/1 13/1/1
f 15/1/1 9/1/1 7/1/1
f 16/1/1 13/1/1 11/1/1
f 17/1/1 16/1/1 15/1/1
f 18/1/1 13/1/1 16/1/1
f 18/1/1 16/1/1 17/1/1
f 19/1/1 15/1/1 7/1/1
f 19/1/1 17/1/1 15/1/1
f 20/1/1 17/1/1 19/1/1
f 21/1/1 19/1/1 7/1/1
f 21/6/1 20/6/1 19/6/1
f 22/1/1 17/1/1 20/1/1
f 22/6/1 20/6/1 21/6/1
f 23/1/1 21/1/1 7/1/1
f 23/1/1 22/1/1 21/1/1
f 24/1/1 17/1/1 22/1/1
f 24/1/1 22/1/1 23/1/1
f 27/2/1 26/2/1 25/2/1
f 28/2/1 26/2/1 27/2/1
f 31/2/1 30/2/1 29/2/1
f 32/2/1 30/2/1 31/2/1
f 35/3/1 34/3/1 33/3/1
f 36/3/1 34/3/1 35/3/1
f 41/4/1 38/4/1 37/4/1
f 41/4/1 40/4/1 39/4/1
f 41/4/1 39/4/1 38/4/1
f 42/4/1 40/4/1 41/4/1
f 43/4/1 40/4/1 42/4/1
f 44/4/1 40/4/1 43/4/1
f 45/4/1 41/4/1 37/4/1
f 46/4/1 41/4/1 45/4/1
f 47/4/1 40/4/1 44/4/1
f 48/4/1 40/4/1 47/4/1
f 49/4/1 43/4/1 42/4/1
f 50/4/1 43/4/1 49/4/1
f 53/2/1 52/2/1 51/2/1
f 54/2/1 52/2/1 53/2/1
f 57/3/1 56/3/1 55/3/1
f 58/3/1 56/3/1 57/3/1
f 61/2/1 60/2/1 59/2/1
f 62/2/1 60/2/1 61/2/1
f 65/2/1 64/2/1 63/2/1
f 66/2/1 64/2/1 65/2/1
f 69/2/1 68/2/1 67/2/1
f 70/2/1 68/2/1 69/2/1
f 71/2/2 72/2/2 73/2/2
f 73/2/2 72/2/2 74/2/2
f 75/2/2 76/2/2 77/2/2
f 77/2/2 76/2/2 78/2/2
f 79/2/2 80/2/2 81/2/2
f 81/2/2 80/2/2 82/2/2
f 83/2/2 84/2/2 85/2/2
f 85/2/2 84/2/2 86/2/2
f 87/3/2 88/3/2 89/3/2
f 89/3/2 88/3/2 90/3/2
f 91/2/2 92/2/2 93/2/2
f 93/2/2 92/2/2 94/2/2
f 95/3/2 96/3/2 97/3/2
f 97/3/2 96/3/2 98/3/2
f 99/4/2 100/4/2 103/4/2
f 101/4/2 102/4/2 103/4/2
f 100/4/2 101/4/2 103/4/2
f 103/4/2 102/4/2 104/4/2
f 104/4/2 102/4/2 105/4/2
f 105/4/2 102/4/2 106/4/2
f 99/4/2 103/4/2 107/4/2
f 107/4/2 103/4/2 108/4/2
f 106/4/2 102/4/2 109/4/2
f 109/4/2 102/4/2 110/4/2
f 104/4/2 105/4/2 111/4/2
f 111/4/2 105/4/2 112/4/2
f 113/2/2 114/2/2 115/2/2
f 115/2/2 114/2/2 116/2/2
f 117/1/2 118/1/2 119/1/2
f 119/1/2 118/1/2 120/1/2
f 120/1/2 118/1/2 122/1/2
f 122/1/2 118/1/2 123/1/2
f 121/1/2 122/1/2 123/1/2
f 123/1/2 118/1/2 124/1/2
f 117/1/2 119/1/2 125/1/2
f 121/1/2 123/1/2 126/1/2
f 125/1/2 126/1/2 127/1/2
f 126/1/2 123/1/2 128/1/2
f 127/1/2 126/1/2 128/1/2
f 117/1/2 125/1/2 129/1/2
f 125/1/2 127/1/2 129/1/2
f 129/1/2 127/1/2 130/1/2
f 117/1/2 129/1/2 131/1/2
f 129/7/2 130/7/2 131/7/2
f 130/1/2 127/1/2 132/1/2
f 131/7/2 130/7/2 132/7/2
f 117/1/2 131/1/2 133/1/2
f 131/1/2 132/1/2 133/1/2
f 132/1/2 127/1/2 134/1/2
f 133/1/2 132/1/2 134/1/2
f 135/1/2 136/1/2 137/1/2
f 137/1/2 136/1/2 138/1/2
f 135/1/2 137/1/2 139/1/2
f 139/1/2 137/1/2 140/1/2
f 143/3/3 142/3/3 141/3/3
f 144/3/3 142/3/3 143/3/3
f 147/3/3 146/3/3 145/3/3
f 148/3/3 146/3/3 147/3/3
f 151/4/3 150/4/3 149/4/3
f 152/4/3 150/4/3 151/4/3
f 155/1/3 154/1/3 153/1/3
f 156/1/3 154/1/3 155/1/3
f 157/1/3 154/1/3 156/1/3
f 158/1/3 155/1/3 153/1/3
f 159/1/3 155/1/3 158/1/3
f 160/1/3 158/1/3 153/1/3
f 162/1/3 161/1/3 160/1/3
f 163/1/3 157/1/3 156/1/3
f 164/1/3 157/1/3 163/1/3
f 165/1/3 162/1/3 160/1/3
f 165/1/3 160/1/3 153/1/3
f 165/1/3 164/1/3 163/1/3
f 165/1/3 163/1/3 162/1/3
f 166/1/3 164/1/3 165/1/3
f 169/4/3 168/4/3 167/4/3
f 170/4/3 168/4/3 169/4/3
f 173/5/3 172/5/3 171/5/3
f 174/5/3 172/5/3 173/5/3
f 177/2/3 176/2/3 175/2/3
f 178/2/3 176/2/3 177/2/3
f 181/2/3 180/2/3 179/2/3
f 182/2/3 180/2/3 181/2/3
f 185/2/3 184/2/3 183/2/3
f 186/2/3 184/2/3 185/2/3
f 189/2/3 188/2/3 187/2/3
f 190/2/3 188/2/3 189/2/3
f 193/5/3 192/5/3 191/5/3
f 194/5/3 192/5/3 193/5/3
f 195/1/3 194/1/3 193/1/3
f 196/1/3 194/1/3 195/1/3
f 202/2/3 198/2/3 197/2/3
f 202/2/3 199/2/3 198/2/3
f 203/2/3 199/2/3 202/2/3
f 204/2/3 199/2/3 203/2/3
f 208/2/3 206/2/3 205/2/3
f 208/2/3 207/2/3 206/2/3
f 209/2/3 207/2/3 208/2/3
f 210/2/3 207/2/3 209/2/3
f 211/4/3 201/4/3 200/4/3
f 212/4/3 201/4/3 211/4/3
f 213/4/4 214/4/4 215/4/4
f 215/4/4 214/4/4 216/4/4
f 217/4/4 218/4/4 219/4/4
f 219/4/4 218/4/4 220/4/4
f 221/2/4 222/2/4 223/2/4
f 221/2/4 223/2/4 225/2/4
f 223/2/4 224/2/4 225/2/4
f 225/2/4 224/2/4 226/2/4
f 221/2/4 225/2/4 227/2/4
f 227/2/4 225/2/4 228/2/4
f 229/2/4 230/2/4 231/2/4
f 229/2/4 231/2/4 233/2/4
f 231/2/4 232/2/4 233/2/4
f 233/2/4 232/2/4 234/2/4
f 229/2/4 233/2/4 235/2/4
f 235/2/4 233/2/4 236/2/4
f 237/1/4 238/1/4 239/1/4
f 237/1/4 239/1/4 240/1/4
f 237/1/4 240/1/4 241/1/4
f 241/1/4 240/1/4 242/1/4
f 243/4/4 244/4/4 245/4/4
f 245/4/4 244/4/4 246/4/4
f 247/5/4 248/5/4 249/5/4
f 249/5/4 248/5/4 250/5/4
f 251/5/4 252/5/4 253/5/4
f 253/5/4 252/5/4 254/5/4
f 253/1/4 254/1/4 255/1/4
f 255/1/4 254/1/4 256/1/4
f 257/5/4 258/5/4 259/5/4
f 259/5/4 258/5/4 260/5/4
f 261/5/4 262/5/4 263/5/4
f 263/5/4 262/5/4 264/5/4
f 263/1/4 264/1/4 265/1/4
f 265/1/4 264/1/4 266/1/4
f 267/1/4 268/1/4 269/1/4
f 269/1/4 268/1/4 270/1/4
f 271/1/4 272/1/4 273/1/4
f 273/1/4 272/1/4 274/1/4
f 283/2/5 276/2/5 275/2/5
f 284/2/5 278/2/5 277/2/5
f 285/2/5 280/2/5 279/2/5
f 286/2/5 282/2/5 281/2/5
f 287/2/5 283/2/5 275/2/5
f 287/2/5 284/2/5 283/2/5
f 288/2/5 278/2/5 284/2/5
f 288/2/5 284/2/5 287/2/5
f 289/2/5 285/2/5 279/2/5
f 289/2/5 286/2/5 285/2/5
f 290/2/5 282/2/5 286/2/5
f 290/2/5 286/2/5 289/2/5
f 293/1/5 292/1/5 291/1/5
f 294/1/5 292/1/5 293/1/5
f 295/1/5 292/1/5 294/1/5
f 296/1/5 292/1/5 295/1/5
f 297/1/5 293/1/5 291/1/5
f 298/1/5 295/1/5 294/1/5
f 299/1/5 295/1/5 298/1/5
f 300/1/5 292/1/5 296/1/5
f 301/1/5 299/1/5 298/1/5
f 301/1/5 300/1/5 299/1/5
f 301/1/5 297/1/5 291/1/5
f 301/1/5 298/1/5 297/1/5
f 302/1/5 292/1/5 300/1/5
f 302/1/5 300/1/5 301/1/5
f 308/5/5 304/5/5 303/5/5
f 309/5/5 304/5/5 308/5/5
f 310/5/5 306/5/5 305/5/5
f 311/1/5 307/1/5 306/1/5
f 311/5/5 306/5/5 310/5/5
f 312/1/5 307/1/5 311/1/5
f 315/3/5 314/3/5 313/3/5
f 316/3/5 314/3/5 315/3/5
f 319/3/5 318/3/5 317/3/5
f 320/3/5 318/3/5 319/3/5
f 321/3/5 319/3/5 317/3/5
f 322/3/5 319/3/5 321/3/5
f 323/3/5 318/3/5 320/3/5
f 324/3/5 318/3/5 323/3/5
f 327/4/5 326/4/5 325/4/5
f 328/4/5 326/4/5 327/4/5
f 331/4/5 330/4/5 329/4/5
f 332/4/5 330/4/5 331/4/5
f 333/2/6 334/2/6 341/2/6
f 335/2/6 336/2/6 342/2/6
f 337/2/6 338/2/6 343/2/6
f 339/2/6 340/2/6 344/2/6
f 333/2/6 341/2/6 345/2/6
f 345/2/6 341/2/6 346/2/6
f 342/2/6 336/2/6 347/2/6
f 347/2/6 336/2/6 348/2/6
f 337/2/6 343/2/6 349/2/6
f 349/2/6 343/2/6 350/2/6
f 344/2/6 340/2/6 351/2/6
f 351/2/6 340/2/6 352/2/6
f 353/5/6 354/5/6 356/5/6
f 354/1/6 355/1/6 357/1/6
f 356/5/6 354/5/6 357/5/6
f 357/1/6 355/1/6 358/1/6
f 359/5/6 360/5/6 361/5/6
f 361/5/6 360/5/6 362/5/6
f 363/1/6 364/1/6 365/1/6
f 365/1/6 364/1/6 366/1/6
f 367/5/6 368/5/6 372/5/6
f 372/5/6 368/5/6 373/5/6
f 369/5/6 370/5/6 374/5/6
f 370/1/6 371/1/6 375/1/6
f 374/5/6 370/5/6 375/5/6
f 375/1/6 371/1/6 376/1/6
f 377/1/6 378/1/6 379/1/6
f 379/1/6 378/1/6 380/1/6
f 381/3/6 382/3/6 383/3/6
f 383/3/6 382/3/6 384/3/6
f 385/1/6 386/1/6 389/1/6
f 389/1/6 386/1/6 390/1/6
f 387/1/6 388/1/6 391/1/6
f 391/1/6 388/1/6 392/1/6
f 393/4/6 394/4/6 395/4/6
f 395/4/6 394/4/6 396/4/6
f 397/4/6 398/4/6 399/4/6
f 399/4/6 398/4/6 400/4/6
f 401/4/6 402/4/6 403/4/6
f 403/4/6 402/4/6 404/4/6
f 405/4/6 406/4/6 407/4/6
f 407/4/6 406/4/6 408/4/6
f 409/4/6 410/4/6 411/4/6
f 411/4/6 410/4/6 412/4/6
