# MagicaVoxel @ Ephtracy

# group
g boy2-3

# material
mtllib boy2-3.mtl
usemtl palette

# normals
vn -1 0 0
vn 1 0 0
vn 0 0 1
vn 0 0 -1
vn 0 -1 0
vn 0 1 0

# texcoords
vt 0.0332031 0.5
vt 0.0605469 0.5
vt 0.560547 0.5
vt 0.634766 0.5
vt 0.841797 0.5
vt 0.904297 0.5
vt 0.958984 0.5
vt 0.986328 0.5
vt 0.994141 0.5

# verts
v -4 11 0.5
v -4 11 -0.5
v -4 12 0.5
v -4 12 -0.5
v -3 5 0.5
v -3 5 -0.5
v -3 10 0.5
v -3 10 -0.5
v -3 11 1.5
v -3 11 0.5
v -3 11 -0.5
v -3 11 -2.5
v -3 12 2.5
v -3 12 1.5
v -3 12 0.5
v -3 12 -0.5
v -3 13 1.5
v -3 13 0.5
v -3 14 2.5
v -3 14 1.5
v -3 14 -0.5
v -3 14 -2.5
v -3 15 0.5
v -3 15 -0.5
v -2 2 1.5
v -2 2 -0.5
v -2 3 1.5
v -2 3 0.5
v -2 3 -0.5
v -2 5 1.5
v -2 5 0.5
v -2 5 -0.5
v -2 5 -1.5
v -2 7 1.5
v -2 7 0.5
v -2 7 -0.5
v -2 7 -1.5
v -2 8 1.5
v -2 8 0.5
v -2 8 -0.5
v -2 8 -1.5
v -2 9 1.5
v -2 9 0.5
v -2 9 -0.5
v -2 9 -1.5
v -2 10 1.5
v -2 10 0.5
v -2 10 -0.5
v -2 10 -1.5
v -2 10 -2.5
v -2 10 -3.5
v -2 11 1.5
v -2 11 0.5
v -2 11 -0.5
v -2 11 -1.5
v -2 11 -2.5
v -2 12 -2.5
v -2 12 -3.5
v -2 13 1.5
v -2 13 0.5
v -2 13 -2.5
v -2 13 -3.5
v -2 14 1.5
v -2 14 0.5
v -2 14 -0.5
v -2 14 -2.5
v -2 15 1.5
v -2 15 0.5
v -2 15 -0.5
v -2 15 -2.5
v -2 15 -3.5
v -2 16 1.5
v -2 16 -2.5
v -1 13 -0.5
v -1 13 -1.5
v -1 14 2.5
v -1 14 0.5
v -1 14 -0.5
v -1 14 -1.5
v -1 15 2.5
v -1 15 1.5
v -1 15 0.5
v 0 15 2.5
v 0 15 1.5
v 0 16 2.5
v 0 16 1.5
v 1 2 1.5
v 1 2 -0.5
v 1 3 1.5
v 1 3 0.5
v 1 3 -0.5
v 1 5 0.5
v 1 5 -0.5
v 1 11 -0.5
v 1 11 -1.5
v 1 12 -0.5
v 1 12 -1.5
v 1 13 -2.5
v 1 13 -3.5
v 1 14 -2.5
v 1 14 -3.5
v 1 15 1.5
v 1 15 0.5
v 1 15 -0.5
v 1 15 -1.5
v 1 16 1.5
v 1 16 0.5
v 1 16 -0.5
v 1 17 1.5
v 1 17 -1.5
v 2 15 0.5
v 2 15 -0.5
v 2 16 0.5
v 2 16 -0.5
v -2 12 2.5
v -2 12 1.5
v -2 13 2.5
v -2 13 1.5
v -2 13 -0.5
v -2 13 -1.5
v -2 14 -0.5
v -2 14 -1.5
v -1 2 1.5
v -1 2 -0.5
v -1 3 1.5
v -1 3 0.5
v -1 3 -0.5
v -1 5 0.5
v -1 5 -0.5
v -1 13 -2.5
v -1 13 -3.5
v -1 14 -2.5
v -1 14 -3.5
v -1 15 -1.5
v -1 15 -2.5
v -1 16 -1.5
v -1 16 -2.5
v 0 11 -0.5
v 0 11 -1.5
v 0 12 -0.5
v 0 12 -1.5
v 0 15 1.5
v 0 15 0.5
v 0 15 -0.5
v 0 15 -1.5
v 0 16 1.5
v 0 16 0.5
v 0 16 -0.5
v 0 16 -1.5
v 1 11 -2.5
v 1 11 -3.5
v 1 12 -2.5
v 1 12 -3.5
v 1 15 2.5
v 1 15 1.5
v 1 15 0.5
v 1 15 -0.5
v 1 16 2.5
v 1 16 1.5
v 1 16 0.5
v 1 16 -0.5
v 2 2 1.5
v 2 2 -0.5
v 2 3 1.5
v 2 3 0.5
v 2 3 -0.5
v 2 5 1.5
v 2 5 0.5
v 2 5 -0.5
v 2 5 -1.5
v 2 7 1.5
v 2 7 0.5
v 2 7 -0.5
v 2 7 -1.5
v 2 8 1.5
v 2 8 0.5
v 2 8 -0.5
v 2 8 -1.5
v 2 9 1.5
v 2 9 0.5
v 2 9 -0.5
v 2 9 -1.5
v 2 10 1.5
v 2 10 0.5
v 2 10 -0.5
v 2 10 -1.5
v 2 10 -2.5
v 2 10 -3.5
v 2 11 1.5
v 2 11 0.5
v 2 11 -0.5
v 2 11 -1.5
v 2 11 -2.5
v 2 11 -3.5
v 2 13 2.5
v 2 13 1.5
v 2 13 -2.5
v 2 13 -3.5
v 2 14 -1.5
v 2 14 -2.5
v 2 15 2.5
v 2 15 1.5
v 2 15 0.5
v 2 15 -0.5
v 2 15 -1.5
v 2 15 -3.5
v 2 16 0.5
v 2 16 -0.5
v 2 17 1.5
v 2 17 -1.5
v 3 5 0.5
v 3 5 -0.5
v 3 10 0.5
v 3 10 -0.5
v 3 11 1.5
v 3 11 0.5
v 3 11 -0.5
v 3 11 -1.5
v 3 11 -2.5
v 3 12 0.5
v 3 12 -0.5
v 3 12 -1.5
v 3 14 -1.5
v 3 14 -2.5
v 3 15 1.5
v 3 15 0.5
v 3 15 -0.5
v 3 15 -1.5
v 3 16 0.5
v 3 16 -0.5
v 4 11 0.5
v 4 11 -0.5
v 4 12 0.5
v 4 12 -0.5
v -3 12 2.5
v -3 14 2.5
v -2 12 2.5
v -2 13 2.5
v -1 14 2.5
v -1 15 2.5
v 0 15 2.5
v 0 16 2.5
v 1 15 2.5
v 1 16 2.5
v 2 13 2.5
v 2 15 2.5
v -3 11 1.5
v -3 12 1.5
v -2 2 1.5
v -2 3 1.5
v -2 5 1.5
v -2 7 1.5
v -2 8 1.5
v -2 9 1.5
v -2 10 1.5
v -2 11 1.5
v -2 12 1.5
v -2 13 1.5
v -2 15 1.5
v -2 16 1.5
v -1 2 1.5
v -1 3 1.5
v -1 10 1.5
v -1 11 1.5
v -1 12 1.5
v -1 15 1.5
v 0 10 1.5
v 0 11 1.5
v 0 15 1.5
v 0 16 1.5
v 1 2 1.5
v 1 3 1.5
v 1 11 1.5
v 1 12 1.5
v 1 15 1.5
v 1 16 1.5
v 1 17 1.5
v 2 2 1.5
v 2 3 1.5
v 2 5 1.5
v 2 7 1.5
v 2 8 1.5
v 2 9 1.5
v 2 10 1.5
v 2 11 1.5
v 2 12 1.5
v 2 13 1.5
v 2 15 1.5
v 2 17 1.5
v 3 11 1.5
v 3 15 1.5
v -4 11 0.5
v -4 12 0.5
v -3 5 0.5
v -3 10 0.5
v -3 11 0.5
v -3 12 0.5
v -3 13 0.5
v -3 15 0.5
v -2 3 0.5
v -2 5 0.5
v -2 7 0.5
v -2 8 0.5
v -2 9 0.5
v -2 10 0.5
v -2 13 0.5
v -2 14 0.5
v -2 15 0.5
v -1 3 0.5
v -1 5 0.5
v -1 14 0.5
v -1 15 0.5
v 0 15 0.5
v 0 16 0.5
v 1 3 0.5
v 1 5 0.5
v 1 15 0.5
v 1 16 0.5
v 2 3 0.5
v 2 5 0.5
v 2 7 0.5
v 2 8 0.5
v 2 9 0.5
v 2 10 0.5
v 2 15 0.5
v 2 16 0.5
v 3 5 0.5
v 3 10 0.5
v 3 11 0.5
v 3 12 0.5
v 3 15 0.5
v 3 16 0.5
v 4 11 0.5
v 4 12 0.5
v 1 15 -0.5
v 1 16 -0.5
v 2 15 -0.5
v 2 16 -0.5
v -2 13 -1.5
v -2 14 -1.5
v -1 13 -1.5
v -1 14 -1.5
v 0 11 -1.5
v 0 12 -1.5
v 1 11 -1.5
v 1 12 -1.5
v -3 13 1.5
v -3 14 1.5
v -2 13 1.5
v -2 14 1.5
v 0 15 1.5
v 0 16 1.5
v 1 15 1.5
v 1 16 1.5
v 1 15 0.5
v 1 16 0.5
v 2 15 0.5
v 2 16 0.5
v -4 11 -0.5
v -4 12 -0.5
v -3 5 -0.5
v -3 10 -0.5
v -3 11 -0.5
v -3 12 -0.5
v -3 14 -0.5
v -3 15 -0.5
v -2 2 -0.5
v -2 3 -0.5
v -2 5 -0.5
v -2 7 -0.5
v -2 8 -0.5
v -2 9 -0.5
v -2 10 -0.5
v -2 13 -0.5
v -2 14 -0.5
v -2 15 -0.5
v -1 2 -0.5
v -1 3 -0.5
v -1 5 -0.5
v -1 13 -0.5
v -1 14 -0.5
v 0 11 -0.5
v 0 12 -0.5
v 0 15 -0.5
v 0 16 -0.5
v 1 2 -0.5
v 1 3 -0.5
v 1 5 -0.5
v 1 11 -0.5
v 1 12 -0.5
v 1 15 -0.5
v 1 16 -0.5
v 2 2 -0.5
v 2 3 -0.5
v 2 5 -0.5
v 2 7 -0.5
v 2 8 -0.5
v 2 9 -0.5
v 2 10 -0.5
v 2 15 -0.5
v 2 16 -0.5
v 3 5 -0.5
v 3 10 -0.5
v 3 11 -0.5
v 3 12 -0.5
v 3 15 -0.5
v 3 16 -0.5
v 4 11 -0.5
v 4 12 -0.5
v -2 5 -1.5
v -2 7 -1.5
v -2 8 -1.5
v -2 9 -1.5
v -2 10 -1.5
v -1 15 -1.5
v -1 16 -1.5
v 0 15 -1.5
v 0 16 -1.5
v 1 15 -1.5
v 1 17 -1.5
v 2 5 -1.5
v 2 7 -1.5
v 2 8 -1.5
v 2 9 -1.5
v 2 10 -1.5
v 2 14 -1.5
v 2 15 -1.5
v 2 17 -1.5
v 3 14 -1.5
v 3 15 -1.5
v -3 11 -2.5
v -3 14 -2.5
v -2 11 -2.5
v -2 12 -2.5
v -2 13 -2.5
v -2 14 -2.5
v -2 15 -2.5
v -2 16 -2.5
v -1 13 -2.5
v -1 14 -2.5
v -1 15 -2.5
v -1 16 -2.5
v 1 11 -2.5
v 1 12 -2.5
v 1 13 -2.5
v 1 14 -2.5
v 2 11 -2.5
v 2 13 -2.5
v 2 14 -2.5
v 3 11 -2.5
v 3 14 -2.5
v -2 10 -3.5
v -2 12 -3.5
v -2 13 -3.5
v -2 15 -3.5
v -1 13 -3.5
v -1 14 -3.5
v 1 11 -3.5
v 1 12 -3.5
v 1 13 -3.5
v 1 14 -3.5
v 2 10 -3.5
v 2 11 -3.5
v 2 13 -3.5
v 2 15 -3.5
v -2 2 1.5
v -1 2 1.5
v 1 2 1.5
v 2 2 1.5
v -2 2 -0.5
v -1 2 -0.5
v 1 2 -0.5
v 2 2 -0.5
v -2 5 1.5
v 2 5 1.5
v -3 5 0.5
v -2 5 0.5
v -1 5 0.5
v 1 5 0.5
v 2 5 0.5
v 3 5 0.5
v -3 5 -0.5
v -2 5 -0.5
v -1 5 -0.5
v 1 5 -0.5
v 2 5 -0.5
v 3 5 -0.5
v -2 5 -1.5
v 2 5 -1.5
v -2 10 -1.5
v 2 10 -1.5
v -2 10 -2.5
v 2 10 -2.5
v -2 10 -3.5
v 2 10 -3.5
v -3 11 1.5
v -2 11 1.5
v 2 11 1.5
v 3 11 1.5
v -4 11 0.5
v -3 11 0.5
v -2 11 0.5
v 2 11 0.5
v 3 11 0.5
v 4 11 0.5
v -4 11 -0.5
v -3 11 -0.5
v -2 11 -0.5
v 2 11 -0.5
v 3 11 -0.5
v 4 11 -0.5
v -2 11 -1.5
v 2 11 -1.5
v 3 11 -1.5
v -3 11 -2.5
v -2 11 -2.5
v 2 11 -2.5
v 3 11 -2.5
v -3 12 2.5
v -2 12 2.5
v -3 12 1.5
v -2 12 1.5
v 0 12 -0.5
v 1 12 -0.5
v 0 12 -1.5
v 1 12 -1.5
v -2 13 2.5
v 2 13 2.5
v -2 13 1.5
v 2 13 1.5
v -2 13 -2.5
v -1 13 -2.5
v 1 13 -2.5
v 2 13 -2.5
v -2 13 -3.5
v -1 13 -3.5
v 1 13 -3.5
v 2 13 -3.5
v -2 14 -0.5
v -1 14 -0.5
v -2 14 -1.5
v -1 14 -1.5
v -1 14 -2.5
v 1 14 -2.5
v -1 14 -3.5
v 1 14 -3.5
v -2 15 1.5
v -1 15 1.5
v -2 15 0.5
v -1 15 0.5
v 1 16 0.5
v 2 16 0.5
v 1 16 -0.5
v 2 16 -0.5
v -2 3 1.5
v -1 3 1.5
v 1 3 1.5
v 2 3 1.5
v -2 3 0.5
v -1 3 0.5
v 1 3 0.5
v 2 3 0.5
v -3 10 0.5
v -2 10 0.5
v 2 10 0.5
v 3 10 0.5
v -3 10 -0.5
v -2 10 -0.5
v 2 10 -0.5
v 3 10 -0.5
v 0 11 -0.5
v 1 11 -0.5
v 0 11 -1.5
v 1 11 -1.5
v 1 11 -2.5
v 2 11 -2.5
v 1 11 -3.5
v 2 11 -3.5
v -4 12 0.5
v -3 12 0.5
v 3 12 0.5
v 4 12 0.5
v -4 12 -0.5
v -3 12 -0.5
v 3 12 -0.5
v 4 12 -0.5
v -2 12 -2.5
v 1 12 -2.5
v -2 12 -3.5
v 1 12 -3.5
v -3 13 1.5
v -2 13 1.5
v -3 13 0.5
v -2 13 0.5
v -2 13 -0.5
v -1 13 -0.5
v -2 13 -1.5
v -1 13 -1.5
v -3 14 2.5
v -1 14 2.5
v -3 14 1.5
v -2 14 1.5
v -2 14 0.5
v -1 14 0.5
v -3 14 -0.5
v -2 14 -0.5
v 2 14 -1.5
v 3 14 -1.5
v -3 14 -2.5
v -2 14 -2.5
v 2 14 -2.5
v 3 14 -2.5
v -1 15 2.5
v 0 15 2.5
v 1 15 2.5
v 2 15 2.5
v -1 15 1.5
v 0 15 1.5
v 1 15 1.5
v 2 15 1.5
v 3 15 1.5
v -3 15 0.5
v -2 15 0.5
v 0 15 0.5
v 1 15 0.5
v 2 15 0.5
v 3 15 0.5
v -3 15 -0.5
v -2 15 -0.5
v 0 15 -0.5
v 1 15 -0.5
v 2 15 -0.5
v 3 15 -0.5
v -1 15 -1.5
v 0 15 -1.5
v 1 15 -1.5
v 2 15 -1.5
v 3 15 -1.5
v -2 15 -2.5
v -1 15 -2.5
v -2 15 -3.5
v 2 15 -3.5
v 0 16 2.5
v 1 16 2.5
v -2 16 1.5
v 0 16 1.5
v 1 16 1.5
v 0 16 0.5
v 1 16 0.5
v 2 16 0.5
v 3 16 0.5
v 0 16 -0.5
v 1 16 -0.5
v 2 16 -0.5
v 3 16 -0.5
v -1 16 -1.5
v 0 16 -1.5
v -2 16 -2.5
v -1 16 -2.5
v 1 17 1.5
v 2 17 1.5
v 1 17 -1.5
v 2 17 -1.5

# faces
f 3/1/1 2/1/1 1/1/1
f 4/1/1 2/1/1 3/1/1
f 7/1/1 6/1/1 5/1/1
f 8/1/1 6/1/1 7/1/1
f 14/9/1 10/9/1 9/9/1
f 15/9/1 10/9/1 14/9/1
f 16/9/1 12/9/1 11/9/1
f 17/9/1 15/9/1 14/9/1
f 17/9/1 16/9/1 15/9/1
f 17/9/1 14/9/1 13/9/1
f 18/9/1 16/9/1 17/9/1
f 19/9/1 17/9/1 13/9/1
f 20/9/1 17/9/1 19/9/1
f 21/9/1 12/9/1 16/9/1
f 21/9/1 16/9/1 18/9/1
f 22/9/1 12/9/1 21/9/1
f 23/9/1 21/9/1 18/9/1
f 24/9/1 21/9/1 23/9/1
f 27/6/1 26/6/1 25/6/1
f 28/6/1 26/6/1 27/6/1
f 29/6/1 26/6/1 28/6/1
f 31/1/1 29/1/1 28/1/1
f 32/1/1 29/1/1 31/1/1
f 34/6/1 31/6/1 30/6/1
f 35/6/1 31/6/1 34/6/1
f 36/6/1 33/6/1 32/6/1
f 37/6/1 33/6/1 36/6/1
f 38/3/1 35/3/1 34/3/1
f 39/3/1 35/3/1 38/3/1
f 40/3/1 37/3/1 36/3/1
f 41/3/1 37/3/1 40/3/1
f 42/7/1 39/7/1 38/7/1
f 43/7/1 39/7/1 42/7/1
f 44/7/1 41/7/1 40/7/1
f 45/7/1 41/7/1 44/7/1
f 46/3/1 43/3/1 42/3/1
f 47/3/1 43/3/1 46/3/1
f 48/3/1 45/3/1 44/3/1
f 49/3/1 45/3/1 48/3/1
f 52/1/1 47/1/1 46/1/1
f 53/4/1 49/4/1 48/4/1
f 53/1/1 47/1/1 52/1/1
f 53/4/1 48/4/1 47/4/1
f 54/4/1 49/4/1 53/4/1
f 55/5/1 50/5/1 49/5/1
f 55/4/1 49/4/1 54/4/1
f 56/9/1 51/9/1 50/9/1
f 56/5/1 50/5/1 55/5/1
f 57/9/1 51/9/1 56/9/1
f 58/9/1 51/9/1 57/9/1
f 63/9/1 60/9/1 59/9/1
f 64/9/1 60/9/1 63/9/1
f 66/9/1 62/9/1 61/9/1
f 69/9/1 66/9/1 65/9/1
f 70/9/1 62/9/1 66/9/1
f 70/9/1 66/9/1 69/9/1
f 71/9/1 62/9/1 70/9/1
f 72/9/1 68/9/1 67/9/1
f 72/9/1 69/9/1 68/9/1
f 72/9/1 70/9/1 69/9/1
f 73/9/1 70/9/1 72/9/1
f 78/8/1 75/8/1 74/8/1
f 79/8/1 75/8/1 78/8/1
f 80/9/1 77/9/1 76/9/1
f 81/9/1 77/9/1 80/9/1
f 82/9/1 77/9/1 81/9/1
f 85/9/1 84/9/1 83/9/1
f 86/9/1 84/9/1 85/9/1
f 89/6/1 88/6/1 87/6/1
f 90/6/1 88/6/1 89/6/1
f 91/6/1 88/6/1 90/6/1
f 92/1/1 91/1/1 90/1/1
f 93/1/1 91/1/1 92/1/1
f 96/4/1 95/4/1 94/4/1
f 97/4/1 95/4/1 96/4/1
f 100/9/1 99/9/1 98/9/1
f 101/9/1 99/9/1 100/9/1
f 106/9/1 103/9/1 102/9/1
f 107/9/1 103/9/1 106/9/1
f 108/9/1 105/9/1 104/9/1
f 109/9/1 107/9/1 106/9/1
f 109/9/1 108/9/1 107/9/1
f 110/9/1 105/9/1 108/9/1
f 110/9/1 108/9/1 109/9/1
f 113/9/1 112/9/1 111/9/1
f 114/9/1 112/9/1 113/9/1
f 115/9/2 116/9/2 117/9/2
f 117/9/2 116/9/2 118/9/2
f 119/9/2 120/9/2 121/9/2
f 121/9/2 120/9/2 122/9/2
f 123/6/2 124/6/2 125/6/2
f 125/6/2 124/6/2 126/6/2
f 126/6/2 124/6/2 127/6/2
f 126/1/2 127/1/2 128/1/2
f 128/1/2 127/1/2 129/1/2
f 130/9/2 131/9/2 132/9/2
f 132/9/2 131/9/2 133/9/2
f 134/9/2 135/9/2 136/9/2
f 136/9/2 135/9/2 137/9/2
f 138/4/2 139/4/2 140/4/2
f 140/4/2 139/4/2 141/4/2
f 142/9/2 143/9/2 146/9/2
f 146/9/2 143/9/2 147/9/2
f 144/9/2 145/9/2 148/9/2
f 148/9/2 145/9/2 149/9/2
f 150/9/2 151/9/2 152/9/2
f 152/9/2 151/9/2 153/9/2
f 154/9/2 155/9/2 158/9/2
f 158/9/2 155/9/2 159/9/2
f 156/9/2 157/9/2 160/9/2
f 160/9/2 157/9/2 161/9/2
f 162/6/2 163/6/2 164/6/2
f 164/6/2 163/6/2 165/6/2
f 165/6/2 163/6/2 166/6/2
f 165/1/2 166/1/2 168/1/2
f 168/1/2 166/1/2 169/1/2
f 167/6/2 168/6/2 171/6/2
f 171/6/2 168/6/2 172/6/2
f 169/6/2 170/6/2 173/6/2
f 173/6/2 170/6/2 174/6/2
f 171/3/2 172/3/2 175/3/2
f 175/3/2 172/3/2 176/3/2
f 173/3/2 174/3/2 177/3/2
f 177/3/2 174/3/2 178/3/2
f 175/7/2 176/7/2 179/7/2
f 179/7/2 176/7/2 180/7/2
f 177/7/2 178/7/2 181/7/2
f 181/7/2 178/7/2 182/7/2
f 179/3/2 180/3/2 183/3/2
f 183/3/2 180/3/2 184/3/2
f 181/3/2 182/3/2 185/3/2
f 185/3/2 182/3/2 186/3/2
f 183/1/2 184/1/2 189/1/2
f 185/5/2 186/5/2 190/5/2
f 189/1/2 184/1/2 190/1/2
f 184/5/2 185/5/2 190/5/2
f 186/5/2 187/5/2 190/5/2
f 190/5/2 187/5/2 191/5/2
f 191/5/2 187/5/2 192/5/2
f 187/9/2 188/9/2 193/9/2
f 192/5/2 187/5/2 193/5/2
f 193/9/2 188/9/2 194/9/2
f 197/9/2 198/9/2 200/9/2
f 195/9/2 196/9/2 201/9/2
f 201/9/2 196/9/2 202/9/2
f 199/9/2 200/9/2 205/9/2
f 200/9/2 198/9/2 206/9/2
f 205/9/2 200/9/2 206/9/2
f 202/9/2 203/9/2 207/9/2
f 204/9/2 205/9/2 208/9/2
f 202/9/2 207/9/2 209/9/2
f 207/9/2 208/9/2 209/9/2
f 208/9/2 205/9/2 210/9/2
f 209/9/2 208/9/2 210/9/2
f 211/1/2 212/1/2 213/1/2
f 213/1/2 212/1/2 214/1/2
f 215/9/2 216/9/2 220/9/2
f 217/8/2 218/8/2 221/8/2
f 218/9/2 219/9/2 222/9/2
f 221/8/2 218/8/2 222/8/2
f 220/9/2 221/9/2 223/9/2
f 222/9/2 219/9/2 223/9/2
f 221/9/2 222/9/2 223/9/2
f 223/9/2 219/9/2 224/9/2
f 215/9/2 220/9/2 225/9/2
f 220/9/2 223/9/2 225/9/2
f 225/9/2 223/9/2 226/9/2
f 226/9/2 223/9/2 227/9/2
f 227/9/2 223/9/2 228/9/2
f 226/9/2 227/9/2 229/9/2
f 229/9/2 227/9/2 230/9/2
f 231/1/2 232/1/2 233/1/2
f 233/1/2 232/1/2 234/1/2
f 237/9/3 236/9/3 235/9/3
f 238/9/3 236/9/3 237/9/3
f 239/9/3 236/9/3 238/9/3
f 241/9/3 240/9/3 239/9/3
f 243/9/3 241/9/3 239/9/3
f 243/9/3 242/9/3 241/9/3
f 244/9/3 242/9/3 243/9/3
f 245/9/3 239/9/3 238/9/3
f 245/9/3 243/9/3 239/9/3
f 246/9/3 243/9/3 245/9/3
f 256/9/3 248/9/3 247/9/3
f 257/9/3 248/9/3 256/9/3
f 261/6/3 250/6/3 249/6/3
f 262/6/3 250/6/3 261/6/3
f 263/3/3 255/3/3 254/3/3
f 263/1/3 256/1/3 255/1/3
f 264/9/3 257/9/3 256/9/3
f 264/1/3 256/1/3 263/1/3
f 265/1/3 258/1/3 257/1/3
f 265/9/3 257/9/3 264/9/3
f 266/9/3 260/9/3 259/9/3
f 267/3/3 263/3/3 254/3/3
f 267/5/3 264/5/3 263/5/3
f 268/1/3 265/1/3 264/1/3
f 268/5/3 264/5/3 267/5/3
f 269/9/3 260/9/3 266/9/3
f 270/9/3 260/9/3 269/9/3
f 273/1/3 265/1/3 268/1/3
f 273/1/3 268/1/3 267/1/3
f 274/1/3 258/1/3 265/1/3
f 274/1/3 265/1/3 273/1/3
f 278/6/3 272/6/3 271/6/3
f 279/6/3 272/6/3 278/6/3
f 280/6/3 252/6/3 251/6/3
f 281/3/3 253/3/3 252/3/3
f 281/6/3 252/6/3 280/6/3
f 282/7/3 254/7/3 253/7/3
f 282/3/3 253/3/3 281/3/3
f 283/3/3 267/3/3 254/3/3
f 283/7/3 254/7/3 282/7/3
f 284/1/3 273/1/3 267/1/3
f 284/3/3 267/3/3 283/3/3
f 285/9/3 274/9/3 273/9/3
f 285/1/3 273/1/3 284/1/3
f 286/1/3 258/1/3 274/1/3
f 286/9/3 274/9/3 285/9/3
f 287/1/3 258/1/3 286/1/3
f 288/9/3 277/9/3 276/9/3
f 288/9/3 276/9/3 275/9/3
f 289/9/3 277/9/3 288/9/3
f 290/9/3 287/9/3 286/9/3
f 290/9/3 288/9/3 287/9/3
f 290/9/3 286/9/3 285/9/3
f 291/9/3 288/9/3 290/9/3
f 296/1/3 293/1/3 292/1/3
f 297/1/3 293/1/3 296/1/3
f 301/1/3 295/1/3 294/1/3
f 302/1/3 295/1/3 301/1/3
f 303/1/3 295/1/3 302/1/3
f 304/1/3 295/1/3 303/1/3
f 305/1/3 295/1/3 304/1/3
f 306/9/3 299/9/3 298/9/3
f 307/9/3 299/9/3 306/9/3
f 308/9/3 299/9/3 307/9/3
f 309/1/3 301/1/3 300/1/3
f 310/1/3 301/1/3 309/1/3
f 311/9/3 308/9/3 307/9/3
f 312/9/3 308/9/3 311/9/3
f 317/9/3 314/9/3 313/9/3
f 318/9/3 314/9/3 317/9/3
f 319/1/3 316/1/3 315/1/3
f 320/1/3 316/1/3 319/1/3
f 327/1/3 321/1/3 320/1/3
f 327/1/3 324/1/3 323/1/3
f 327/1/3 323/1/3 322/1/3
f 327/1/3 322/1/3 321/1/3
f 328/1/3 324/1/3 327/1/3
f 331/9/3 326/9/3 325/9/3
f 332/9/3 326/9/3 331/9/3
f 333/1/3 330/1/3 329/1/3
f 334/1/3 330/1/3 333/1/3
f 337/9/3 336/9/3 335/9/3
f 338/9/3 336/9/3 337/9/3
f 341/9/3 340/9/3 339/9/3
f 342/9/3 340/9/3 341/9/3
f 345/9/3 344/9/3 343/9/3
f 346/9/3 344/9/3 345/9/3
f 347/9/4 348/9/4 349/9/4
f 349/9/4 348/9/4 350/9/4
f 351/9/4 352/9/4 353/9/4
f 353/9/4 352/9/4 354/9/4
f 355/9/4 356/9/4 357/9/4
f 357/9/4 356/9/4 358/9/4
f 359/1/4 360/1/4 363/1/4
f 363/1/4 360/1/4 364/1/4
f 361/1/4 362/1/4 369/1/4
f 369/1/4 362/1/4 370/1/4
f 370/1/4 362/1/4 371/1/4
f 371/1/4 362/1/4 372/1/4
f 372/1/4 362/1/4 373/1/4
f 365/9/4 366/9/4 375/9/4
f 375/9/4 366/9/4 376/9/4
f 367/6/4 368/6/4 377/6/4
f 368/1/4 369/1/4 378/1/4
f 377/6/4 368/6/4 378/6/4
f 378/1/4 369/1/4 379/1/4
f 374/9/4 375/9/4 380/9/4
f 380/9/4 375/9/4 381/9/4
f 382/4/4 383/4/4 389/4/4
f 389/4/4 383/4/4 390/4/4
f 384/9/4 385/9/4 391/9/4
f 391/9/4 385/9/4 392/9/4
f 386/6/4 387/6/4 393/6/4
f 387/1/4 388/1/4 394/1/4
f 393/6/4 387/6/4 394/6/4
f 394/1/4 388/1/4 395/1/4
f 398/1/4 399/1/4 402/1/4
f 397/1/4 398/1/4 402/1/4
f 396/1/4 397/1/4 402/1/4
f 395/1/4 396/1/4 402/1/4
f 402/1/4 399/1/4 403/1/4
f 400/9/4 401/9/4 406/9/4
f 406/9/4 401/9/4 407/9/4
f 404/1/4 405/1/4 408/1/4
f 408/1/4 405/1/4 409/1/4
f 415/9/4 416/9/4 417/9/4
f 417/9/4 416/9/4 418/9/4
f 410/6/4 411/6/4 421/6/4
f 411/3/4 412/3/4 422/3/4
f 421/6/4 411/6/4 422/6/4
f 412/7/4 413/7/4 423/7/4
f 422/3/4 412/3/4 423/3/4
f 413/3/4 414/3/4 424/3/4
f 423/7/4 413/7/4 424/7/4
f 424/3/4 414/3/4 425/3/4
f 419/9/4 420/9/4 427/9/4
f 427/9/4 420/9/4 428/9/4
f 426/9/4 427/9/4 429/9/4
f 429/9/4 427/9/4 430/9/4
f 431/9/4 432/9/4 433/9/4
f 433/9/4 432/9/4 434/9/4
f 434/9/4 432/9/4 435/9/4
f 435/9/4 432/9/4 436/9/4
f 434/9/4 435/9/4 439/9/4
f 437/9/4 438/9/4 441/9/4
f 441/9/4 438/9/4 442/9/4
f 439/9/4 440/9/4 444/9/4
f 434/9/4 439/9/4 444/9/4
f 444/9/4 440/9/4 445/9/4
f 445/9/4 440/9/4 446/9/4
f 443/9/4 444/9/4 447/9/4
f 444/9/4 445/9/4 447/9/4
f 447/9/4 445/9/4 448/9/4
f 447/9/4 448/9/4 450/9/4
f 448/9/4 449/9/4 450/9/4
f 450/9/4 449/9/4 451/9/4
f 454/9/4 455/9/4 456/9/4
f 456/9/4 455/9/4 457/9/4
f 452/9/4 453/9/4 458/9/4
f 458/9/4 453/9/4 459/9/4
f 457/9/4 455/9/4 461/9/4
f 452/9/4 458/9/4 462/9/4
f 462/9/4 458/9/4 463/9/4
f 460/9/4 461/9/4 464/9/4
f 461/9/4 455/9/4 465/9/4
f 464/9/4 461/9/4 465/9/4
f 470/6/5 467/6/5 466/6/5
f 471/6/5 467/6/5 470/6/5
f 472/6/5 469/6/5 468/6/5
f 473/6/5 469/6/5 472/6/5
f 477/6/5 475/6/5 474/6/5
f 478/6/5 475/6/5 477/6/5
f 479/6/5 475/6/5 478/6/5
f 480/6/5 475/6/5 479/6/5
f 482/1/5 477/1/5 476/1/5
f 483/1/5 477/1/5 482/1/5
f 484/6/5 479/6/5 478/6/5
f 485/6/5 479/6/5 484/6/5
f 486/1/5 481/1/5 480/1/5
f 487/1/5 481/1/5 486/1/5
f 488/6/5 485/6/5 484/6/5
f 488/6/5 486/6/5 485/6/5
f 488/6/5 484/6/5 483/6/5
f 489/6/5 486/6/5 488/6/5
f 492/5/5 491/5/5 490/5/5
f 493/5/5 491/5/5 492/5/5
f 494/9/5 493/9/5 492/9/5
f 495/9/5 493/9/5 494/9/5
f 501/9/5 497/9/5 496/9/5
f 502/9/5 497/9/5 501/9/5
f 503/9/5 499/9/5 498/9/5
f 504/9/5 499/9/5 503/9/5
f 506/1/5 502/1/5 501/1/5
f 506/1/5 501/1/5 500/1/5
f 507/1/5 502/1/5 506/1/5
f 508/1/5 502/1/5 507/1/5
f 509/1/5 505/1/5 504/1/5
f 509/1/5 504/1/5 503/1/5
f 510/1/5 505/1/5 509/1/5
f 511/1/5 505/1/5 510/1/5
f 512/9/5 508/9/5 507/9/5
f 513/8/5 510/8/5 509/8/5
f 514/8/5 510/8/5 513/8/5
f 515/9/5 512/9/5 507/9/5
f 516/9/5 512/9/5 515/9/5
f 517/9/5 514/9/5 513/9/5
f 518/9/5 514/9/5 517/9/5
f 521/9/5 520/9/5 519/9/5
f 522/9/5 520/9/5 521/9/5
f 525/8/5 524/8/5 523/8/5
f 526/8/5 524/8/5 525/8/5
f 529/9/5 528/9/5 527/9/5
f 530/9/5 528/9/5 529/9/5
f 535/9/5 532/9/5 531/9/5
f 536/9/5 532/9/5 535/9/5
f 537/9/5 534/9/5 533/9/5
f 538/9/5 534/9/5 537/9/5
f 541/9/5 540/9/5 539/9/5
f 542/9/5 540/9/5 541/9/5
f 545/9/5 544/9/5 543/9/5
f 546/9/5 544/9/5 545/9/5
f 549/9/5 548/9/5 547/9/5
f 550/9/5 548/9/5 549/9/5
f 553/9/5 552/9/5 551/9/5
f 554/9/5 552/9/5 553/9/5
f 555/6/6 556/6/6 559/6/6
f 559/6/6 556/6/6 560/6/6
f 557/6/6 558/6/6 561/6/6
f 561/6/6 558/6/6 562/6/6
f 563/1/6 564/1/6 567/1/6
f 567/1/6 564/1/6 568/1/6
f 565/1/6 566/1/6 569/1/6
f 569/1/6 566/1/6 570/1/6
f 571/4/6 572/4/6 573/4/6
f 573/4/6 572/4/6 574/4/6
f 575/9/6 576/9/6 577/9/6
f 577/9/6 576/9/6 578/9/6
f 579/1/6 580/1/6 583/1/6
f 583/1/6 580/1/6 584/1/6
f 581/1/6 582/1/6 585/1/6
f 585/1/6 582/1/6 586/1/6
f 587/9/6 588/9/6 589/9/6
f 589/9/6 588/9/6 590/9/6
f 591/9/6 592/9/6 593/9/6
f 593/9/6 592/9/6 594/9/6
f 595/9/6 596/9/6 597/9/6
f 597/9/6 596/9/6 598/9/6
f 599/9/6 600/9/6 601/9/6
f 601/9/6 600/9/6 602/9/6
f 602/9/6 600/9/6 603/9/6
f 603/9/6 600/9/6 604/9/6
f 605/9/6 606/9/6 609/9/6
f 609/9/6 606/9/6 610/9/6
f 607/9/6 608/9/6 611/9/6
f 611/9/6 608/9/6 612/9/6
f 613/9/6 614/9/6 617/9/6
f 617/9/6 614/9/6 618/9/6
f 615/9/6 616/9/6 619/9/6
f 619/9/6 616/9/6 620/9/6
f 618/9/6 619/9/6 624/9/6
f 624/9/6 619/9/6 625/9/6
f 620/9/6 621/9/6 626/9/6
f 626/9/6 621/9/6 627/9/6
f 622/9/6 623/9/6 628/9/6
f 628/9/6 623/9/6 629/9/6
f 625/9/6 626/9/6 631/9/6
f 631/9/6 626/9/6 632/9/6
f 630/9/6 631/9/6 635/9/6
f 635/9/6 631/9/6 636/9/6
f 632/9/6 633/9/6 637/9/6
f 637/9/6 633/9/6 638/9/6
f 635/9/6 636/9/6 640/9/6
f 634/9/6 635/9/6 640/9/6
f 636/9/6 637/9/6 640/9/6
f 639/9/6 640/9/6 641/9/6
f 640/9/6 637/9/6 642/9/6
f 641/9/6 640/9/6 642/9/6
f 643/9/6 644/9/6 646/9/6
f 646/9/6 644/9/6 647/9/6
f 645/9/6 646/9/6 648/9/6
f 648/9/6 649/9/6 652/9/6
f 645/9/6 648/9/6 652/9/6
f 652/9/6 649/9/6 653/9/6
f 650/9/6 651/9/6 654/9/6
f 654/9/6 651/9/6 655/9/6
f 645/9/6 652/9/6 656/9/6
f 656/9/6 652/9/6 657/9/6
f 645/9/6 656/9/6 658/9/6
f 658/9/6 656/9/6 659/9/6
f 660/9/6 661/9/6 662/9/6
f 662/9/6 661/9/6 663/9/6
